<?xml version="1.0" encoding="iso-8859-1"?>
<!-- Generator: Adobe Illustrator 16.0.0, SVG Export Plug-In . SVG Version: 6.00 Build 0)  -->
<!DOCTYPE svg PUBLIC "-//W3C//DTD SVG 1.1//EN" "http://www.w3.org/Graphics/SVG/1.1/DTD/svg11.dtd">
<svg version="1.1" id="Capa_1" xmlns="http://www.w3.org/2000/svg" xmlns:xlink="http://www.w3.org/1999/xlink" x="0px" y="0px"
	 width="585.918px" height="585.918px" viewBox="0 0 585.918 585.918" style="enable-background:new 0 0 585.918 585.918;"
	 xml:space="preserve">
<g>
	<path d="M60.431,245.144c-4.607,0.092-7.73,0.617-9.342,1.145v32.14c1.909,0.478,4.284,0.635,7.546,0.63
		c12.126-0.016,19.664-6.735,19.664-18.024C78.299,250.89,71.822,244.956,60.431,245.144z"/>
	<path d="M357.4,535.33c0.767,0.042,1.543,0.109,2.33,0.109h177.39c20.745,0,37.627-16.883,37.627-37.627V86.597
		c0-20.743-16.882-37.628-37.627-37.628H359.73c-0.782,0-1.563,0.077-2.33,0.113V0L11.17,46.206v492.311l346.23,47.401V535.33z
		 M553.245,288.42h-39.234v-42.408h39.234V288.42z M514.327,330.828h38.918v42.405h-38.918V330.828z M359.73,70.476h177.39
		c8.892,0,16.125,7.236,16.125,16.126v118.027h-35.202c-1.606,0-3.107-0.375-4.472-1.01v42.394h-41.966v42.408h41.966v42.408h-41.66
		v42.405h41.975v42.404h39.359v82.185c0,8.893-7.233,16.127-16.125,16.127H359.73c-0.792,0-1.563-0.121-2.33-0.232v-98.079h29.522
		v-42.41H357.4v-42.404h29.218V288.42H357.4v-42.408h29.218v-42.409H357.4V70.711C358.167,70.599,358.933,70.476,359.73,70.476z
		 M91.882,286.583c-7.95,8.019-19.62,11.536-33.079,11.436c-2.984-0.021-5.662-0.199-7.719-0.54v38.93l-22.077-0.561V229.556
		c6.827-1.451,16.471-2.667,30.224-3.028c14.089-0.37,24.255,2.318,31.108,8.07c6.621,5.465,11.094,14.636,11.094,25.549
		C101.439,271.053,98.037,280.326,91.882,286.583z M207.834,340.424l-26.929-0.693l-23.706-44.703
		c-6.5-12.213-13.593-26.882-18.912-40.127l-0.473,0.165c0.641,14.961,0.969,30.942,0.969,49.442v34.147l-22.205-0.571V225.855
		l28.305-0.735l22.783,41.501c6.606,12.095,13.239,26.483,18.239,39.561l0.504,0.004c-1.672-15.296-2.171-30.923-2.171-48.266
		v-33.816l23.601-0.614v116.933H207.834z M332.77,337.951c-8.861,2.709-25.513,6.284-41.9,5.854
		c-22.308-0.577-38.192-6.477-49.116-17.303c-10.834-10.372-16.733-25.848-16.557-43.139c0.167-39.166,28.727-62.29,68.602-63.339
		c16.073-0.418,28.598,2.344,34.825,5.112l-6.038,22.374c-6.938-2.801-15.506-5.032-29.151-4.801
		c-23.067,0.386-40.209,13.418-40.209,39.245c0,24.602,15.518,39.362,38.192,39.741c6.412,0.115,11.588-0.524,13.813-1.57v-25.507
		l-19.12-0.104v-21.352l46.658-0.178V337.951z"/>
	<polygon points="513.527,203.609 513.571,203.625 513.571,203.609 	"/>
	<polygon points="428.887,330.828 387.237,330.828 387.237,373.228 429.202,373.228 429.202,415.638 471.605,415.638 
		471.605,373.228 429.643,373.228 429.643,330.828 471.302,330.828 471.302,288.42 429.338,288.42 429.338,246.013 471.302,246.013 
		471.302,203.609 429.338,203.609 429.338,161.201 386.923,161.201 386.923,203.609 428.887,203.609 428.887,246.013 
		386.923,246.013 386.923,288.42 428.887,288.42 	"/>
	<polygon points="471.605,161.201 471.605,203.609 513.527,203.609 513.486,161.201 	"/>
</g>
<g>
</g>
<g>
</g>
<g>
</g>
<g>
</g>
<g>
</g>
<g>
</g>
<g>
</g>
<g>
</g>
<g>
</g>
<g>
</g>
<g>
</g>
<g>
</g>
<g>
</g>
<g>
</g>
<g>
</g>
</svg>
