<?xml version="1.0" encoding="UTF-8" standalone="no"?>
<svg
   xmlns:dc="http://purl.org/dc/elements/1.1/"
   xmlns:cc="http://creativecommons.org/ns#"
   xmlns:rdf="http://www.w3.org/1999/02/22-rdf-syntax-ns#"
   xmlns:svg="http://www.w3.org/2000/svg"
   xmlns="http://www.w3.org/2000/svg"
   xml:space="preserve"
   enable-background="new 0 0 841.89 595.275"
   viewBox="0 0 320.28976 178.141"
   height="178.14101"
   width="320.28976"
   y="0px"
   x="0px"
   id="Vrstva_1"
   version="1.1"><metadata
     id="metadata242"><rdf:RDF><cc:Work
         rdf:about=""><dc:format>image/svg+xml</dc:format><dc:type
           rdf:resource="http://purl.org/dc/dcmitype/StillImage" /><dc:title></dc:title></cc:Work></rdf:RDF></metadata><defs
     id="defs240" /><g
     transform="translate(-80.862038,-199.125)"
     id="g3570"><path
       style="fill-opacity:1;stroke:none;stroke-opacity:1"
       d="m 398.221,220.506 -0.035,0.018 c -0.299,-2.003 -2.002,-3.554 -4.103,-3.569 l 0,0 -27.52,-1.583 0,0.015 -0.201,-0.015 c -2.318,0 -4.202,1.882 -4.202,4.2 0,0.435 0.081,0.852 0.216,1.25 l -0.02,0 c 5.404,16.083 14.331,51.292 2.703,83.885 -1.1,2.869 -2.317,5.672 -3.819,8.486 -6.504,12.264 -17.729,23.121 -32.241,30.893 -14.514,7.773 -32.26,12.412 -51.442,12.412 l -0.182,-0.016 0,-0.02 c -0.117,0 -0.216,0 -0.317,0 -1.068,-0.018 -2.121,-0.084 -3.17,-0.117 l 0,0.033 c -20.785,-0.566 -37.214,-7.537 -49.205,-21.047 -11.158,-12.496 -16.729,-27.605 -16.729,-45.286 0,-18.717 6.335,-34.529 18.995,-47.436 12.912,-13.063 28.841,-19.586 47.791,-19.586 17.448,0 32.059,5.256 43.851,15.765 11.96,10.591 17.931,24.02 17.931,40.267 0,9.871 -2.551,18.762 -7.654,26.652 -2.872,4.537 -6.608,7.922 -11.228,10.139 -1.916,0.885 -3.616,1.318 -5.138,1.318 -1.833,0 -2.752,-1.383 -2.752,-4.168 0,-3.602 0.2,-7.09 0.602,-10.527 l 5.985,-49.037 -0.016,0 c 0.036,-0.216 0.052,-0.415 0.052,-0.636 0,-2.314 -1.868,-4.2 -4.186,-4.2 l -0.02,0 0,0 -14.527,0 0,0.013 -0.1,-0.013 c -1.869,0 -3.436,1.233 -3.97,2.935 l -0.049,-0.015 -0.619,2.217 c -4.451,-2.719 -8.271,-4.57 -11.405,-5.556 -3.154,-1 -6.875,-1.499 -11.181,-1.499 -11.875,0 -21.863,3.938 -29.99,11.829 -9.239,8.921 -13.86,20.481 -13.86,34.656 0,12.808 3.704,23.453 11.112,31.892 7.489,8.607 16.942,12.912 28.319,12.912 9.726,0 18.331,-3.621 25.803,-10.875 4.471,7.006 10.691,10.508 18.649,10.508 5.254,0 10.626,-1.268 16.13,-3.82 8.525,-3.904 15.496,-10.275 20.898,-19.115 6.774,-10.908 10.157,-22.933 10.157,-36.079 0,-13.228 -3.418,-25.536 -10.272,-36.927 -6.521,-10.914 -15.563,-19.716 -27.106,-26.403 -1.751,-1.038 -3.535,-1.985 -5.323,-2.872 -12.173,-6.056 -25.567,-9.088 -40.211,-9.088 -10.826,0 -21.083,1.683 -30.809,4.985 -5.521,1.867 -10.875,4.271 -16.03,7.207 -13.145,7.572 -23.501,17.681 -31.075,30.357 -7.955,13.463 -11.94,28.274 -11.94,44.451 0,16.247 4.103,31.256 12.309,45.038 7.638,12.826 17.83,22.865 30.589,30.121 13.779,7.875 30.159,11.811 49.105,11.811 0.166,0 0.302,0 0.466,0 0.1,0 0.204,0 0.318,0 20.717,0 40.117,-4.639 56.846,-12.725 l 0.101,0 c 0,0 8.657,-3.486 19.662,-12.061 0.369,-0.283 0.77,-0.514 1.136,-0.801 0.366,-0.303 0.699,-0.635 1.068,-0.951 1.751,-1.439 3.568,-3.023 5.388,-4.721 0.365,-0.336 0.734,-0.668 1.101,-1.02 21.736,-20.684 46.987,-59.58 35.364,-124.481 z m -114.875,86.635 c -4.472,5.172 -9.874,7.754 -16.247,7.754 -4.704,0 -8.524,-1.949 -11.477,-5.854 -2.934,-3.9 -4.417,-8.918 -4.417,-15.057 0,-7.092 1.885,-12.896 5.67,-17.432 3.787,-4.54 8.588,-6.826 14.394,-6.826 5.669,0.1 10.275,1.888 13.88,5.39 3.567,3.504 5.368,7.972 5.368,13.379 10e-4,6.854 -2.382,13.06 -7.171,18.646 z m -86.367,51.025 -0.184,-0.186 C 146.573,311.611 151.727,246.926 166.487,209.497 l 0.049,-0.134 0.02,-0.067 c 0.182,-0.463 0.298,-0.979 0.298,-1.516 0,-2.253 -1.784,-4.087 -4.019,-4.17 l -0.016,0 -0.167,-0.015 -0.049,0 -77.202,-4.455 0,0.015 c -0.104,-0.015 -0.201,-0.03 -0.302,-0.03 -2.252,0 -4.069,1.782 -4.17,4.001 l -0.016,0.052 -0.01,0.147 0.01,0.102 c -0.612,24.303 2.525,126.899 111.394,161.608 l 0.02,-0.031 c 0.547,0.252 1.133,0.385 1.765,0.385 2.321,0 4.186,-1.867 4.186,-4.189 0,-1.15 -0.45,-2.184 -1.182,-2.938 l -0.117,-0.096 z"
       id="path236" /></g></svg>
       