<svg id="Layer_1" enable-background="new 0 0 511.33 511.33" height="512" viewBox="0 0 511.33 511.33" width="512" xmlns="http://www.w3.org/2000/svg"><path d="m474.882 192.264c-4.983-6.375-11.333-11.52-18.461-15.199-12.476-100.361-98.079-177.065-200.756-177.065s-188.28 76.704-200.756 177.065c-7.128 3.679-13.478 8.824-18.461 15.199-48.184 61.641-48.325 150.312 0 212.132 22.345 28.587 67.139 29.36 90.106-1.077 10.781-14.288 14.157-32.319 9.263-49.469-9.625-33.728-9.625-77.313 0-111.039.415 0 8.419-26.035-9.264-49.471-7.353-9.744-17.32-16.666-28.578-20.135 13.722-75.014 79.451-131.205 157.69-131.205s143.968 56.191 157.689 131.205c-28.381 8.746-46.557 39.063-37.843 69.605 1.175 0 15.527 56.634.001 111.039-6.553 22.961 2.003 46.247 19.77 60.149-4.796 5.555-10.257 10.477-16.401 14.723-26.669 13.335-24.247 12.623-34.287 15.215-9.275 2.394-18.03 3.552-25.263 4.076 0-12.467-9.798-21.35-21-21.35h-85.334c-11.598 0-21 9.402-21 21v42.667c0 11.598 9.402 21 21 21h85.334c11.247 0 21-8.962 21-21.237 48.372-2.743 93.482-22.84 119.65-64.794 14.107-2.205 27.113-9.663 35.899-20.902 48.187-61.643 48.325-150.314.002-212.132z"/></svg>