<svg id="Capa_1" enable-background="new 0 0 512 512" height="512" viewBox="0 0 512 512" width="512" xmlns="http://www.w3.org/2000/svg"><g><path d="m486.134 53.762c-3.204-30.649-28.859-53.762-59.675-53.762h-340.918c-30.816 0-56.471 23.113-59.675 53.762l-25.785 246.678-.081.778v210.782h135v-60h242v60h135v-210.782zm-374.798 263.238 25.962 45h-107.298v-45zm60.598 45-25.962-45h220.057l-25.962 45zm310.066 30v30h-452v-30zm-107.298-30 25.962-45h81.336v45zm-343.052-75 17.457-167h413.788l17.457 167zm53.891-257h340.918c15.408 0 28.235 11.557 29.837 26.881l3.462 33.119h-407.516l3.462-33.119c1.602-15.324 14.429-26.881 29.837-26.881zm19.459 452h-75v-30h75zm302 0v-30h75v30z"/></g></svg>