<?xml version="1.0" encoding="iso-8859-1"?>
<!-- Generator: Adobe Illustrator 16.0.0, SVG Export Plug-In . SVG Version: 6.00 Build 0)  -->
<!DOCTYPE svg PUBLIC "-//W3C//DTD SVG 1.1//EN" "http://www.w3.org/Graphics/SVG/1.1/DTD/svg11.dtd">
<svg version="1.1" id="Capa_1" xmlns="http://www.w3.org/2000/svg" xmlns:xlink="http://www.w3.org/1999/xlink" x="0px" y="0px"
	 width="588.6px" height="588.6px" viewBox="0 0 588.6 588.6" style="enable-background:new 0 0 588.6 588.6;" xml:space="preserve"
	>
<g>
	<path d="M155.629,270.005c-5.071,0.092-8.511,0.659-10.304,1.197v33.813c2.112,0.517,4.714,0.675,8.332,0.664
		c13.365-0.011,21.687-7.088,21.687-18.969C175.339,276.03,168.178,269.789,155.629,270.005z"/>
	<path d="M359.036,537.78c0.771,0.042,1.551,0.111,2.342,0.111h178.2c20.84,0,37.8-16.96,37.8-37.801V86.994
		c0-20.838-16.96-37.8-37.8-37.8h-178.2c-0.786,0-1.571,0.077-2.342,0.113V0L11.222,46.417v494.564L359.036,588.6V537.78z
		 M361.378,70.798h178.2c8.933,0,16.199,7.27,16.199,16.2v332.535c-13.837-35.596-30.797-83.547-56.389-77.003
		c-30.575,7.815-45.837,79.229-45.837,79.229h102.236v78.342c0,8.934-7.271,16.2-16.2,16.2H361.389
		c-0.802,0-1.572-0.121-2.347-0.232v-94.32h94.505c0,0-15.641-80.584-58.788-123.757c-12.329-12.332-24.554-7.483-35.723,5.706
		V199.76c4.73,7.549,13.062,12.604,22.645,12.604c14.776,0,26.747-11.965,26.747-26.744c0-14.781-11.971-26.736-26.747-26.736
		c-9.582,0-17.914,5.055-22.645,12.599V71.036C359.807,70.922,360.576,70.798,361.378,70.798z M100.965,323.583
		c0,31.973-14.288,42.757-36.893,42.161c-5.265-0.132-12.161-1.308-16.643-3.037l2.555-19.939c3.132,1.197,7.172,2.072,11.686,2.141
		c9.682,0.164,15.789-4.503,15.789-21.811v-69.859l23.512-0.606v70.951H100.965z M190.318,313.601
		c-8.775,8.442-21.642,12.149-36.492,12.039c-3.267-0.021-6.22-0.216-8.5-0.564v40.943l-24.311-0.622V253.626
		c7.512-1.54,18.138-2.824,33.296-3.227c15.525-0.401,26.736,2.407,34.312,8.456c7.317,5.745,12.248,15.406,12.248,26.892
		C200.865,297.253,197.123,307.009,190.318,313.601z M228.751,353.352c-10.8-10.395-16.698-25.882-16.52-43.211
		c0.169-39.208,28.669-62.369,68.473-63.41c16.032-0.422,28.54,2.354,34.742,5.112l-6.022,22.407
		c-6.93-2.816-15.456-5.033-29.099-4.807c-23.014,0.382-40.131,13.423-40.131,39.289c0,24.633,15.49,39.42,38.129,39.799
		c6.402,0.105,11.559-0.537,13.774-1.582v-25.533l-19.066-0.111v-21.379l46.585-0.179V364.8c-8.875,2.716-25.463,6.297-41.839,5.88
		C255.519,370.09,239.669,364.184,228.751,353.352z"/>
	<path d="M472.004,276.734c5.4,0,10.452-0.556,14.945-1.466c5.236,2.247,11.591,3.591,18.515,3.591
		c17.671,0,32.01-8.654,32.01-19.309c0-10.676-14.328-19.322-32.01-19.322c-6.645,0-12.793,1.215-17.919,3.298
		c-2.089-2.02-4.91-3.298-8.042-3.298h-4.641c-5.928,0-10.632,4.503-11.307,10.249c-14.364,1.497-24.975,6.671-24.975,12.88
		C438.57,270.744,453.536,276.734,472.004,276.734z"/>
</g>
<g>
</g>
<g>
</g>
<g>
</g>
<g>
</g>
<g>
</g>
<g>
</g>
<g>
</g>
<g>
</g>
<g>
</g>
<g>
</g>
<g>
</g>
<g>
</g>
<g>
</g>
<g>
</g>
<g>
</g>
</svg>
