<?xml version="1.0" encoding="iso-8859-1"?>
<!-- Generator: Adobe Illustrator 16.0.0, SVG Export Plug-In . SVG Version: 6.00 Build 0)  -->
<!DOCTYPE svg PUBLIC "-//W3C//DTD SVG 1.1//EN" "http://www.w3.org/Graphics/SVG/1.1/DTD/svg11.dtd">
<svg version="1.1" id="Capa_1" xmlns="http://www.w3.org/2000/svg" xmlns:xlink="http://www.w3.org/1999/xlink" x="0px" y="0px"
	 width="588.6px" height="588.6px" viewBox="0 0 588.6 588.6" style="enable-background:new 0 0 588.6 588.6;" xml:space="preserve"
	>
<g>
	<path d="M359.036,537.78c0.771,0.048,1.551,0.111,2.342,0.111h178.2c20.84,0,37.8-16.96,37.8-37.801V86.994
		c0-20.838-16.96-37.8-37.8-37.8h-178.2c-0.786,0-1.571,0.077-2.342,0.113V0L11.222,46.417v494.564L359.036,588.6V537.78z
		 M363.635,255.424c0,0,4.324,0.313,4.324-0.923s-0.606-1.856-0.606-1.856l-0.622-2.162c0,0,2.811-1.548,10.204-0.938
		c7.425,0.633,4.646,5.88,7.752,7.122c3.09,1.236-2.489,5.563-3.724,8.031c-1.229,2.468-3.09-3.101-3.09-3.101
		s1.861-2.139-1.234-2.777c-3.09-0.604-5.136,5.569-3.575,5.266c1.54-0.306,3.27,1.669,2.953,3.208
		c-0.316,1.551-0.316,1.424-1.856,4.823c-1.55,3.396-4.904,5.917-4.904,5.917s-1.582-0.959-0.664,0.896
		c0.949,1.854-0.306,6.183-0.306,7.415s-3.713-2.16-4.313-5.266c-0.56-2.695-3.401-0.976-4.926-0.29v-31.833
		c7.699-7.344,14.186-9.59,14.186-9.59l1.551,6.479c0,0-3.396,0.931-5.242,0.319c-1.867-0.614-2.811-0.614-2.811-0.614l-2.452,3.391
		c0,0-0.944,2.17-1.255,3.406C362.717,253.583,363.635,255.424,363.635,255.424z M389.295,248.978
		c-4.324-4.633-8.658-6.209-8.342-9.316c0.073-0.614,4.472-1.587,4.545-2.668c6.565-6.096,17.033-4.836,17.83-3.401
		c-1.872,3.074-4.746,2.046-5.068,5.142c-0.316,3.096-5.252,7.106-4.624,8.353C394.263,248.334,393.63,253.616,389.295,248.978z
		 M376.302,337.98c0.928,1.534-3.302,10.742-3.302,10.742c-2.689-0.538-4.187-3.649-5.115-6.106
		c-0.928-2.489-2.162-3.797-1.855-6.582c0.316-2.773-2.395-4.239-3.312-5.785c-0.928-1.561-2.156-3.717-2.156-5.268
		c0-0.717-0.733-1.561-1.519-2.268v-27.496c0.875-0.279,1.65-0.59,2.136-0.833c1.846-0.934,7.103-1.856,7.72,0.617
		c0.644,2.479,6.508,3.391,8.659,4.008c2.173,0.617,6.497,0.928,8.986,3.406c2.457,2.474-1.856,7.114-2.184,8.665
		c-0.306,1.539-2.157,5.263-3.396,7.725c-1.233,2.474-1.855,3.402-3.406,4.636c-1.54,1.25-2.468,3.407-2.468,3.407l-0.306,5.252
		C374.772,332.1,375.384,336.429,376.302,337.98z M361.378,70.798h178.2c8.933,0,16.199,7.27,16.199,16.2v413.103
		c0,8.934-7.267,16.2-16.199,16.2h-178.2c-0.797,0-1.571-0.127-2.342-0.242v-168.65c11.476,8.49,25.618,13.568,40.985,13.568
		c38.138,0,69.051-30.918,69.051-69.05c0-38.138-30.913-69.053-69.051-69.053c-15.367,0-29.51,5.081-40.985,13.566V71.036
		C359.807,70.922,360.576,70.798,361.378,70.798z M450.425,273.272l-13.173-5.437c0,0-1.261,4.282,2.114,9.547
		c0,0-1.117,5.972-3.907,4.427l-7.62-3.834c0,0-2.579-1.112-6.687,1.371c-4.14,2.463-11.122-0.119-11.122-0.119
		s0.564-4.147,4.894-6.296l3.555-2.344c0,0-0.928-4.232-0.127-7.533c0.812-3.288,2.268-0.403,5.569-2.882
		c3.29-2.463,5.568,4.838,10.505,4.021c4.936-0.83,2.479-1.656,5.779-3.298c3.301-1.643,5.77,3.298,5.77,3.298l6.592,0.817
		c0,0-1.034-7.454-0.58-5.521c4.176,7.178,10.283,26.31,8.025,29.734c-1.36-0.617-2.499-1.128-2.499-1.128h-8.248l4.946,5.776
		c0,0,2.384,3.507,5.78,3.286c-2.236,25.85-23.805,42.451-23.805,42.451c-3.301-3.302-1.646-6.17-1.646-6.17l0.918-4.957
		l0.527-8.343c0,0,0-8.648-8.258-4.535c-8.85,2.257-5.158,2.257-14.112,2.879c-8.965,0.617-7.478-18.283-7.478-18.283
		c0-28.289,21.7-6.935,21.7-6.935c12.371,8.227,14.027-6.829,14.027-6.829l9.065-3.282l0.817-4.132L450.425,273.272z
		 M429.194,239.047c1.191-0.577,6.054,1.965,10.167,6.297c-2.764,10.296-9.26,9.065-9.26,9.065s-4.746-0.114-4.124-4.134
		l4.936-3.301C430.913,246.974,428.836,241.655,429.194,239.047z M93.432,335.602l-8.63-18.784c-3.53-7.193-5.767-12.53-8.43-18.463
		l-0.285-0.005c-1.961,5.891-4.327,11.148-7.249,18.22l-7.741,18.214l-23.681-0.585l26.578-50.688l-25.637-49.459l23.833-0.62
		l8.176,18.359c2.787,6.157,4.87,11.119,7.117,16.854h0.277c2.247-6.55,4.071-11.13,6.463-17.092l8.068-18.926l25.041-0.654
		l-27.308,50.91l28.758,53.361L93.432,335.602z M220.229,338.787l-1.603-41.935c-0.475-13.157-0.973-29.062-0.973-44.964
		l-0.485,0.011c-3.354,13.98-7.826,29.544-11.95,42.296l-12.933,42.124l-18.481-0.448l-11.032-41.539
		c-3.331-12.479-6.824-27.599-9.239-41.428h-0.295c-0.601,14.32-1.055,30.694-1.814,43.901l-1.817,40.204l-20.988-0.521
		l6.36-104.974l30.544-0.809l10.125,35.53c3.251,12.396,6.507,25.792,8.828,38.422h0.464c2.977-12.455,6.563-26.702,10.012-38.76
		l11.362-36.263l32.083-0.852l6.064,110.605L220.229,338.787z M336.814,341.708l-72.887-1.835V228.108l25.935-0.675v91.61
		l46.952,0.728V341.708z"/>
	<polygon points="550.22,286.384 492.349,259.854 492.349,272.634 537.089,291.811 537.089,292.053 492.349,311.217 492.349,324 
		550.22,297.469 	"/>
</g>
<g>
</g>
<g>
</g>
<g>
</g>
<g>
</g>
<g>
</g>
<g>
</g>
<g>
</g>
<g>
</g>
<g>
</g>
<g>
</g>
<g>
</g>
<g>
</g>
<g>
</g>
<g>
</g>
<g>
</g>
</svg>
