<?xml version="1.0" encoding="iso-8859-1"?>
<!-- Generator: Adobe Illustrator 16.0.0, SVG Export Plug-In . SVG Version: 6.00 Build 0)  -->
<!DOCTYPE svg PUBLIC "-//W3C//DTD SVG 1.1//EN" "http://www.w3.org/Graphics/SVG/1.1/DTD/svg11.dtd">
<svg version="1.1" id="Capa_1" xmlns="http://www.w3.org/2000/svg" xmlns:xlink="http://www.w3.org/1999/xlink" x="0px" y="0px"
	 width="588.6px" height="588.6px" viewBox="0 0 588.6 588.6" style="enable-background:new 0 0 588.6 588.6;" xml:space="preserve"
	>
<g>
	<path d="M359.036,537.78c0.771,0.048,1.551,0.111,2.342,0.111h178.2c20.84,0,37.8-16.96,37.8-37.801V86.994
		c0-20.838-16.96-37.8-37.8-37.8h-178.2c-0.786,0-1.571,0.077-2.342,0.113V0L11.222,46.417v494.564L359.036,588.6V537.78z
		 M361.378,70.798h178.2c8.933,0,16.199,7.27,16.199,16.2v413.103c0,8.934-7.267,16.2-16.199,16.2h-178.2
		c-0.797,0-1.571-0.127-2.342-0.242V347.751h77.583v155.957h14.133V347.751h85.662L480.22,281.34h31.219l-51.801-61.208h32.278
		l-42.588-50.301h19.85l-32.743-38.686l-29.758,38.686h20.076l-38.697,50.301h31.667l-47.092,61.208h29.416l-43.021,55.922V71.036
		C359.807,70.922,360.576,70.798,361.378,70.798z M154.155,342.621c-7.691,2.526-22.088,5.858-36.315,5.458
		c-19.343-0.549-33.141-6.054-42.639-16.174c-9.418-9.708-14.552-24.168-14.407-40.357c0.145-36.608,24.986-58.143,59.6-58.986
		c13.919-0.34,24.775,2.292,30.144,4.889l-5.213,20.843c-6.009-2.642-13.424-4.73-25.25-4.564
		c-20.028,0.298-34.923,12.421-34.923,36.558c0,22.981,13.5,36.793,33.162,37.157c5.579,0.11,10.051-0.485,11.984-1.461v-23.794
		l-16.575-0.126v-19.924l40.427-0.076v60.558H154.155z M199.684,349.165l-25.829-0.717V232.469l25.829-0.62V349.165z
		 M296.525,252.229l-47.113,0.675v27.388l43.959-0.114v22.47l-43.959-0.301v48.194l-26.958-0.744V231.309l74.071-1.762V252.229z"/>
</g>
<g>
</g>
<g>
</g>
<g>
</g>
<g>
</g>
<g>
</g>
<g>
</g>
<g>
</g>
<g>
</g>
<g>
</g>
<g>
</g>
<g>
</g>
<g>
</g>
<g>
</g>
<g>
</g>
<g>
</g>
</svg>
