<?xml version="1.0" encoding="iso-8859-1"?>
<!-- Generator: Adobe Illustrator 16.0.0, SVG Export Plug-In . SVG Version: 6.00 Build 0)  -->
<!DOCTYPE svg PUBLIC "-//W3C//DTD SVG 1.1//EN" "http://www.w3.org/Graphics/SVG/1.1/DTD/svg11.dtd">
<svg version="1.1" id="Capa_1" xmlns="http://www.w3.org/2000/svg" xmlns:xlink="http://www.w3.org/1999/xlink" x="0px" y="0px"
	 width="588.601px" height="588.6px" viewBox="0 0 588.601 588.6" style="enable-background:new 0 0 588.601 588.6;"
	 xml:space="preserve">
<g>
	<path d="M359.031,537.78c0.781,0.042,1.551,0.111,2.342,0.111h178.2c20.846,0,37.8-16.96,37.8-37.801V86.994
		c0-20.838-16.954-37.8-37.8-37.8h-178.2c-0.786,0-1.561,0.077-2.342,0.113V0L11.228,46.417v494.564L359.031,588.6V537.78z
		 M361.373,70.798h178.2c8.933,0,16.2,7.27,16.2,16.2v413.103c0,8.928-7.268,16.2-16.2,16.2h-178.2
		c-0.796,0-1.571-0.127-2.342-0.242V368.761h104.583v-20.414h81.802v-27.743H499.7V309.62h18.052v-8.137H499.7v-9.461h18.052v-8.14
		H499.7v-9.244h18.052v-8.132H499.7v-7.14h45.716v-27.744h-81.802v27.744h27.665v61.238h-27.665v26.515H359.031v-9.893h83.542
		v-94.458h-83.542v-11.14h104.583v-21.666H359.031V71.036C359.802,70.922,360.571,70.798,361.373,70.798z M89.119,360.75
		c-1.708-3.201-4.187-12.393-7.291-26.214c-2.776-13.938-7.235-17.782-16.73-18.024l-6.982-0.053v43.41l-22.594-0.633V251.451
		c7.27-1.469,18.214-2.705,30.489-3.003c15.348-0.356,26.211,1.88,33.739,8.058c6.296,5.242,9.795,13.057,9.795,23.461
		c0,14.428-9.637,24.3-18.71,27.781v0.495c7.349,3.201,11.42,10.748,14.12,21.152c3.322,12.788,6.655,27.627,8.711,32.057
		L89.119,360.75z M195.439,363.751l-8.883-30.291l-32.326-0.485l-7.889,29.395l-25.626-0.733l33.515-114.415l33.519-0.783
		l36.12,118.104L195.439,363.751z M304.346,366.815c-2.066-3.527-5.062-13.632-8.796-28.814
		c-3.354-15.318-8.754-19.532-20.166-19.807l-8.417-0.074v47.636l-27.179-0.771V246.833c8.754-1.626,21.919-3.003,36.682-3.354
		c18.513-0.438,31.641,1.993,40.722,8.77c7.636,5.74,11.833,14.341,11.833,25.774c0,15.87-11.633,26.729-22.617,30.541v0.554
		c8.886,3.522,13.832,11.817,17.075,23.267c3.992,14.069,8.031,30.396,10.536,35.269L304.346,366.815z"/>
	<path d="M170.032,266.506h-0.33c-1.69,6.916-3.354,15.712-5.189,22.431l-6.642,24.542l24.954,0.158l-7.08-24.753
		C173.726,281.987,171.711,273.385,170.032,266.506z"/>
	<path d="M279.603,263.828c-6.805,0.103-10.624,0.696-12.635,1.083v33.439l10.977-0.006c14.051-0.01,22.468-6.939,22.468-17.697
		C300.412,269.351,292.562,263.817,279.603,263.828z"/>
	<path d="M68.613,266.997c-5.632,0.087-8.828,0.628-10.492,0.979v30.47h9.121c11.654-0.011,18.626-6.317,18.626-16.1
		C85.868,272.046,79.36,267.002,68.613,266.997z"/>
</g>
<g>
</g>
<g>
</g>
<g>
</g>
<g>
</g>
<g>
</g>
<g>
</g>
<g>
</g>
<g>
</g>
<g>
</g>
<g>
</g>
<g>
</g>
<g>
</g>
<g>
</g>
<g>
</g>
<g>
</g>
</svg>
