<?xml version="1.0" encoding="iso-8859-1"?>
<!-- Generator: Adobe Illustrator 16.0.0, SVG Export Plug-In . SVG Version: 6.00 Build 0)  -->
<!DOCTYPE svg PUBLIC "-//W3C//DTD SVG 1.1//EN" "http://www.w3.org/Graphics/SVG/1.1/DTD/svg11.dtd">
<svg version="1.1" id="Capa_1" xmlns="http://www.w3.org/2000/svg" xmlns:xlink="http://www.w3.org/1999/xlink" x="0px" y="0px"
	 width="588.6px" height="588.6px" viewBox="0 0 588.6 588.6" style="enable-background:new 0 0 588.6 588.6;" xml:space="preserve"
	>
<g>
	<path d="M110.734,250.771l-0.309,0.01c-1.561,6.689-3.122,15.201-4.833,21.714l-6.23,23.768l23.348,0.078l-6.626-23.933
		C114.201,265.75,112.316,257.428,110.734,250.771z"/>
	<path d="M359.036,537.78c0.771,0.042,1.551,0.111,2.342,0.111h178.2c20.84,0,37.8-16.96,37.8-37.801V86.994
		c0-20.838-16.96-37.8-37.8-37.8h-178.2c-0.786,0-1.571,0.077-2.342,0.113V0L11.222,46.417v494.564L359.036,588.6V537.78z
		 M359.036,299.504h129.252v88.516H359.036V299.504z M359.036,284.908v-86.734h129.252v86.74H359.036V284.908z M361.378,70.798
		h178.2c8.933,0,16.199,7.27,16.199,16.2v413.103c0,8.928-7.267,16.2-16.199,16.2h-178.2c-0.797,0-1.571-0.127-2.342-0.242v-112.13
		h164.975V180.483H359.036V71.036C359.807,70.922,360.576,70.798,361.378,70.798z M514.961,259.627v19.147h-17.708v-19.147H514.961z
		 M497.253,235.438V216.29h17.708v19.148H497.253z M514.961,302.369v19.153h-17.708v-19.153H514.961z M514.961,345.706v19.153
		h-17.708v-19.153H514.961z M134.515,344.761l-8.287-29.268l-30.267-0.353l-7.404,28.46l-23.981-0.596l31.391-110.85l31.366-0.831
		l33.784,114.106L134.515,344.761z M223.171,346.982l-30.438-0.76l-35.873-115.67l27.62-0.736l13.829,49.072
		c3.905,13.883,7.48,27.288,10.212,41.942l0.53,0.011c2.9-14.096,6.518-28.05,10.471-41.523l14.963-50.807l28.696-0.762
		L223.171,346.982z M304.277,349.012l-28.087-0.701V227.404l28.087-0.746V349.012z"/>
</g>
<g>
</g>
<g>
</g>
<g>
</g>
<g>
</g>
<g>
</g>
<g>
</g>
<g>
</g>
<g>
</g>
<g>
</g>
<g>
</g>
<g>
</g>
<g>
</g>
<g>
</g>
<g>
</g>
<g>
</g>
</svg>
