<?xml version="1.0" encoding="iso-8859-1"?>
<!-- Generator: Adobe Illustrator 16.0.0, SVG Export Plug-In . SVG Version: 6.00 Build 0)  -->
<!DOCTYPE svg PUBLIC "-//W3C//DTD SVG 1.1//EN" "http://www.w3.org/Graphics/SVG/1.1/DTD/svg11.dtd">
<svg version="1.1" id="Capa_1" xmlns="http://www.w3.org/2000/svg" xmlns:xlink="http://www.w3.org/1999/xlink" x="0px" y="0px"
	 width="585.918px" height="585.918px" viewBox="0 0 585.918 585.918" style="enable-background:new 0 0 585.918 585.918;"
	 xml:space="preserve">
<g>
	<path d="M357.4,535.33c0.767,0.042,1.543,0.109,2.33,0.109h177.39c20.745,0,37.627-16.883,37.627-37.627V86.597
		c0-20.743-16.882-37.628-37.627-37.628H359.73c-0.782,0-1.563,0.077-2.33,0.113V0L11.17,46.206v492.311l346.23,47.401V535.33z
		 M357.4,70.711c0.767-0.113,1.532-0.236,2.33-0.236h177.39c8.892,0,16.125,7.236,16.125,16.126v411.22
		c0,8.888-7.233,16.127-16.125,16.127H359.73c-0.792,0-1.563-0.127-2.33-0.243V70.711z M120.345,336.024l-1.406-38.12
		c-0.41-11.956-0.83-26.421-0.83-40.875l-0.42,0.011c-2.905,12.706-6.792,26.855-10.362,38.444l-11.224,38.314l-16.042-0.388
		l-9.572-37.808c-2.908-11.359-5.94-25.136-8.032-37.727h-0.263c-0.538,13.042-0.923,27.948-1.585,39.975l-1.565,36.609
		l-18.254-0.462l5.541-95.624l26.543-0.687l8.801,32.35c2.821,11.293,5.648,23.478,7.664,34.964l0.4,0.01
		c2.575-11.333,5.703-24.305,8.679-35.266l9.872-32.967l27.801-0.725l5.251,100.516L120.345,336.024z M221.272,290.586
		c-7.987,7.57-19.717,10.887-33.229,10.793c-2.995-0.021-5.682-0.2-7.735-0.52v36.705l-22.143-0.563V236.84
		c6.843-1.384,16.512-2.543,30.313-2.903c14.152-0.373,24.354,2.145,31.262,7.562c6.644,5.155,11.147,13.811,11.147,24.115
		C230.889,275.929,227.477,284.681,221.272,290.586z M339.175,336.539c-8.095,2.436-23.224,5.638-38.18,5.25
		c-20.302-0.535-34.75-5.832-44.691-15.56c-9.858-9.312-15.223-23.202-15.065-38.743c0.165-35.161,26.139-55.933,62.423-56.888
		c14.642-0.388,26.053,2.097,31.701,4.58l-5.485,20.098c-6.31-2.515-14.111-4.504-26.547-4.299
		c-20.997,0.349-36.604,12.055-36.604,35.257c0,22.084,14.134,35.355,34.767,35.697c5.858,0.099,10.562-0.467,12.588-1.412V297.6
		l-17.407-0.09v-19.179l42.5-0.165V336.539z"/>
	<path d="M189.671,251.504c-4.616,0.084-7.745,0.591-9.362,1.079v30.307c1.919,0.452,4.294,0.606,7.567,0.596
		c12.181-0.016,19.762-6.36,19.762-17.014C207.638,256.906,201.105,251.31,189.671,251.504z"/>
	<path d="M381.306,376.876l1.765,0.409c0.892,0,1.743-0.31,2.479-0.86l132.525-84.631c0.945-0.777,1.507-1.943,1.507-3.143
		s-0.562-2.354-1.507-3.139l-132.525-84.597c-1.224-0.958-2.856-1.134-4.243-0.447c-1.354,0.646-2.246,2.068-2.246,3.575v169.272
		C379.06,374.817,379.952,376.235,381.306,376.876z"/>
</g>
<g>
</g>
<g>
</g>
<g>
</g>
<g>
</g>
<g>
</g>
<g>
</g>
<g>
</g>
<g>
</g>
<g>
</g>
<g>
</g>
<g>
</g>
<g>
</g>
<g>
</g>
<g>
</g>
<g>
</g>
</svg>
