<?xml version="1.0" encoding="iso-8859-1"?>
<!-- Generator: Adobe Illustrator 16.0.0, SVG Export Plug-In . SVG Version: 6.00 Build 0)  -->
<!DOCTYPE svg PUBLIC "-//W3C//DTD SVG 1.1//EN" "http://www.w3.org/Graphics/SVG/1.1/DTD/svg11.dtd">
<svg version="1.1" id="Capa_1" xmlns="http://www.w3.org/2000/svg" xmlns:xlink="http://www.w3.org/1999/xlink" x="0px" y="0px"
	 width="585.918px" height="585.918px" viewBox="0 0 585.918 585.918" style="enable-background:new 0 0 585.918 585.918;"
	 xml:space="preserve">
<g>
	<path d="M357.4,535.325c0.767,0.052,1.543,0.114,2.33,0.114h177.39c20.745,0,37.627-16.883,37.627-37.627V86.597
		c0-20.743-16.882-37.628-37.627-37.628H359.73c-0.782,0-1.563,0.07-2.33,0.113V0L11.17,46.206v492.311l346.23,47.401V535.325z
		 M359.73,70.476h177.39c8.892,0,16.125,7.236,16.125,16.126v411.22c0,8.893-7.233,16.127-16.125,16.127H359.73
		c-0.792,0-1.563-0.127-2.33-0.243V331.248l24.326,11.308v-18.194L357.4,313.715v-33.598l24.326-10.654v-18.189L357.4,262.577
		V70.707C358.167,70.594,358.933,70.476,359.73,70.476z M92.99,343.238l-15.95-0.399V310.85l-25.597-0.096v31.443l-15.17-0.377
		v-74.369l15.17-0.396v28.869l25.597-0.163v-29.383l15.95-0.416V343.238z M159.414,279.536l-20.974,0.339v64.496l-17.029-0.431
		v-63.774l-19.665,0.333v-14.762l57.673-1.522v15.32H159.414z M239.238,346.913l-1.28-32.474c-0.365-10.184-0.756-22.5-0.756-34.816
		l-0.388,0.011c-2.667,10.826-6.203,22.88-9.494,32.748l-10.244,32.6l-14.66-0.348l-8.745-32.143
		c-2.636-9.663-5.396-21.359-7.315-32.063l-0.244,0.005c-0.473,11.087-0.836,23.748-1.438,33.964l-1.42,31.108l-16.633-0.415
		l5.042-81.204l24.19-0.632l8.031,27.488c2.564,9.597,5.145,19.959,6.995,29.733l0.365,0.005c2.354-9.643,5.208-20.679,7.94-30
		l9.018-28.087l25.46-0.671l4.811,85.672L239.238,346.913z M331.878,349.228l-57.951-1.449v-86.589l20.609-0.542v70.989
		l37.342,0.579V349.228z"/>
	<polygon points="448.478,225.013 431.155,225.013 394.44,349.411 411.763,349.411 	"/>
	<polygon points="540.793,289.014 458.441,251.268 458.441,269.452 522.105,296.738 522.105,297.086 458.441,324.356 
		458.441,342.545 540.793,304.802 	"/>
</g>
<g>
</g>
<g>
</g>
<g>
</g>
<g>
</g>
<g>
</g>
<g>
</g>
<g>
</g>
<g>
</g>
<g>
</g>
<g>
</g>
<g>
</g>
<g>
</g>
<g>
</g>
<g>
</g>
<g>
</g>
</svg>
