<?xml version="1.0" encoding="iso-8859-1"?>
<!-- Generator: Adobe Illustrator 16.0.0, SVG Export Plug-In . SVG Version: 6.00 Build 0)  -->
<!DOCTYPE svg PUBLIC "-//W3C//DTD SVG 1.1//EN" "http://www.w3.org/Graphics/SVG/1.1/DTD/svg11.dtd">
<svg version="1.1" id="Capa_1" xmlns="http://www.w3.org/2000/svg" xmlns:xlink="http://www.w3.org/1999/xlink" x="0px" y="0px"
	 width="585.918px" height="585.918px" viewBox="0 0 585.918 585.918" style="enable-background:new 0 0 585.918 585.918;"
	 xml:space="preserve">
<g>
	<path d="M75.444,263.045c-4.659,0.087-7.798,0.617-9.459,1.14v32.322c1.95,0.483,4.349,0.642,7.653,0.642
		c12.252-0.011,19.884-6.772,19.884-18.121C93.522,268.816,86.958,262.846,75.444,263.045z"/>
	<path d="M357.4,535.325c0.767,0.052,1.543,0.114,2.33,0.114h177.39c20.745,0,37.627-16.883,37.627-37.627V86.597
		c0-20.743-16.882-37.628-37.627-37.628H359.73c-0.782,0-1.563,0.07-2.33,0.113V0L11.17,46.206v492.311l346.23,47.401V535.325z
		 M359.73,70.476h177.39c8.892,0,16.125,7.236,16.125,16.126v411.22c0,8.893-7.233,16.127-16.125,16.127H359.73
		c-0.792,0-1.563-0.127-2.33-0.243V369.684l128.642,24.61c1.786,0.341,3.885,0.021,4.703-0.72l58.363-53.407
		c0,0,3.801-2.283-1.616-3.312c-1.292-0.247-10.642-2.044-24.062-4.62l-26.715,24.419c-3.02,2.773-7.051,3.182-9.188,3.182
		c-1.044,0-2.125-0.1-3.158-0.299l-123.657-23.648l-3.316,3.028v-15.223l124.195,23.759c1.784,0.341,3.9,0.026,4.692-0.714
		l58.374-53.413c0,0,3.801-2.288-1.605-3.318c-1.293-0.249-10.647-2.044-24.063-4.624l-26.714,24.43
		c-3.03,2.768-7.062,3.176-9.188,3.176c-1.055,0-2.138-0.1-3.161-0.289l-122.541-23.446v-11.688l124.206,23.759
		c1.773,0.335,3.9,0.021,4.692-0.72l58.363-53.416c0,0,3.802-2.279-1.595-3.31c-5.407-1.028-151.972-29.231-151.972-29.231
		c-1.795-0.344-3.905-0.023-4.692,0.709l-29.003,26.538V70.707C358.167,70.594,358.933,70.476,359.73,70.476z M471.219,264.652
		c-13.806-1.053-33.051,9.698-33.051,9.698s8.393-14.68-1.197-25.239c-9.606-10.557-57.019,14.105-57.019,14.105l-22.546-4.315
		v-0.651l38.629-35.339l132.822,25.41l-39.234,35.867l-9.682-1.856C480.814,275.268,483.009,265.565,471.219,264.652z
		 M107.266,304.729c-8.052,8.063-19.85,11.601-33.483,11.496c-3.002-0.022-5.713-0.21-7.797-0.547v39.146l-22.321-0.584V247.354
		c6.897-1.461,16.665-2.682,30.575-3.036c14.247-0.367,24.53,2.331,31.476,8.121c6.674,5.494,11.223,14.725,11.223,25.701
		C116.938,289.116,113.492,298.429,107.266,304.729z M158.762,358.924c-12.448-0.337-24.608-4.012-30.632-7.682l4.914-20.991
		c6.541,3.621,16.662,7.323,27.202,7.501c11.458,0.199,17.558-4.656,17.558-12.183c0-7.183-5.268-11.314-18.528-16.327
		c-18.09-6.63-29.709-17.018-29.709-33.416c0-19.233,15.318-34.364,41.153-35.042c12.567-0.334,21.932,2.179,28.651,5.113
		l-5.719,21.318c-4.527-2.171-12.525-5.3-23.41-5.113c-10.806,0.173-16.014,5.333-16.014,11.257c0,7.279,6.192,10.444,20.452,15.982
		c19.814,7.485,29.25,18.2,29.25,34.63C203.915,343.521,189.285,359.727,158.762,358.924z M307.939,346.617
		c-13.104,10.364-32.713,14.878-56.262,14.242c-13.858-0.361-23.594-1.485-30.15-2.535V242.939
		c9.669-1.815,22.405-3.026,35.998-3.375c22.932-0.591,38.048,3.155,50.037,11.73c13.04,9.191,21.313,24.205,21.313,45.921
		c0,7.007-0.856,13.281-2.279,19.009c-0.263,0.251-0.294,0.508-0.2,0.767C322.976,330.088,316.276,339.899,307.939,346.617z"/>
	<path d="M260.371,260.233c-6.048,0.108-9.924,0.704-12.221,1.269v77.756c2.302,0.573,6.005,0.642,9.376,0.698
		c24.748,0.604,41.188-12.803,41.188-41.811C298.89,272.914,283.909,259.83,260.371,260.233z"/>
	<path d="M492.973,255.058c7.978,1.521,16.21,1.156,18.382-0.834c2.173-1.99-2.54-4.833-10.519-6.36
		c-3.015-0.574-6.027-0.881-8.757-0.939c-0.535-0.554-1.542-1.031-2.971-1.308l-2.101-0.396c-2.678-0.517-5.716-0.087-7.181,0.935
		c-6.783-0.963-12.646-0.914-13.891,0.242c-1.512,1.375,4.032,3.779,12.369,5.375c2.436,0.472,4.829,0.795,7.043,1.016
		C487.26,253.659,489.844,254.454,492.973,255.058z"/>
</g>
<g>
</g>
<g>
</g>
<g>
</g>
<g>
</g>
<g>
</g>
<g>
</g>
<g>
</g>
<g>
</g>
<g>
</g>
<g>
</g>
<g>
</g>
<g>
</g>
<g>
</g>
<g>
</g>
<g>
</g>
</svg>
