<?xml version="1.0" encoding="iso-8859-1"?>
<!-- Generator: Adobe Illustrator 16.0.0, SVG Export Plug-In . SVG Version: 6.00 Build 0)  -->
<!DOCTYPE svg PUBLIC "-//W3C//DTD SVG 1.1//EN" "http://www.w3.org/Graphics/SVG/1.1/DTD/svg11.dtd">
<svg version="1.1" id="Capa_1" xmlns="http://www.w3.org/2000/svg" xmlns:xlink="http://www.w3.org/1999/xlink" x="0px" y="0px"
	 width="588.6px" height="588.6px" viewBox="0 0 588.6 588.6" style="enable-background:new 0 0 588.6 588.6;" xml:space="preserve"
	>
<g>
	<path d="M359.036,537.78c0.771,0.048,1.551,0.111,2.342,0.111h178.2c20.84,0,37.8-16.96,37.8-37.801V86.994
		c0-20.838-16.96-37.8-37.8-37.8h-178.2c-0.786,0-1.571,0.077-2.342,0.113V0L11.222,46.417v494.564L359.036,588.6V537.78z
		 M361.378,70.798h178.2c8.933,0,16.199,7.27,16.199,16.2v413.103c0,8.934-7.267,16.2-16.199,16.2h-178.2
		c-0.797,0-1.571-0.127-2.342-0.232v-136.65h4.693v-16.2h-4.693v-31.556h4.693v-16.2h-4.693v-33.244h4.693v-16.2h-4.693v-31.902
		h73.544v-16.2h-73.544v-33.172h121.469v-16.2H359.036V71.042C359.807,70.922,360.576,70.798,361.378,70.798z M72.615,336.361
		c-29.963-0.802-47.105-25.502-47.105-56.333c0-32.432,18.935-57.186,48.769-57.963c31.947-0.844,49.805,24.743,49.805,56.001
		C124.083,315.214,102.958,337.163,72.615,336.361z M221.191,324.37c-12.258,10.045-30.652,14.459-52.737,13.863
		c-13.015-0.343-22.161-1.439-28.308-2.431V223.705c9.083-1.748,21.033-2.897,33.795-3.23c21.513-0.559,35.677,3.09,46.915,11.412
		c12.203,8.931,19.941,23.49,19.941,44.54C240.798,299.268,232.524,314.898,221.191,324.37z M295.586,297.221
		c-3.704-0.031-7.003-0.231-9.584-0.622v43.485l-27.38-0.707V220.762c8.445-1.638,20.43-3.02,37.526-3.452
		c17.516-0.454,30.161,2.513,38.735,8.933c8.259,6.106,13.849,16.366,13.849,28.593c0,12.237-4.251,22.615-11.929,29.603
		C326.89,293.424,312.355,297.348,295.586,297.221z"/>
	<path d="M176.597,240.542c-5.674,0.098-9.313,0.675-11.454,1.216v75.513c2.141,0.538,5.635,0.602,8.799,0.665
		c23.203,0.569,38.609-12.445,38.609-40.587C212.728,252.859,198.685,240.161,176.597,240.542z"/>
	<path d="M297.622,238.122c-5.74,0.098-9.595,0.699-11.62,1.276v35.91c2.392,0.529,5.334,0.717,9.405,0.717
		c15.071-0.021,24.479-7.538,24.479-20.174C319.887,244.516,311.797,237.879,297.622,238.122z"/>
	<path d="M73.678,241.954c-15.546,0.264-24.498,16.321-24.498,37.6c0,21.444,9.25,36.695,24.646,36.969
		c15.768,0.274,24.909-15.857,24.909-37.612C98.739,258.804,89.753,241.676,73.678,241.954z"/>
	<path d="M462.037,245.284c-40.953,0-74.145,33.199-74.145,74.139c0,40.954,33.191,74.145,74.145,74.145
		c40.943,0,74.134-33.19,74.134-74.145h-74.134V245.284z"/>
	<path d="M472.088,307.737v0.031h74.155c0-20.861-8.659-39.68-22.518-53.148L472.088,307.737z"/>
	<path d="M471.297,294.701l0.011,0.011l52.418-52.421c-14.733-14.752-33.138-21.945-52.471-21.674L471.297,294.701z"/>
</g>
<g>
</g>
<g>
</g>
<g>
</g>
<g>
</g>
<g>
</g>
<g>
</g>
<g>
</g>
<g>
</g>
<g>
</g>
<g>
</g>
<g>
</g>
<g>
</g>
<g>
</g>
<g>
</g>
<g>
</g>
</svg>
