<?xml version="1.0" encoding="iso-8859-1"?>
<!-- Generator: Adobe Illustrator 16.0.0, SVG Export Plug-In . SVG Version: 6.00 Build 0)  -->
<!DOCTYPE svg PUBLIC "-//W3C//DTD SVG 1.1//EN" "http://www.w3.org/Graphics/SVG/1.1/DTD/svg11.dtd">
<svg version="1.1" id="Capa_1" xmlns="http://www.w3.org/2000/svg" xmlns:xlink="http://www.w3.org/1999/xlink" x="0px" y="0px"
	 width="588.601px" height="588.6px" viewBox="0 0 588.601 588.6" style="enable-background:new 0 0 588.601 588.6;"
	 xml:space="preserve">
<g>
	<path d="M178.24,245.062c-5.746,0.087-9.46,0.654-11.633,1.216v76.098c2.173,0.564,5.719,0.633,8.923,0.696
		c23.591,0.612,39.248-12.487,39.248-40.858C214.948,257.531,200.67,244.716,178.24,245.062z"/>
	<path d="M359.031,537.78c0.781,0.048,1.551,0.111,2.342,0.111h178.2c20.846,0,37.8-16.96,37.8-37.801V86.994
		c0-20.838-16.954-37.8-37.8-37.8h-178.2c-0.786,0-1.561,0.077-2.342,0.113V0L11.228,46.417v494.564L359.031,588.6V537.78z
		 M359.031,390.33h25.65v17.528h-25.65V390.33z M359.031,385.937v-15.525h25.65v15.525H359.031z M359.031,366.03v-19.465h25.65
		v19.465H359.031z M359.031,341.708v-17.54h25.65v17.54H359.031z M359.031,319.776V304.25h25.65v15.525H359.031z M359.031,299.869
		v-19.723h25.65v19.723H359.031z M359.031,275.756V257.85h25.65v17.906H359.031z M359.031,253.46v-19.733h25.65v19.733H359.031z
		 M361.373,70.798h178.2c8.933,0,16.2,7.27,16.2,16.2v413.103c0,8.934-7.268,16.2-16.2,16.2h-178.2
		c-0.796,0-1.571-0.127-2.342-0.232v-92.822h175.827V186.089H359.031V71.042C359.802,70.922,360.571,70.798,361.373,70.798z
		 M430.165,233.727v19.733h-41.096v-19.733H430.165z M389.069,229.347v-25.724h41.096v25.724H389.069z M430.165,257.85v17.906
		h-41.096V257.85H430.165z M430.165,280.146v19.723h-41.096v-19.723H430.165z M430.165,304.25v15.525h-41.096V304.25H430.165z
		 M430.165,324.168v17.54h-41.096v-17.54H430.165z M430.165,346.565v19.465h-41.096v-19.465H430.165z M430.165,370.412v15.525
		h-41.096v-15.525H430.165z M430.165,390.33v17.528h-41.096V390.33H430.165z M519.508,257.85v17.906h-84.961V257.85H519.508z
		 M434.547,253.46v-19.733h84.955v19.733H434.547z M519.508,280.146v19.723h-84.961v-19.723H519.508z M519.508,304.25v15.525
		h-84.961V304.25H519.508z M519.508,324.168v17.54h-84.961v-17.54H519.508z M519.508,346.565v19.465h-84.961v-19.465H519.508z
		 M519.508,370.412v15.525h-84.961v-15.525H519.508z M519.508,390.33v17.528h-84.961V390.33H519.508z M72.631,341.487
		C42.235,340.632,24.83,315.71,24.83,284.66c0-32.674,19.198-57.576,49.497-58.337c32.445-0.796,50.572,24.988,50.572,56.502
		C124.904,320.256,103.438,342.352,72.631,341.487z M223.557,329.632c-12.469,10.125-31.158,14.522-53.602,13.9
		c-13.212-0.369-22.496-1.487-28.748-2.51v-112.96c9.229-1.751,21.368-2.911,34.317-3.23c21.864-0.541,36.271,3.164,47.669,11.562
		c12.416,9.018,20.284,23.712,20.284,44.951C243.482,304.362,235.074,320.098,223.557,329.632z M292.062,347.472
		c-14.322-0.396-28.276-4.393-35.197-8.354l5.643-22.518c7.501,3.908,19.121,7.91,31.227,8.132
		c13.176,0.248,20.21-4.957,20.21-13.036c0-7.72-6.074-12.182-21.339-17.592c-20.767-7.161-34.105-18.333-34.105-35.92
		c0-20.651,17.571-36.893,47.281-37.634c14.46-0.356,25.229,2.333,32.98,5.487l-6.603,22.929
		c-5.199-2.334-14.407-5.709-26.947-5.514c-12.416,0.188-18.383,5.74-18.383,12.095c0,7.815,7.09,11.232,23.488,17.194
		c22.829,8.079,33.697,19.618,33.697,37.293C344.013,331.077,327.148,348.469,292.062,347.472z"/>
	<path d="M73.707,246.365c-15.768,0.242-24.861,16.421-24.861,37.842c0,21.59,9.384,36.988,25.017,37.283
		c16.011,0.306,25.305-15.926,25.305-37.866C99.167,263.374,90.047,246.109,73.707,246.365z"/>
</g>
<g>
</g>
<g>
</g>
<g>
</g>
<g>
</g>
<g>
</g>
<g>
</g>
<g>
</g>
<g>
</g>
<g>
</g>
<g>
</g>
<g>
</g>
<g>
</g>
<g>
</g>
<g>
</g>
<g>
</g>
</svg>
