<?xml version="1.0" encoding="iso-8859-1"?>
<!-- Generator: Adobe Illustrator 16.0.0, SVG Export Plug-In . SVG Version: 6.00 Build 0)  -->
<!DOCTYPE svg PUBLIC "-//W3C//DTD SVG 1.1//EN" "http://www.w3.org/Graphics/SVG/1.1/DTD/svg11.dtd">
<svg version="1.1" id="Capa_1" xmlns="http://www.w3.org/2000/svg" xmlns:xlink="http://www.w3.org/1999/xlink" x="0px" y="0px"
	 width="588.601px" height="588.6px" viewBox="0 0 588.601 588.6" style="enable-background:new 0 0 588.601 588.6;"
	 xml:space="preserve">
<g>
	<path d="M172.597,252.363c-5.719,0.108-9.408,0.686-11.588,1.237v75.958c2.181,0.549,5.706,0.612,8.899,0.665
		c23.501,0.585,39.074-12.509,39.074-40.833C209.161,264.766,194.94,251.997,172.597,252.363z"/>
	<path d="M359.031,537.78c0.781,0.048,1.551,0.111,2.342,0.111h178.2c20.846,0,37.8-16.96,37.8-37.801V86.994
		c0-20.838-16.954-37.8-37.8-37.8h-178.2c-0.786,0-1.561,0.077-2.342,0.113V0L11.228,46.417v494.564L359.031,588.6V537.78z
		 M361.373,70.798h178.2c8.933,0,16.2,7.27,16.2,16.2v413.103c0,8.934-7.268,16.2-16.2,16.2h-178.2
		c-0.796,0-1.571-0.127-2.342-0.232V408.876h173.902c5.965,0,10.8-4.836,10.8-10.801c0-5.964-4.835-10.8-10.8-10.8H359.031v-49.56
		h173.902c5.965,0,10.8-4.836,10.8-10.8c0-5.965-4.835-10.801-10.8-10.801H359.031v-49.443h76.855c5.964,0,10.8-4.833,10.8-10.8
		c0-5.962-4.836-10.8-10.8-10.8h-76.855v-49.497h76.855c5.964,0,10.8-4.833,10.8-10.8c0-5.961-4.836-10.8-10.8-10.8h-76.855V71.042
		C359.802,70.922,360.571,70.798,361.373,70.798z M67.4,348.743c-30.291-0.812-47.619-25.649-47.619-56.646
		c0-32.611,19.122-57.489,49.309-58.293c32.324-0.852,50.38,24.877,50.38,56.323C119.47,327.491,98.091,349.566,67.4,348.743z
		 M217.735,336.699c-12.414,10.114-31.029,14.538-53.391,13.953c-13.165-0.348-22.41-1.45-28.635-2.457V235.457
		c9.184-1.772,21.281-2.932,34.193-3.267c21.777-0.562,36.115,3.098,47.482,11.486c12.35,8.973,20.194,23.625,20.194,44.803
		C237.584,311.455,229.21,327.174,217.735,336.699z M302.816,353.036l-28.537-0.738v-98.764l-32.909,0.53v-22.837l96.715-2.468
		v23.772l-35.27,0.559V353.036z"/>
	<path d="M68.473,253.811c-15.725,0.264-24.775,16.421-24.775,37.811c0,21.558,9.353,36.903,24.933,37.178
		c15.944,0.273,25.197-15.937,25.197-37.821C93.833,270.757,84.75,253.523,68.473,253.811z"/>
</g>
<g>
</g>
<g>
</g>
<g>
</g>
<g>
</g>
<g>
</g>
<g>
</g>
<g>
</g>
<g>
</g>
<g>
</g>
<g>
</g>
<g>
</g>
<g>
</g>
<g>
</g>
<g>
</g>
<g>
</g>
</svg>
