<svg viewBox="-31 0 512 512" xmlns="http://www.w3.org/2000/svg"><path d="m225 512c124.066406 0 225-101.382812 225-226 0-60.824219-24.078125-119.578125-70.359375-163.429688l25.359375-25.355468 19.394531 19.390625 21.210938-21.210938-60-60-21.210938 21.210938 19.390625 19.394531-27.34375 27.34375c-25.878906-18.707031-55.242187-31.5625-86.441406-37.863281v-35.480469h30v-30h-150v30h30v35.480469c-101.71875 20.542969-180 110.644531-180 220.519531 0 124.617188 100.933594 226 225 226zm-15-482h30v31.503906c-4.972656-.324218-9.972656-.503906-15-.503906s-10.027344.179688-15 .503906zm15 61c107.523438 0 195 87.476562 195 195 0 108.074219-87.476562 196-195 196s-195-87.925781-195-196c0-107.523438 87.476562-195 195-195zm0 0"/><path d="m225 451c90.980469 0 165-74.019531 165-165s-74.019531-165-165-165-165 74.019531-165 165 74.019531 165 165 165zm-134.160156-180c2.886718-26 13.183594-49.792969 28.730468-69.214844l20.578126 20.574219 21.210937-21.210937-20.574219-20.578126c19.421875-15.546874 43.214844-25.84375 69.214844-28.730468v29.160156h30v-29.160156c26 2.886718 49.792969 13.183594 69.214844 28.730468l-20.574219 20.578126 21.210937 21.210937 20.578126-20.574219c15.546874 19.421875 25.84375 43.214844 28.730468 69.214844h-29.160156v29.988281h29.160156c-2.886718 26-13.183594 49.804688-28.730468 69.226563l-20.578126-20.574219-21.210937 21.210937 20.574219 20.578126c-19.421875 15.546874-43.214844 25.84375-69.214844 28.730468v-29.160156h-30v29.160156c-26-2.886718-49.792969-13.183594-69.214844-28.730468l20.574219-20.578126-21.210937-21.210937-20.578126 20.574219c-15.546874-19.421875-25.84375-43.214844-28.730468-69.214844h29.160156v-30zm0 0"/><path d="m285 271h-45v-45h-30v75h75zm0 0"/></svg>