<?xml version="1.0" encoding="iso-8859-1"?>
<!-- Generator: Adobe Illustrator 19.0.0, SVG Export Plug-In . SVG Version: 6.00 Build 0)  -->
<svg version="1.1" id="Capa_1" xmlns="http://www.w3.org/2000/svg" xmlns:xlink="http://www.w3.org/1999/xlink" x="0px" y="0px"
	 viewBox="0 0 512 512" style="enable-background:new 0 0 512 512;" xml:space="preserve">
<g>
	<g>
		<circle cx="362.667" cy="384" r="21.333"/>
	</g>
</g>
<g>
	<g>
		<circle cx="149.333" cy="384" r="21.333"/>
	</g>
</g>
<g>
	<g>
		<path d="M445.333,412.864l-16.32-277.333c-1.664-28.139-25.045-50.197-53.248-50.197H136.235
			c-28.203,0-51.584,22.059-53.248,50.197l-16.32,277.333c-0.875,14.827,4.267,28.928,14.443,39.723
			c10.197,10.795,23.957,16.747,38.805,16.747h272.171c14.848,0,28.608-5.952,38.805-16.747
			C441.067,441.792,446.208,427.691,445.333,412.864z M124.459,158.229C125.397,141.291,139.435,128,156.416,128h199.168
			c16.981,0,31.019,13.291,31.957,30.229l7.104,129.195C394.667,315.84,307.797,320,256,320s-138.667-4.16-138.667-32
			L124.459,158.229z M298.667,373.333c0,5.888-4.779,10.667-10.667,10.667h-64c-5.888,0-10.667-4.779-10.667-10.667
			c0-5.888,4.779-10.667,10.667-10.667h64C293.888,362.667,298.667,367.445,298.667,373.333z M149.333,426.667
			c-23.531,0-42.667-19.136-42.667-42.667c0-23.531,19.136-42.667,42.667-42.667C172.864,341.333,192,360.469,192,384
			C192,407.531,172.864,426.667,149.333,426.667z M298.667,426.667h-85.333c-5.888,0-10.667-4.779-10.667-10.667
			c0-5.888,4.779-10.667,10.667-10.667h85.333c5.888,0,10.667,4.779,10.667,10.667C309.333,421.888,304.555,426.667,298.667,426.667
			z M362.667,426.667C339.136,426.667,320,407.531,320,384c0-23.531,19.136-42.667,42.667-42.667s42.667,19.136,42.667,42.667
			C405.333,407.531,386.197,426.667,362.667,426.667z"/>
	</g>
</g>
<g>
	<g>
		<path d="M381.867,25.6C378.667,21.333,357.525,0,256,0S133.333,21.333,130.133,25.6c-3.541,4.715-2.837,11.712,1.877,15.253
			c2.005,1.493,4.331,2.24,6.592,2.24c3.072,0,6.059-1.387,8.107-4.096C146.88,38.827,165.376,21.333,256,21.333
			c89.536,0,108.672,17.067,108.8,17.067c3.52,4.715,10.219,5.653,14.933,2.133C384.448,36.992,385.408,30.315,381.867,25.6z"/>
	</g>
</g>
<g>
	<g>
		<path d="M292.203,11.52c-5.376-2.325-11.691,0.192-13.995,5.611L256,68.907l-22.187-51.755c-2.325-5.44-8.661-7.957-13.995-5.611
			c-5.419,2.325-7.936,8.597-5.611,13.995l32,74.667c1.664,3.925,5.525,6.464,9.792,6.464s8.128-2.539,9.813-6.485l32-74.667
			C300.139,20.117,297.621,13.845,292.203,11.52z"/>
	</g>
</g>
<g>
	<g>
		<path d="M160,448c-5.888,0-10.667,4.779-10.667,10.667H128c0-5.888-4.779-10.667-10.667-10.667s-10.667,4.779-10.667,10.667V480
			c0,17.643,14.357,32,32,32c17.643,0,32-14.357,32-32v-21.333C170.667,452.779,165.888,448,160,448z"/>
	</g>
</g>
<g>
	<g>
		<path d="M394.667,448c-5.888,0-10.667,4.779-10.667,10.667h-21.333c0-5.888-4.779-10.667-10.667-10.667
			c-5.888,0-10.667,4.779-10.667,10.667V480c0,17.643,14.357,32,32,32c17.643,0,32-14.357,32-32v-21.333
			C405.333,452.779,400.555,448,394.667,448z"/>
	</g>
</g>
<g>
	<g>
		<path d="M426.667,149.333c-5.888,0-10.667,4.779-10.667,10.667s4.779,10.667,10.667,10.667v64
			c-5.888,0-10.667,4.779-10.667,10.667S420.779,256,426.667,256h10.667c17.643,0,32-14.357,32-32v-32
			C469.333,168.469,450.197,149.333,426.667,149.333z"/>
	</g>
</g>
<g>
	<g>
		<path d="M85.333,234.667v-64C91.221,170.667,96,165.888,96,160s-4.779-10.667-10.667-10.667
			c-23.531,0-42.667,19.136-42.667,42.667v32c0,17.643,14.357,32,32,32h10.667C91.221,256,96,251.221,96,245.333
			S91.221,234.667,85.333,234.667z"/>
	</g>
</g>
<g>
</g>
<g>
</g>
<g>
</g>
<g>
</g>
<g>
</g>
<g>
</g>
<g>
</g>
<g>
</g>
<g>
</g>
<g>
</g>
<g>
</g>
<g>
</g>
<g>
</g>
<g>
</g>
<g>
</g>
</svg>
