<svg xmlns="http://www.w3.org/2000/svg" xmlns:xlink="http://www.w3.org/1999/xlink" viewBox="0 0 1133 804" xmlns:ev="http://www.w3.org/2001/xml-events" width="1133" height="804"><style type="text/css"><![CDATA[
.st10 {fill:#00b050;font-family:Arial;font-size:16pt;font-weight:bold}
.st9 {fill:#00b050;font-weight:bold}
.st5 {fill:#1f6391;font-family:Arial;font-size:10pt}
.st1 {fill:#2362a2;font-family:Arial;font-size:10pt;font-weight:bold}
.st3 {fill:#2362a2;font-size:14pt;font-weight:bold}
.st4 {fill:#2362a2}
.st12 {fill:#ff0000;font-family:Arial;font-size:16pt;font-weight:bold}
.st11 {fill:#ff0000;font-weight:bold}
.st2 {fill:#ffffff;font-family:Arial;font-size:10pt}
.st6 {font-size:13pt;font-weight:bold}
.st13 {font-size:14pt;font-weight:bold}
.st8 {font-size:16pt;font-weight:bold}
.st7 {font-weight:bold}
]]></style><defs><linearGradient x2="100%" id="lg1" x1="0%" y1="0%" y2="0%"><stop offset="0.34" stop-color="#1e5791"/><stop offset="0.48" stop-color="#215d9a"/></linearGradient><linearGradient x2="100%" id="lg2" x1="0%" y1="0%" y2="0%"><stop offset="0" stop-color="#f0f0f0"/><stop offset="0.18" stop-color="#ffffff"/><stop offset="0.38" stop-color="#ffffff"/><stop offset="0.62" stop-color="#ffffff"/><stop offset="0.86" stop-color="#ffffff"/><stop offset="1" stop-color="#ffffff"/></linearGradient><linearGradient x2="100%" id="lg3" x1="0%" y1="0%" y2="0%"><stop offset="0" stop-color="#ffffff"/><stop offset="0" stop-color="#ffffff"/></linearGradient><linearGradient x2="0%" id="lg4" x1="0%" y1="0%" y2="100%"><stop stop-opacity="0.2" offset="0" stop-color="#ffffff"/><stop stop-opacity="0.06" offset="0.4" stop-color="#ffffff"/><stop stop-opacity="0" offset="1" stop-color="#ffffff"/></linearGradient><linearGradient x2="0%" id="lg5" x1="0%" y1="0%" y2="100%"><stop offset="1" stop-color="#2362a2"/><stop offset="1" stop-color="#e5e5e5"/><stop offset="1" stop-color="#d4d4d4"/></linearGradient><linearGradient x2="0%" id="lg6" x1="0%" y1="0%" y2="100%"><stop offset="0" stop-color="#ffffff"/><stop offset="0.98" stop-color="#f5f5f5"/><stop offset="1" stop-color="#e6e6e6"/></linearGradient><linearGradient x2="0%" id="lg7" x1="0%" y1="0%" y2="100%"><stop offset="1" stop-color="#2362a2"/><stop offset="1" stop-color="#303030"/></linearGradient><linearGradient x2="0%" id="lg8" x1="0%" y1="0%" y2="100%"><stop offset="0.99" stop-color="#ffffff"/><stop offset="1" stop-color="#0052a4"/></linearGradient><linearGradient x2="0" id="lg9" x1="1" gradientUnits="userSpaceOnUse" y1="-0" y2="1"><stop offset="0.99" stop-color="#ffffff"/><stop offset="1" stop-color="#4b4b4b"/><stop offset="1" stop-color="#303030"/></linearGradient><linearGradient x2="-4" id="lg10" x1="58" gradientUnits="userSpaceOnUse" y1="22" y2="33"><stop stop-opacity="0.14" offset="0" stop-color="#ffffff"/><stop stop-opacity="0" offset="1" stop-color="#ffffff"/></linearGradient><linearGradient x2="58" id="lg11" x1="48" gradientUnits="userSpaceOnUse" y1="-8" y2="50"><stop offset="0.22" stop-color="#414141"/><stop offset="0.54" stop-color="#616161"/><stop offset="0.78" stop-color="#212121"/></linearGradient><linearGradient x2="1" id="lg12" x1="1" gradientUnits="userSpaceOnUse" y1="0" y2="1"><stop stop-opacity="0.74" offset="0" stop-color="#ffffff"/><stop stop-opacity="0" offset="0.53" stop-color="#00692d"/></linearGradient><linearGradient x2="1" id="lg13" x1="1" gradientUnits="userSpaceOnUse" y1="1" y2="0"><stop stop-opacity="0.52" offset="0" stop-color="#ffffff"/><stop stop-opacity="0" offset="0.53" stop-color="#00692d"/></linearGradient><linearGradient x2="-3" id="lg14" x1="15" gradientUnits="userSpaceOnUse" y1="19" y2="16"><stop stop-opacity="0.3" offset="0" stop-color="#ffffff"/><stop stop-opacity="0" offset="0.71" stop-color="#ffffff"/></linearGradient><linearGradient x2="0%" id="lg15" x1="0%" y1="0%" y2="100%"><stop offset="0.99" stop-color="#2362a2"/><stop offset="1" stop-color="#ebebeb"/></linearGradient><linearGradient x2="32" id="lg16" x1="55" gradientUnits="userSpaceOnUse" y1="-9" y2="77"><stop offset="0.98" stop-color="#ffffff"/><stop offset="1" stop-color="#003e6a"/></linearGradient><linearGradient x2="0%" id="lg17" x1="0%" y1="0%" y2="100%"><stop offset="1" stop-color="#2362a2"/><stop offset="1" stop-color="#c9c9c9"/></linearGradient><linearGradient x2="41" id="lg18" x1="20" gradientUnits="userSpaceOnUse" y1="-11" y2="29"><stop offset="0.01" stop-color="#212121"/><stop offset="0.01" stop-color="#ffffff"/></linearGradient><linearGradient x2="68" id="lg19" x1="29" gradientUnits="userSpaceOnUse" y1="-15" y2="57"><stop offset="0.95" stop-color="#ffffff"/><stop offset="0.95" stop-color="#212121"/></linearGradient></defs><g id="page1" transform="translate(5,5)"><rect fill="#ffffff" y="0" width="1123" height="794" stroke="#808080" x="0"/><g transform="translate(68.93,74)"><g transform="translate(443.42,445)"><path id="shape1" fill="#2362a2" d="M52.7,.6C52.7,.6,56.1,-0.9,58.9,.8L78.6,12.5C78.6,12.5,81.5,14.6,77.3,17.1L29.5,47.4C29.5,47.4,25.2,50.2,21.4,48.1L1.3,34.1C1.3,34.1,-1.8,32.1,1.5,29.6L52.7,.6z" transform="translate(0.12,0)"/><path id="shape2" fill="#ffffff" d="M0,23.8L41.7,0L64.8,13.7L23.2,39.8L0,23.8z" transform="translate(8.42,3.79)"/><path id="shape3" fill="url(#lg1)" d="M79.8,0C79.8,0,80.3,1.7,75.8,3.9L29.1,33.4C29.1,33.4,25.7,35.3,22.3,34.3L1.4,19.8C1.4,19.8,.1,18.9,.1,17.8L0,20.9C0,20.9,.1,22.5,1.7,23.6L20.7,36.8C20.7,36.8,23.9,38.9,28.2,37.2L77.9,5.5C77.9,5.5,79.5,4.7,79.7,3.2L79.8,0z" transform="translate(0,14.16)"/><path id="shape4" fill="#ffffff" d="M1,.1L4.4,2.4C4.4,2.4,5.5,3.3,4.4,3.9C4.4,3.9,4.1,4,3.4,3.6L.3,1.4C.3,1.4,-0.5,.7,.4,.1C.4,.1,.7,-0.1,1,.1z" transform="translate(9.47,41.16)"/><path id="shape5" fill="#ffffff" d="M.1,1.5C-0.1,.8,.1,.2,.6,0C1.2,-0.1,1.7,.3,1.9,1C2.1,1.7,1.9,2.4,1.3,2.6C.8,2.7,.2,2.2,.1,1.5z" transform="translate(1.17,35.05)"/><path id="shape6" fill="url(#lg2)" d="M30.2,34.6L77.4,4.6C77.4,4.6,81.6,2.4,78.6,0C78.6,0,80.6,2.2,77,4.1L29.9,33.9C29.9,33.9,25.2,36.7,21.7,34.8L1.8,20.9C1.8,20.9,-0.8,19.3,1.3,17.3C1.3,17.3,-1.6,19.2,1.3,21.6L21.4,35.6C21.4,35.6,24.6,37.8,30.2,34.6z" transform="translate(0.07,12.51)"/><path id="shape7" fill="#ffffff" d="M.6,0L5,2.7C5,2.7,5.4,3.3,4.5,3.2L.1,.5C.1,.5,-0.3,-0.2,.6,0z" transform="translate(61.94,7.52)"/><path id="shape8" fill="#ffffff" d="M0,.4C0,.2,.3,-0,.6,-0C.9,-0,1.2,.2,1.2,.4C1.2,.6,.9,.8,.6,.8C.3,.8,0,.6,0,.4z" transform="translate(59.88,6.03)"/><path id="shape9" fill="#ffffff" d="M-0,.5C-0,.2,.4,-0,.9,-0C1.4,-0,1.8,.2,1.8,.5C1.8,.8,1.4,1,.9,1C.4,1,-0,.8,-0,.5z" transform="translate(65.75,7.07)"/><path id="shape10" fill="url(#lg3)" d="M0,2.6C0,1.2,1.4,0,3.2,0C5,0,6.4,1.2,6.4,2.6C6.4,4,5,5.2,3.2,5.2C1.4,5.2,0,4,0,2.6z" transform="translate(12.96,35.49)"/><path id="shape11" fill="#d0d0d0" d="M1.7,0L3,1C3,1,3.3,1.3,2.9,1.6C2.4,2,1.9,2.3,1.9,2.3C1.9,2.3,1.5,2.5,1.1,2.2C.7,1.9,.1,1.5,.1,1.5C.1,1.5,-0.3,1.2,.3,.7C1,.2,1.4,-0.1,1.7,0z" transform="translate(14.78,36.6)"/><path id="shape12" fill="#2362a2" d="M1.2,0C2.2,.7,2.4,.9,2.1,1.1C1.7,1.4,1.4,1.7,1.4,1.7C1.4,1.7,1.1,1.8,.8,1.6C.5,1.4,.1,1.1,.1,1.1C.1,1.1,-0.2,.9,.2,.5C.8,.2,1,-0.1,1.2,0z" stroke="#2362a2" transform="translate(15.2,36.93)"/><path id="shape13" fill="#ffffff" d="M.2,0L5,3.4L4.8,4.7L0,1.2L.2,0z" transform="translate(15.32,44.99)"/><path id="shape14" fill="#ffffff" d="M.2,0L5,3.4L4.8,4.7L0,1.2L.2,0z" transform="translate(3.65,36.71)"/><path id="shape15" fill="#ffffff" d="M.9,.1L4.2,2.4C4.2,2.4,5.1,3.1,4.1,3.6C4.1,3.6,3.8,3.7,3.2,3.3L.3,1.2C.3,1.2,-0.4,.5,.3,0C.3,0,.6,-0.1,.9,.1z" transform="translate(9.64,41.34)"/><path id="shape16" fill="#ffffff" d="M.1,1.2C-0,.7,-0,.1,.2,0C.5,-0.1,1,.3,1.1,.9C1.2,1.4,.9,2,.7,2.1C.6,2.1,.2,1.8,.1,1.2z" transform="matrix(0.98,-0.17,0.17,0.98,1.8,35.3)"/><path id="shape17" fill="#ffffff" d="M.2,0C.2,0,.4,-0.1,.8,.1C1.2,.3,4.1,2.4,4.1,2.4C4.1,2.4,4.6,2.8,4.5,3.2L0,.3C0,.3,.1,.1,.2,0z" transform="translate(9.72,41.35)"/><path id="shape18" fill="url(#lg4)" d="M21.7,.6C21.7,.6,25.2,-0.9,28,.8L47.6,12.5C47.6,12.5,49.5,15.2,45.7,17L0,45.8L21.7,.6z" transform="translate(31.03,0)"/><path id="shape19" fill="#c8c8c8" d="M0,.4L.7,2.8L0,.4z" transform="translate(74.41,18.66)"/></g><g transform="translate(315.59,422.02)"><path id="shape20" fill="url(#lg5)" d="M17,0C17,0,13.9,-0.2,12.9,3.4C12.4,5.3,19.2,16.2,16.6,25.3C13.3,36.8,.5,46.8,.5,46.8C.5,46.8,-1.1,50.4,1.5,51.8C3.2,52.7,68.5,66.8,68.5,66.8C68.5,66.8,71.5,68,72.5,64.2C73.5,60.5,86,10.1,86.8,8.3C87.2,6.5,84.9,3.4,81.2,3.4C77.5,3.4,17,0,17,0z"/><path id="shape21" fill="url(#lg6)" d="M17,0C17,0,13.8,-0.4,12.7,3.3C11.5,7.7,.2,47.7,.2,47.7C.2,47.7,-0.8,50.3,1.6,50.8C3.5,51.3,66.1,64.7,66.1,64.7C66.1,64.7,69.3,66,70.3,62.1C71.3,58.2,84.2,6.8,84.2,6.8C84.2,6.8,84.8,3.9,81.3,3.6C77.5,3.2,17,0,17,0z" transform="translate(0.02,0.51)"/><path id="shape22" fill="url(#lg7)" d="M16.7,0C16.7,0,13.5,-0.4,12.5,3.1C11.3,7.4,.2,46.6,.2,46.6C.2,46.6,-0.8,49.1,1.5,49.6C3.4,50.1,65.1,63.1,65.1,63.1C65.1,63.1,68.2,64.3,69.1,60.5C70.1,56.8,82.8,6.6,82.8,6.6C82.8,6.6,83.8,3.9,80,3.4C76.4,3,16.7,0,16.7,0z" transform="translate(0.02,1.18)"/><path id="shape23" fill="url(#lg8)" d="M10.1,.8C9.7,1.7,.1,36.6,.1,36.6C.1,36.6,-0.3,38,.6,38.3C1.6,38.6,57.4,48.9,57.4,48.9C57.4,48.9,58.6,49.2,59,47.4C59.4,45.6,69.5,5.6,69.5,5.6C69.5,5.6,70,4,68.5,3.9C67.3,3.8,11.8,0,11.8,0C11.8,0,10.4,-0.2,10.1,.8z" transform="translate(6.14,6.31)"/><path id="shape24" fill="#2362a2" d="M3.1,.7C3.1,.7,1.9,-0.7,1.4,.4C.7,1.6,-0.2,6.1,0,6.6C.2,7.1,1.5,6.7,1.5,6.7L3.1,.7z" transform="translate(73.06,49.25)"/><path id="shape25" fill="#ffffff" d="M2.7,.8C2.7,.8,1.9,-0.6,1.4,.3C.9,1.1,-0.1,5.3,0,5.9C.1,6.5,1.4,5.9,1.4,5.9L2.7,.8z" transform="translate(73.36,49.66)"/><path id="shape26" fill="#2362a2" d="M0,5.4L1.5,0L3,.6L1.7,5.8L0,5.4z" transform="translate(75.5,39.96)"/><path id="shape27" fill="#ffffff" d="M2.5,.5L1.3,0L0,4.6L1.3,5L2.5,.5z" transform="translate(75.89,40.4)"/><path id="shape28" fill="url(#lg9)" d="M0,.2C.1,0,.4,-0.1,.6,0C1.5,.6,1.6,.8,1.5,1C1.4,1.2,1.1,1.3,.9,1.1C-0,.6,-0.1,.4,0,.2z" transform="translate(84.23,10.02)"/><path id="shape29" fill="url(#lg9)" d="M0,.2C.1,0,.4,-0.1,.6,0C1.5,.6,1.6,.8,1.5,1C1.4,1.2,1.1,1.3,.9,1.1C-0,.6,-0.1,.4,0,.2z" transform="translate(83.83,11.2)"/><path id="shape30" fill="url(#lg9)" d="M0,.2C.1,0,.4,-0.1,.6,0C1.5,.6,1.6,.8,1.5,1C1.4,1.2,1.1,1.3,.9,1.1C-0,.6,-0.1,.4,0,.2z" transform="translate(83.63,12.49)"/><path id="shape31" fill="url(#lg9)" d="M0,.2C.1,0,.4,-0.1,.6,0C1.5,.6,1.6,.8,1.5,1C1.4,1.2,1.1,1.3,.9,1.1C-0,.6,-0.1,.4,0,.2z" transform="translate(83.24,13.85)"/><path id="shape32" fill="url(#lg9)" d="M0,.2C.1,0,.4,-0.1,.6,0C1.5,.6,1.6,.8,1.5,1C1.4,1.2,1.1,1.3,.9,1.1C-0,.6,-0.1,.4,0,.2z" transform="translate(82.88,15.02)"/><path id="shape33" fill="url(#lg9)" d="M0,.2C.1,0,.4,-0.1,.6,0C1.5,.6,1.6,.8,1.5,1C1.4,1.2,1.1,1.3,.9,1.1C-0,.6,-0.1,.4,0,.2z" transform="translate(82.55,16.3)"/><path id="shape34" fill="url(#lg9)" d="M0,.2C.1,0,.4,-0.1,.6,0C1.5,.6,1.6,.8,1.5,1C1.4,1.2,1.1,1.3,.9,1.1C-0,.6,-0.1,.4,0,.2z" transform="translate(82.32,17.59)"/><path id="shape35" fill="url(#lg9)" d="M0,.2C.1,0,.4,-0.1,.6,0C1.5,.6,1.6,.8,1.5,1C1.4,1.2,1.1,1.3,.9,1.1C-0,.6,-0.1,.4,0,.2z" transform="translate(81.96,18.79)"/><path id="shape36" fill="url(#lg9)" d="M0,.2C.1,0,.4,-0.1,.6,0C1.5,.6,1.6,.8,1.5,1C1.4,1.2,1.1,1.3,.9,1.1C-0,.6,-0.1,.4,0,.2z" transform="translate(81.72,19.95)"/><path id="shape37" fill="url(#lg9)" d="M0,.2C.1,0,.4,-0.1,.6,0C1.5,.6,1.6,.8,1.5,1C1.4,1.2,1.1,1.3,.9,1.1C-0,.6,-0.1,.4,0,.2z" transform="translate(81.37,21.15)"/><path id="shape38" fill="url(#lg9)" d="M0,.2C.1,0,.4,-0.1,.6,0C1.5,.6,1.6,.8,1.5,1C1.4,1.2,1.1,1.3,.9,1.1C-0,.6,-0.1,.4,0,.2z" transform="translate(80.97,22.47)"/><path id="shape39" fill="url(#lg10)" d="M16.7,0C16.7,0,13.5,-0.3,12.5,3.2C11.3,7.5,.2,46.7,.2,46.7C.2,46.7,-0.8,49.1,1.5,49.7C2.3,49.9,27.9,55.3,27.9,55.3L54.1,2L16.7,0z" transform="translate(0.13,1.14)"/></g><g transform="translate(573.07,182.91)"><path id="shape40" fill="#2362a2" d="M0,.1L0,8.3C0,8.3,-0.1,10.1,1.1,11.5C2.4,13,21.5,31.6,21.5,31.6C21.5,31.6,21,20.2,18.4,16C15.8,11.8,.6,2.4,.8,1C1.1,-0.4,.2,.1,0,.1z" stroke="#2362a2" transform="matrix(-1,0,0,1,112.9,59.5)"/><path id="shape41" fill="#2362a2" d="M0,2.5C-0.2,-0.9,3.8,-0.8,3.8,2.6C3.8,6.6,7.3,56.5,7.3,56.5L1,57.1C1,57.1,.1,4.1,0,2.5z" stroke="#2362a2" transform="matrix(-1,0,0,1,110,2.6)"/><path id="shape42" fill="#2362a2" d="M1.1,2.5C1,-0.9,4.9,-0.8,4.9,2.6C4.9,6.6,5.8,57.1,5.8,57.1L0,57.6C0,57.6,1.2,4.1,1.1,2.5z" stroke="#2362a2" transform="translate(40.62,0)"/><path id="shape43" fill="#2362a2" d="M7.2,8.6C7.2,8.6,2.7,8.7,.8,9.2C-0.8,9.8,.3,10.8,1.5,13.8C2,14.1,17.7,28.8,17.7,28.8C17.7,28.8,19.6,29.8,20.6,39.7C20.6,39.7,21.7,43.5,25.9,43.5C29.8,43.4,110.7,27.6,110.7,27.6C110.7,27.6,113.1,26.5,112.9,21C112.5,15.4,108.8,13.8,108.8,13.8L82.6,1.8L78.4,0L9.3,9.3L7.2,8.6z" stroke="#2362a2" transform="matrix(-1,0,0,1,112.9,49.6)"/><path id="shape44" fill="#ffffff" d="M7,8.3C7,8.3,2.9,8.5,.9,8.7C-0.7,9,0,10.1,1.4,13.1C2,13.4,17.8,28,17.8,28C17.8,28,20,28.7,20.8,38.6C20.8,38.6,21.7,42.4,25.9,42.3C29.7,42.3,109,26.9,109,26.9C109,26.9,112.1,26.4,111.9,20.8C111.7,15.2,108.4,13.5,108.4,13.5L81.5,1.7L77.4,0L9.6,9.1L7,8.3z" stroke="#2362a2" transform="matrix(-1,0,0,1,112.4,50.1)"/><path fill-opacity="0.25" id="shape45" fill="#000000" d="M2.4,0L.6,.2C.6,.2,-0.7,1.7,.5,2.8C1.7,4,15.6,15.8,15.6,15.8C15.6,15.8,17,17.1,17.9,21.5C18.9,26.4,19.4,29.6,19.4,29.6C19.4,29.6,19.6,32.8,23.2,32.9C26.8,33.1,31.9,31.5,31.9,31.5L23.1,30C23.1,30,18.9,19.2,18.9,18.9C18.9,18.7,15.9,9.8,15.6,9.3C15.3,8.8,4.5,2.7,4.4,2.7C4.3,2.7,2.2,.7,2.4,0z" transform="matrix(-1,0,0,1,108.8,58.3)"/><path id="shape46" fill="url(#lg11)" d="M1.7,9.2L71.6,.3C71.6,.3,73.9,-0.1,74.8,0C75.7,.1,76.4,.5,78.6,1.5C85.5,4.4,100.2,10.8,102.8,12.8C105.6,15,108,26.4,102.6,27.7C98.6,28.7,26.1,41.9,26.1,41.9C26.1,41.9,20.8,43.2,19.5,38.8C19.5,38.8,17.9,27,15.9,25.1C14,23.2,.4,11.9,.4,11.9C.4,11.9,-1.1,9.6,1.7,9.2z" stroke="#2362a2" transform="matrix(-1,0,0,1,108.3,49)"/><path fill-opacity="0.42" id="shape47" fill="#ffffff" d="M1,12.6L80.5,.1C81,-0,81.6,.2,81.6,.5C81.6,.5,81.8,1,81.1,1.1L1.2,13.8C.6,13.8,.1,13.8,0,13.3C0,12.8,.5,12.7,1,12.6z" transform="matrix(-1,0,0,1,88.1,62.8)"/><path id="shape48" fill="#2362a2" d="M1.7,9.2L71.6,.3C71.6,.3,73.9,-0.1,74.8,0C75.7,.1,76.4,.5,78.6,1.5C85.5,4.4,100.2,10.8,102.8,12.8C105.6,15,108,26.4,102.6,27.7C98.6,28.7,26.1,41.9,26.1,41.9C26.1,41.9,20.8,43.2,19.5,38.8C19.5,38.8,17.9,27,15.9,25.1C14,23.2,.4,11.9,.4,11.9C.4,11.9,-1.1,9.6,1.7,9.2z" stroke="#2362a2" transform="matrix(-1,0,0,1,108.3,49.1)"/><path id="shape49" fill="#ffffff" d="M1,12.6L80.5,.1C81,-0,81.6,.2,81.6,.5C81.6,.5,81.8,1,81.1,1.1L1.2,13.8C.6,13.8,.1,13.8,0,13.3C0,12.8,.5,12.7,1,12.6z" stroke="#ffffff" transform="matrix(-1,0,0,1,88.2,62.4)"/><path id="shape50" fill="#2362a2" d="M0,.3L.3,1.4L2.3,1.1L2.1,0L0,.3z" transform="matrix(-1,0,0,1,57.1,69.9)"/><path id="shape51" fill="url(#lg12)" d="M0,.3L2.2,.9L0,.3z" transform="matrix(-1,0,0,1,57.1,70)"/><path id="shape52" fill="url(#lg13)" d="M0,.3L2.2,.9L0,.3z" transform="matrix(-1,0,0,1,57.1,70)"/><path id="shape53" fill="#008039" d="M0,.3L.3,1.4L2.3,1.1L2.1,0L0,.3z" transform="matrix(-1,0,0,1,50.7,68.9)"/><path id="shape54" fill="url(#lg12)" d="M0,.3L2.2,.9L0,.3z" transform="matrix(-1,0,0,1,50.6,69)"/><path id="shape55" fill="#2362a2" d="M0,.3L2.2,.9L0,.3z" transform="matrix(-1,0,0,1,50.6,69)"/><path id="shape56" fill="#008039" d="M0,.3L.3,1.4L2.3,1.1L2.1,0L0,.3z" transform="matrix(-1,0,0,1,44.4,67.9)"/><path id="shape57" fill="url(#lg12)" d="M0,.3L2.2,.9L0,.3z" transform="matrix(-1,0,0,1,44.3,68)"/><path id="shape58" fill="#2362a2" d="M0,.3L2.2,.9L0,.3z" transform="matrix(-1,0,0,1,44.3,68)"/><path id="shape59" fill="#008039" d="M0,.3L.3,1.4L2.3,1.1L2.1,0L0,.3z" transform="matrix(-1,0,0,1,38.2,66.9)"/><path id="shape60" fill="url(#lg12)" d="M0,.3L2.2,.9L0,.3z" transform="matrix(-1,0,0,1,38.1,67)"/><path id="shape61" fill="#2362a2" d="M0,.3L2.2,.9L0,.3z" transform="matrix(-1,0,0,1,38.1,67)"/></g><g transform="translate(305.59,243)"><g transform="translate(15.12,61.53)"><path id="shape62" fill="#2362a2" d="M-0.1,6.8C1.5,.6,11.9,-1.5,22.8,1.3C33.6,4.2,41,11.5,39.4,17.7C37.8,23.9,27.7,26.6,16.9,23.7C6.1,20.8,-0.7,13.4,-0.1,6.8z" transform="translate(0.1,1.47)"/><path id="shape63" fill="#2362a2" d="M.2,7.1C1.8,.9,11.9,-1.7,22.7,1.2C33.5,4,41,11.4,39.4,17.5C37.7,23.7,27.7,26.4,16.9,23.5C6,20.6,-1.4,13.3,.2,7.1z" transform="translate(0.03,-0.01)"/><path id="shape64" fill="#2362a2" d="M.2,7.1C1.8,.9,11.9,-1.7,22.7,1.2C33.5,4,41,11.4,39.4,17.5C37.7,23.7,27.7,26.4,16.9,23.5C6,20.6,-1.4,13.3,.2,7.1z" transform="translate(0.03,-0.01)"/><path id="shape65" fill="#2362a2" d="M.2,7.1C1.8,.9,11.9,-1.7,22.7,1.2C33.5,4,41,11.4,39.4,17.5C37.7,23.7,27.7,26.4,16.9,23.5C6,20.6,-1.4,13.3,.2,7.1z" transform="translate(0.03,-0.01)"/><path id="shape66" fill="#2362a2" d="M-0.5,2.1C5.6,6.7,13.7,8.8,22.5,7.8C32,6.7,33.3,.5,33.3,.5C33.3,.5,33.4,7.4,20.6,8.5C13,9.2,4,6.3,-0.5,2.1z" transform="translate(6.61,16.88)"/><path id="shape67" fill="#2362a2" d="M-0.3,.8C3.5,3.1,-2.3,9.8,6.8,5.8C15.8,1.8,5.2,1.3,5.2,1.3L-0.3,.8z" transform="translate(17.19,5.51)"/></g><path id="shape68" fill="#2362a2" d="M0,2.1L2,49.2C2,49.2,1.7,51.5,3.6,52.6C5.8,53.8,75.4,88.6,75.4,88.6C75.4,88.6,78.9,88.7,79.1,86.1C79.1,85.3,79.1,31.5,79.1,31.5C79.1,31.5,78.7,29.7,77.4,28.7C75.8,27.5,10.5,2.9,4.1,.2C2.4,-0.5,.4,.7,0,2.1z" transform="translate(0.07,0.02)"/><path id="shape69" fill="#2362a2" d="M.1,.9L0,50.6C0,50.6,-0.3,53,1.7,54.1C3.8,55.3,75.5,87.5,75.5,87.5C75.5,87.5,77.2,87.5,77.2,85.8C77.2,85,77.2,31.5,77.2,31.5C77.2,31.5,77.2,30,76,29.1C74.4,27.8,2.3,.1,2.3,.1C2.3,.1,.5,-0.5,.1,.9z" transform="translate(0.02,1.18)"/><path id="shape70" fill="#ffffff" d="M.2,.7L0,46C0,46,-0.2,48,1.5,48.9C3.3,49.9,70.4,79.9,70.4,79.9C70.4,79.9,71.9,79.9,71.9,78.5C71.9,77.8,72.1,29.4,72.1,29.4C72.1,29.4,72.1,28.1,71,27.3C69.7,26.3,2,.1,2,.1C2,.1,.5,-0.4,.2,.7z" transform="translate(2.55,4.62)"/><path id="shape71" fill="#2362a2" d="M0,22.5C-0.2,22.1,.9,21.5,.9,21.5C.9,21.5,50.4,-0.2,51,0C51.5,.3,69.3,3.4,71.5,4.2C72.2,4.8,20,38,20,38C20,38,.3,23,0,22.5z" transform="translate(64.04,6.52)"/><path id="shape72" fill="#2362a2" d="M0,103.3L53.7,74.2L53.7,.7L0,25L0,103.3z" transform="translate(82.35,10.68)"/><path id="shape73" fill="#2362a2" d="M0,24.3C2.3,25.2,3.5,25.6,3.5,26.8C3.5,28,3.2,30.7,3.2,30.7L56.9,2.2C56.9,2.2,57.2,1.1,56.7,.7C56.4,.4,53.2,0,53.2,0L0,24.3z" transform="translate(79.01,9.95)"/><path id="shape74" fill="#ffffff" d="M1.1,0L18.2,6.7C18.9,6.9,19.2,7.5,19.3,7.8L19.3,84.7C19.3,85.4,18.8,85.7,18.2,85.7L1.1,76.2C.3,75.7,.1,75.5,0,75.1L0,1.1C0,.4,.5,0,1.1,0z" stroke="#2362a2" transform="translate(63.83,28.3)"/><path id="shape75" fill="#2362a2" d="M.4,0L16.3,6.1C16.8,6.2,17.1,6.8,17.2,7.1L17.2,80C17.1,81.6,16.8,81.6,16.2,81.6L1,73.1C.2,72.7,.1,72.5,0,72.1L0,1C0,.4,-0.1,0,.4,0z" stroke="#2362a2" transform="translate(64.65,30.15)"/><path id="shape76" fill="#ffffff" d="M.1,0L0,37.7L8.9,42L8.9,3.7C8.9,3.7,8.8,3.2,8.1,2.9C7,2.4,.1,0,.1,0z" transform="translate(72.87,33.35)"/><path id="shape77" fill="#ffffff" d="M0,2.8L0,40.5L7.4,37.1L7.4,0L0,2.8z" transform="matrix(-1,0,0,1,72.4,30.4)"/><path id="shape78" fill="#ffffff" d="M-0,3.2C-0,1.4,1.2,-0,2.7,-0C4.2,-0,5.4,1.4,5.4,3.2C5.4,4.9,4.2,6.3,2.7,6.3C1.2,6.3,-0,4.9,-0,3.2z" transform="translate(70,80.43)"/><path id="shape79" fill="#000000" d="M-0,2.6C-0,1.2,1,-0,2.2,-0C3.5,-0,4.5,1.2,4.5,2.6C4.5,4.1,3.5,5.3,2.2,5.3C1,5.3,-0,4.1,-0,2.6z" transform="translate(70.44,80.95)"/><path id="shape80" fill="#ffffff" d="M-0,2.6C-0,1.2,1,-0,2.2,-0C3.5,-0,4.5,1.2,4.5,2.6C4.5,4.1,3.5,5.3,2.2,5.3C1,5.3,-0,4.1,-0,2.6z" transform="translate(70.44,80.95)"/><path id="shape81" fill="#ffffff" d="M-0,1.5C-0,.7,.6,-0,1.3,-0C2,-0,2.6,.7,2.6,1.5C2.6,2.4,2,3,1.3,3C.6,3,-0,2.4,-0,1.5z" transform="translate(71.41,88.78)"/><path id="shape82" fill="#000000" d="M-0,1.3C-0,.6,.5,-0,1.1,-0C1.7,-0,2.2,.6,2.2,1.3C2.2,2,1.7,2.5,1.1,2.5C.5,2.5,-0,2,-0,1.3z" transform="translate(71.62,89.03)"/><path id="shape83" fill="#ffffff" d="M-0,1.3C-0,.6,.5,-0,1.1,-0C1.7,-0,2.2,.6,2.2,1.3C2.2,2,1.7,2.5,1.1,2.5C.5,2.5,-0,2,-0,1.3z" transform="translate(71.62,89.03)"/><path id="shape84" fill="url(#lg14)" d="M11.8,4.3L0,34.2L0,.3C0,.3,-0.3,-0.3,1.1,.1C2.5,.6,11.8,4.3,11.8,4.3z" transform="translate(65.06,30.25)"/><path id="shape85" fill="#272727" d="M0,0L16.8,8.4L0,0z" transform="translate(64.95,67.51)"/></g><g transform="translate(549.59,401)"><path id="shape86" fill="#2362a2" d="M123.8,2.4L123.8,5.6C123.8,5.6,90.6,26.5,87.6,27.9C85.3,28.9,83.1,29,80.6,28.7C78.1,28.3,1.4,2.8,.5,2C-0.3,1.2,.1,0,.1,0L110.7,8.1L123.8,2.4z" transform="translate(0.05,80.17)"/><path id="shape87" fill="#2362a2" d="M17,0C15.2,-0.3,13.6,1.7,13.4,3.7C13.2,5.3,.2,55.8,.2,55.8C.2,55.8,-0.8,58.3,1.8,59.1C4.3,59.9,79.3,80.8,79.3,80.8C79.3,80.8,81.1,82.1,81.7,79C82.4,75.9,97,19.8,97,19.8C97,19.8,98.1,16.7,93.6,15.8C88.9,14.8,17.9,0,17,0z" transform="translate(44.31,0.03)"/><path id="shape88" fill="url(#lg15)" d="M17.3,0C15.5,-0.3,14,1.7,13.8,3.7C13.6,5.3,.2,55.9,.2,55.9C.2,55.9,-0.8,58.5,1.7,59.3C4.3,60.1,79.6,80.8,79.6,80.8C79.6,80.8,81.4,82.1,82.1,79C82.7,75.9,97.3,19.8,97.3,19.8C97.3,19.8,98.4,16.7,93.9,15.8C89.2,14.8,18.2,0,17.3,0z" transform="translate(43.2,0.07)"/><path id="shape89" fill="url(#lg16)" d="M13.2,0L0,48L74.4,68.3L87.7,16.9L13.2,0z" transform="translate(48,6.41)"/><path id="shape90" fill="url(#lg17)" d="M2.3,19.1C2.3,19.1,-2.4,20.6,1.6,22.2C5.6,23.8,79.1,47.9,79.5,48.1C80,48.4,84.2,49.4,87.8,47.5C92.6,44.9,123.6,23.5,123.6,23.5C123.6,23.5,124.8,21.8,121.4,20.9C118.3,20,44.1,0,44.8,0C44.8,0,41.9,-0.4,38.1,1.6L2.3,19.1z" transform="translate(0.04,59.86)"/><path id="shape91" fill="url(#lg18)" d="M1.5,0C1.5,0,.3,1.4,.2,1.5C0,1.6,-0.4,2,1.1,2.5C2.7,3.1,58,18.3,58,18.3C58,18.3,58.9,18.5,59.7,17.8C60.5,17.1,61.3,16.5,61.3,16.5L1.5,0z" transform="translate(51.29,61.48)"/><path id="shape92" fill="url(#lg19)" d="M26,0L0,8.9L72.3,41.3L96.7,29.2L26,0z" transform="matrix(0.99,-0.12,0.12,0.99,16.5,65.9)"/><path id="shape93" fill="#2362a2" d="M0,1.8L3,0L6.7,1.1L3.6,2.9L0,1.8z" transform="matrix(1,0.01,-0.01,1,40.9,64.4)"/><path id="shape94" fill="#2362a2" d="M0,1.8L3,0L6.7,1.1L3.6,2.9L0,1.8z" transform="matrix(1,0.01,-0.01,1,45.2,65.6)"/><path id="shape95" fill="#2362a2" d="M0,1.8L3,0L6.7,1.1L3.6,2.9L0,1.8z" transform="matrix(1,0.01,-0.01,1,49.8,66.9)"/><path id="shape96" fill="#2362a2" d="M0,1.8L3,0L6.7,1.1L3.6,2.9L0,1.8z" transform="matrix(1,0.01,-0.01,1,54.2,68.2)"/><path id="shape97" fill="#2362a2" d="M0,1.8L3,0L6.7,1.1L3.6,2.9L0,1.8z" transform="matrix(1,0.01,-0.01,1,58.8,69.5)"/><path id="shape98" fill="#2362a2" d="M0,1.9L3,0L6.7,1.2L3.6,3L0,1.9z" transform="matrix(1,0.01,-0.01,1,63.5,70.9)"/><path id="shape99" fill="#2362a2" d="M0,2L2.9,0L6.7,1.2L3.6,3L0,2z" transform="matrix(1,0.01,-0.01,1,68.3,72.1)"/><path id="shape100" fill="#2362a2" d="M0,1.8L2.9,0L6.7,1L3.6,2.9L0,1.8z" transform="matrix(1,0.01,-0.01,1,73.2,73.5)"/><path id="shape101" fill="#2362a2" d="M0,2L3.1,0L6.7,1L3.6,2.8L0,2z" transform="matrix(1,0.01,-0.01,1,77.7,74.7)"/><path id="shape102" fill="#2362a2" d="M0,2L3,0L7,1.1L4,3.3L0,2z" transform="matrix(1,0.01,-0.01,1,82.3,75.8)"/><path id="shape103" fill="#2362a2" d="M0,2.1L3,0L7.2,1.3L4.1,3.3L0,2.1z" transform="matrix(1,0.01,-0.01,1,87.1,77.1)"/><path id="shape104" fill="#2362a2" d="M0,2.1L3,0L7.2,1.1L4.2,3.4L0,2.1z" transform="matrix(1,0.01,-0.01,1,92.3,78.6)"/><path id="shape105" fill="#2362a2" d="M0,2.1L3,0L7.5,1.4L4.2,3.4L0,2.1z" transform="matrix(1,0.01,-0.01,1,97.6,80.1)"/><path id="shape106" fill="#2362a2" d="M0,2L3.4,0L7.7,1L4,3.3L0,2z" transform="matrix(1,0.01,-0.01,1,102.8,81.8)"/><path id="shape107" fill="#2362a2" d="M0,1.6L3.1,0L6.8,1.1L3.6,2.9L0,1.6z" transform="matrix(1,0.01,-0.01,1,33.2,68.9)"/><path id="shape108" fill="#2362a2" d="M0,1.8L3.1,0L6.8,1.1L3.6,2.9L0,1.8z" transform="matrix(1,0.01,-0.01,1,37.6,70.1)"/><path id="shape109" fill="#2362a2" d="M0,1.8L3.1,0L6.8,1.1L3.6,2.9L0,1.8z" transform="matrix(1,0.01,-0.01,1,42.3,71.4)"/><path id="shape110" fill="#2362a2" d="M0,1.8L3.1,0L6.8,1.1L3.6,2.9L0,1.8z" transform="matrix(1,0.01,-0.01,1,46.7,72.7)"/><path id="shape111" fill="#2362a2" d="M0,1.8L3.1,0L6.8,1.1L3.6,2.9L0,1.8z" transform="matrix(1,0.01,-0.01,1,51.4,73.9)"/><path id="shape112" fill="#2362a2" d="M0,1.9L3.1,0L6.8,1.2L3.6,3L0,1.9z" transform="matrix(1,0.01,-0.01,1,56.2,75.3)"/><path id="shape113" fill="#2362a2" d="M0,2L2.9,0L6.9,1.2L3.7,3L0,2z" transform="matrix(1,0.01,-0.01,1,61.1,76.6)"/><path id="shape114" fill="#2362a2" d="M0,1.8L2.9,0L6.9,1L3.7,2.9L0,1.8z" transform="matrix(1,0.01,-0.01,1,66,78)"/><path id="shape115" fill="#2362a2" d="M0,2L2.9,0L6.9,1L3.7,3L0,2z" transform="matrix(1,0.01,-0.01,1,70.6,79.3)"/><path id="shape116" fill="#2362a2" d="M0,2L3,0L7,1.3L4.3,3.3L0,2z" transform="matrix(1,0.01,-0.01,1,75.3,80.6)"/><path id="shape117" fill="#2362a2" d="M0,2.1L3,0L7.4,1.3L4.2,3.3L0,2.1z" transform="matrix(1,0.01,-0.01,1,80.2,82.3)"/><path id="shape118" fill="#2362a2" d="M0,2.1L3,0L7.4,1.1L4.3,3.4L0,2.1z" transform="matrix(1,0.01,-0.01,1,85.4,83.8)"/><path id="shape119" fill="#2362a2" d="M0,2.1L3,0L7.2,1.1L4.2,3.2L0,2.1z" transform="matrix(1,0.01,-0.01,1,90.2,85.3)"/><path id="shape120" fill="#2362a2" d="M0,2.4L3.3,0L7.8,1.3L4.1,3.5L0,2.4z" transform="matrix(1,0.01,-0.01,1,95.1,86.4)"/><path id="shape121" fill="#2362a2" d="M0,1.8L3.1,0L6.8,1.1L3.6,2.9L0,1.8z" transform="matrix(1,0.01,-0.01,1,37,66.6)"/><path id="shape122" fill="#2362a2" d="M0,1.8L3.1,0L6.8,1.1L3.6,2.9L0,1.8z" transform="matrix(1,0.01,-0.01,1,41.4,67.8)"/><path id="shape123" fill="#2362a2" d="M0,1.8L3.1,0L6.8,1.1L3.6,2.9L0,1.8z" transform="matrix(1,0.01,-0.01,1,46.1,69.1)"/><path id="shape124" fill="#2362a2" d="M0,1.8L3.1,0L6.8,1.1L3.6,2.9L0,1.8z" transform="matrix(1,0.01,-0.01,1,50.5,70.4)"/><path id="shape125" fill="#2362a2" d="M0,1.8L3.1,0L6.8,1.1L3.6,2.9L0,1.8z" transform="matrix(1,0.01,-0.01,1,55.2,71.6)"/><path id="shape126" fill="#2362a2" d="M0,1.9L3.1,0L6.8,1.2L3.6,3L0,1.9z" transform="matrix(1,0.01,-0.01,1,60,73)"/><path id="shape127" fill="#2362a2" d="M0,2L2.9,0L6.9,1.2L3.7,3L0,2z" transform="matrix(1,0.01,-0.01,1,64.9,74.3)"/><path id="shape128" fill="#2362a2" d="M0,1.8L2.9,0L6.9,1L3.7,2.9L0,1.8z" transform="matrix(1,0.01,-0.01,1,69.8,75.7)"/><path id="shape129" fill="#2362a2" d="M0,2L2.9,0L6.9,1L3.7,3L0,2z" transform="matrix(1,0.01,-0.01,1,74.4,77)"/><path id="shape130" fill="#2362a2" d="M0,2L3,0L7.1,1.1L3.7,3L0,2z" transform="matrix(1,0.01,-0.01,1,79.2,78.3)"/><path id="shape131" fill="#2362a2" d="M0,2.1L3,0L7.4,1.3L4.2,3.3L0,2.1z" transform="matrix(1,0.01,-0.01,1,84.1,79.6)"/><path id="shape132" fill="#2362a2" d="M0,2.1L3,0L7.2,1.1L4.2,3.4L0,2.1z" transform="matrix(1,0.01,-0.01,1,89,81.1)"/><path id="shape133" fill="#2362a2" d="M0,2.1L3,0L7.4,1.3L4.2,3.4L0,2.1z" transform="matrix(1,0.01,-0.01,1,94,82.6)"/><path id="shape134" fill="#2362a2" d="M0,2.1L3.3,0L7.5,1.2L4.2,3.4L0,2.1z" transform="matrix(1,0.01,-0.01,1,99,84.1)"/><path id="shape135" fill="#2362a2" d="M0,1.8L3.1,0L7.1,1.4L3.9,3.1L0,1.8z" transform="matrix(1,0.02,-0.02,1,29.2,70.7)"/><path id="shape136" fill="#2362a2" d="M0,1.8L3.1,0L6.8,1.1L3.6,2.9L0,1.8z" transform="matrix(1,0.02,-0.02,1,33.8,72.1)"/><path id="shape137" fill="#2362a2" d="M0,1.8L3.1,0L6.8,1.1L3.6,2.9L0,1.8z" transform="matrix(1,0.02,-0.02,1,38.5,73.5)"/><path id="shape138" fill="#2362a2" d="M0,1.8L3.1,0L6.8,1.1L3.6,2.9L0,1.8z" transform="matrix(1,0.02,-0.02,1,42.9,74.8)"/><path id="shape139" fill="#2362a2" d="M0,1.8L3.1,0L6.8,1.1L3.6,2.9L0,1.8z" transform="matrix(1,0.02,-0.02,1,47.5,76.2)"/><path id="shape140" fill="#2362a2" d="M0,1.9L3.1,0L6.8,1.2L3.6,3L0,1.9z" transform="matrix(1,0.02,-0.02,1,52.4,77.6)"/><path id="shape141" fill="#2362a2" d="M0,2L2.9,0L6.8,1.2L3.7,3L0,2z" transform="matrix(1,0.02,-0.02,1,57.2,78.9)"/><path id="shape142" fill="#2362a2" d="M0,1.8L2.9,0L6.8,1L3.7,2.9L0,1.8z" transform="matrix(1,0.02,-0.02,1,62.1,80.4)"/><path id="shape143" fill="#2362a2" d="M0,2L2.9,0L6.8,1L3.7,3L0,2z" transform="matrix(1,0.02,-0.02,1,66.6,81.7)"/><path id="shape144" fill="#2362a2" d="M0,2L3,0L7.1,1.1L3.7,3L0,2z" transform="matrix(1,0.02,-0.02,1,71.4,83.1)"/><path id="shape145" fill="#2362a2" d="M0,2.1L3,0L7.3,1.3L4.2,3.3L0,2.1z" transform="matrix(1,0.02,-0.02,1,76.2,84.4)"/><path id="shape146" fill="#2362a2" d="M0,2.1L3,0L7.5,1.4L4.5,3.4L0,2.1z" transform="matrix(1,0.02,-0.02,1,81.4,86)"/><path id="shape147" fill="#2362a2" d="M0,2.1L3,0L7.7,1.3L4.2,3.4L0,2.1z" transform="matrix(1,0.02,-0.02,1,86.6,87.5)"/><path id="shape148" fill="#2362a2" d="M0,2.1L3.5,0L7.8,1.1L4.3,3.6L0,2.1z" transform="matrix(1,0.02,-0.02,1,91.2,89.1)"/><path id="shape149" fill="#2362a2" d="M0,1.8L3.1,0L7.5,1.4L4.7,3.1L0,1.8z" transform="matrix(1,0.02,-0.02,1,25.1,72.7)"/><path id="shape150" fill="#2362a2" d="M0,1.8L3.1,0L6.8,1.1L3.6,2.9L0,1.8z" transform="matrix(1,0.02,-0.02,1,30.1,74.4)"/><path id="shape151" fill="#2362a2" d="M0,1.8L3.1,0L6.8,1.1L3.6,2.9L0,1.8z" transform="matrix(1,0.02,-0.02,1,34.7,75.8)"/><path id="shape152" fill="#2362a2" d="M0,1.8L3.1,0L6.8,1.1L3.6,2.9L0,1.8z" transform="matrix(1,0.02,-0.02,1,39.1,77.1)"/><path id="shape153" fill="#2362a2" d="M0,1.9L3.2,0L26,6.3L22.9,8.3L0,1.9z" transform="matrix(1,0.02,-0.02,1,43.8,78.3)"/><path id="shape154" fill="#2362a2" d="M0,2L3,0L7.1,1.1L3.7,3L0,2z" transform="matrix(1,0.02,-0.02,1,67.6,85.4)"/><path id="shape155" fill="#2362a2" d="M0,2.1L3,0L7.3,1.3L4.2,3.3L0,2.1z" transform="matrix(1,0.02,-0.02,1,72.5,86.7)"/><path id="shape156" fill="#2362a2" d="M0,2.1L3,0L7.3,1.1L4.3,3.4L0,2.1z" transform="matrix(1,0.02,-0.02,1,77.6,88.3)"/><path id="shape157" fill="#2362a2" d="M0,2.1L3,0L7.5,1.2L4.2,3.4L0,2.1z" transform="matrix(1,0.02,-0.02,1,82.8,89.8)"/><path id="shape158" fill="#2362a2" d="M0,2.1L3.2,0L7.8,1.4L4.5,3.6L0,2.1z" transform="matrix(1,0.02,-0.02,1,87.4,91.5)"/><path id="shape159" fill="#2362a2" d="M0,5.7C-0.5,5,10,0,10.4,0C10.9,0,29,5.6,30.2,5.9C31.4,6.2,22.4,12.3,21.1,12.7C19.9,13.2,.6,6.4,0,5.7z" transform="translate(29.97,83.15)"/><path id="shape160" fill="#ffffff" d="M0,5C-0.5,4.4,8.8,0,9.2,0C9.7,0,26.6,5.2,27.8,5.5C28.9,5.8,20.9,11.1,19.8,11.6C18.6,12,.5,5.6,0,5z" transform="translate(31.24,83.71)"/><path id="shape161" fill="#ffffff" d="M-0,.5C-0,.2,.3,-0,.6,-0C1,-0,1.2,.2,1.2,.5C1.2,.8,1,1,.6,1C.3,1,-0,.8,-0,.5z" transform="translate(96.49,11.65)"/></g><g id="shape162" transform="matrix(0,-1,1,0,637.7,406)"><path fill-opacity="0.2" fill="#ffffff" d="M127,13.3L62.5,19L69.7,2L-2,13.3L62.5,7.7L55.3,24.7L127,13.3z"/><path fill="#2362a2" d="M129,11.3L64.5,17L71.7,0L0,11.3L64.5,5.7L57.3,22.7L129,11.3z" stroke="#2362a2"/></g><g id="shape163" transform="matrix(0.56,-0.83,0.83,0.56,505.6,441.7)"><path fill-opacity="0.2" fill="#ffffff" d="M206.4,14.1L102.9,19.8L114.4,2.8L-0.6,14.1L102.9,8.4L91.4,25.5L206.4,14.1z"/><path fill="#2362a2" d="M206.9,11.3L103.5,17L115,0L0,11.3L103.5,5.7L91.9,22.7L206.9,11.3z" stroke="#2362a2"/></g><g id="shape164" transform="matrix(0.85,-0.53,0.53,0.85,360.1,409.4)"><path fill-opacity="0.2" fill="#ffffff" d="M280.4,14.1L140.5,19.8L156.1,2.8L.7,14.1L140.5,8.4L125,25.4L280.4,14.1z"/><path fill="#2362a2" d="M279.7,11.3L139.9,17L155.4,0L0,11.3L139.9,5.7L124.3,22.7L279.7,11.3z" stroke="#2362a2"/></g><g transform="translate(644.41,303.5)"><path id="shape165" fill="none" d="M0,0L26.9,0" stroke-width="8" stroke="#ff0000" transform="matrix(0.71,0.71,-0.71,0.71,0,0)"/><path id="shape166" fill="none" d="M0,0L26.9,0" stroke-width="8" stroke="#ff0000" transform="matrix(0.71,-0.71,0.71,0.71,0,19)"/></g><g transform="translate(596.07,311.5)"><path id="shape167" fill="none" d="M0,0L26.9,0" stroke-width="8" stroke="#ff0000" transform="matrix(0.71,0.71,-0.71,0.71,0,0)"/><path id="shape168" fill="none" d="M0,0L26.9,0" stroke-width="8" stroke="#ff0000" transform="matrix(0.71,-0.71,0.71,0.71,0,19)"/></g><path id="shape169" fill="none" d="M0,0L285.1,0" stroke-width="4" stroke="#2362a2" transform="matrix(-0.98,-0.21,0.21,-0.98,602.1,257)"/><path id="shape170" fill="none" d="M19,19L19,0L0,0L0,19L19,19z" stroke-width="6.33333" stroke="#ff0000" transform="translate(313.59,188.91)"/><path id="shape171" fill="none" d="M0,0L103.2,0" stroke-width="4" stroke="#2362a2" transform="matrix(0.69,0.73,-0.73,0.69,323.1,198.4)"/><g transform="translate(475.57,221.95)"><path id="shape172" fill="none" d="M0,0L26.9,0" stroke-width="8" stroke="#ff0000" transform="matrix(0.71,0.71,-0.71,0.71,0,0)"/><path id="shape173" fill="none" d="M0,0L26.9,0" stroke-width="8" stroke="#ff0000" transform="matrix(0.71,-0.71,0.71,0.71,0,19)"/></g><g transform="translate(535.57,303.5)"><path id="shape174" fill="none" d="M0,0L26.9,0" stroke-width="8" stroke="#ff0000" transform="matrix(0.71,0.71,-0.71,0.71,0,0)"/><path id="shape175" fill="none" d="M0,0L26.9,0" stroke-width="8" stroke="#ff0000" transform="matrix(0.71,-0.71,0.71,0.71,0,19)"/></g><path id="shape176" fill="none" d="M0,0L45.8,0" stroke-width="8" stroke="#00b050" transform="matrix(0.71,-0.71,0.71,0.71,345.1,250.7)"/><path id="shape177" fill="none" d="M0,0L22.6,0" stroke-width="8" stroke="#00b050" transform="matrix(0.71,0.71,-0.71,0.71,332.5,234.6)"/><g id="shape178" transform="translate(286.07,165)"><text class="st1"><tspan y="13.8" x="24">NTP</tspan></text></g><g id="shape179" transform="translate(421.83,197)"><text class="st1"><tspan y="13.8" x="9.5">UTP cable Cat. 5e+</tspan></text></g><g transform="translate(302.07,540.5)"><path id="shape180" fill="none" d="M0,0L26.9,0" stroke-width="8" stroke="#ff0000" transform="matrix(0.71,0.71,-0.71,0.71,0,0)"/><path id="shape181" fill="none" d="M0,0L26.9,0" stroke-width="8" stroke="#ff0000" transform="matrix(0.71,-0.71,0.71,0.71,0,19)"/></g><g id="shape182" transform="translate(329.5,541.02)"><text class="st1"><tspan y="13.8" x="23">Deactivate or not use during NetTest measurement</tspan></text></g><g id="shape183" transform="translate(396.37,0)"><path stroke-dasharray="6,4" fill="none" d="M209.7,58L209.7,0L0,0L0,58L209.7,58z" stroke-width="4" stroke="#2362a2"/><text class="st2"><tspan class="st3" y="27" x="14.4">Demarcation point 6</tspan><tspan class="st4" y="45" x="86.4">DeP 6</tspan></text></g><path id="shape184" stroke-dasharray="6,4" fill="none" d="M440,378L440,0L0,0L0,378L440,378z" stroke-width="4" stroke="#2362a2" transform="translate(276.07,153)"/><g id="shape185" transform="translate(0,70.95)"><path stroke-linecap="square" fill="#ffffff" d="M25.5,0L226.6,0C240.7,0,252.1,11.4,252.1,25.5L252.1,102L323.1,127.5L252.1,144.5C252.1,158.6,240.7,170,226.6,170L25.5,170C11.4,170,0,158.6,0,144.5L0,25.5C0,11.4,11.4,0,25.5,0z" stroke-width="2.66667" stroke="#2362a2"/><text class="st5"><tspan class="st6" y="34.3" x="17.4">Network termination point</tspan><tspan y="51.7" x="46.7">access network technology</tspan><tspan y="83.7" x="9.4">- The technology </tspan><tspan class="st7">allows</tspan><tspan> direct </tspan><tspan y="100.3" x="9.4">connection of the end device </tspan><tspan y="116.3" x="9.4">(PC, notebook, atd.)</tspan><tspan y="132.3" x="9.4">- Typical of Ethernet-based technology </tspan><tspan y="148.3" x="9.4">(IEEE 802.3u/ab/ae...)</tspan></text></g><path id="shape186" fill="none" d="M0,0L222,0" stroke-width="1.33333" stroke="#236ea1" transform="translate(12.07,136)"/><g id="shape187" transform="translate(0,354.85)"><path stroke-linecap="square" fill="#ffffff" d="M22.8,0L225.3,0C237.9,0,248.1,10.2,248.1,22.8L359.1,-12.9L248.1,60.9L248.1,129.3C248.1,141.9,237.9,152.2,225.3,152.2L22.8,152.2C10.2,152.2,0,141.9,0,129.3L0,22.8C0,10.2,10.2,0,22.8,0z" stroke-width="2.66667" stroke="#2362a2"/><text class="st5"><tspan class="st8" y="42.7" x="68">End device</tspan><tspan class="st9" y="60.7" x="23.4">suitable</tspan><tspan> for NetTest measurement</tspan><tspan y="93.4" x="9.4">- </tspan><tspan class="st7">Allows</tspan><tspan> connection to the network </tspan><tspan y="110.1" x="9.4">termination point using copper (optical) </tspan><tspan y="126.1" x="9.4">cable (eg UTP cable Cat. 5e+)</tspan></text></g><g id="shape188" transform="translate(54,294.5)"><path fill="none" d="M126.1,44.5C132.7,44.5,138.1,39.1,138.1,32.5L138.1,12C138.1,5.4,132.7,0,126.1,0L12,0C5.4,0,0,5.4,0,12L0,32.5C0,39.1,5.4,44.5,12,44.5L126.1,44.5z" stroke-width="6.33333" stroke="#00b050"/><text class="st10"><tspan y="29.6" x="41.4">PASS</tspan></text></g><g id="shape189" transform="translate(753.07,291.93)"><path stroke-linecap="square" fill="#ffffff" d="M22.8,0L227.2,0C239.8,0,250,10.2,250,22.8L250,129.3C250,141.9,239.8,152.2,227.2,152.2L22.8,152.2C10.2,152.2,0,141.9,0,129.3L-67.1,173.1L0,91.3L0,22.8C0,10.2,10.2,0,22.8,0z" stroke-width="2.66667" stroke="#2362a2"/><text class="st5"><tspan class="st8" y="42.7" x="69.3">End device</tspan><tspan class="st11" y="60.7" x="16.7">unsuitable</tspan><tspan> for NetTest measurement</tspan><tspan y="93.4" x="9.3">- </tspan><tspan class="st7">Doesn't</tspan><tspan> </tspan><tspan class="st7">allow</tspan><tspan> connection to the </tspan><tspan y="110.1" x="9.3">network termination point using copper </tspan><tspan y="126.1" x="9.3">(optical) cable (eg only via Wi-Fi)</tspan></text></g><g id="shape190" transform="translate(807.04,462.5)"><path fill="none" d="M126.1,44.5C132.7,44.5,138.1,39.1,138.1,32.5L138.1,12C138.1,5.4,132.7,0,126.1,0L12,0C5.4,0,0,5.4,0,12L0,32.5C0,39.1,5.4,44.5,12,44.5L126.1,44.5z" stroke-width="6.33333" stroke="#ff0000"/><text class="st12"><tspan y="29.6" x="46">FAIL</tspan></text></g><g id="shape191" transform="translate(753.07,80.65)"><path stroke-linecap="square" fill="#ffffff" d="M25.5,0L224.5,0C238.6,0,250,11.4,250,25.5L250,144.5C250,158.6,238.6,170,224.5,170L25.5,170C11.4,170,0,158.6,0,144.5L-67.1,166.3L0,102L0,25.5C0,11.4,11.4,0,25.5,0z" stroke-width="2.66667" stroke="#2362a2"/><text class="st5"><tspan class="st13" y="43" x="75.3">End device</tspan><tspan y="61" x="20">in the form an active network device</tspan><tspan y="93" x="9.3">- Ensures the creation of a local (home) </tspan><tspan y="109" x="9.3">user network (LAN)</tspan><tspan y="125" x="9.3">- Typical design: router, switch or most </tspan><tspan y="141" x="9.3">often Wi-Fi router</tspan></text></g><path id="shape192" fill="none" d="M0,0L222,0" stroke-width="1.33333" stroke="#236ea1" transform="translate(11.07,426)"/><path id="shape193" fill="none" d="M0,0L222,0" stroke-width="1.33333" stroke="#236ea1" transform="translate(767.07,364)"/><path id="shape194" fill="none" d="M0,0L222,0" stroke-width="1.33333" stroke="#236ea1" transform="translate(766.07,154)"/><g transform="translate(433.6,80)"><path id="shape195" fill="#2362a2" d="M0,14.6L16,0L16,55.3L0,69.9L0,14.6z" stroke="#2362a2" transform="translate(111.91,31.02)"/><path id="shape196" fill="#ffffff" d="M0,33L45.9,0L104.6,32.9L57.3,34.3L0,33z" stroke="#ffffff" transform="translate(8.1,12.69)"/><path id="shape197" fill="#2362a2" d="M50,1.3L3.4,35.2L0,35.1L47.8,0L50,1.3z" transform="translate(0,11.5)"/><path id="shape198" fill="#2362a2" d="M47.4,1.6L4.7,32.2L0,33.2L45.3,0L47.4,1.6z" transform="translate(3.39,13.49)"/><path id="shape199" fill="#2362a2" d="M1.7,0L74.4,36L69.9,36.2L0,1.6L1.7,0z" transform="translate(46.92,11.79)"/><path id="shape200" fill="#2362a2" d="M0,0L103.8,0L103.8,55.4L0,55.4L0,0z" stroke="#2362a2" transform="translate(8.27,45.63)"/><g transform="translate(76.09,52.02)"><path id="shape201" fill="#ffffff" d="M0,0L24.3,0L24.3,49L0,49L0,0z"/><path id="shape202" fill="#ffffff" d="M0,0L20.9,0L20.9,47.7L0,47.7L0,0z" transform="translate(1.68,1.27)"/><path id="shape203" fill="#ffffff" d="M0,0L4.3,.1L18.1,47.7L0,47.7L0,0z" transform="translate(1.55,1.27)"/><g transform="translate(2,19.5)"><path id="shape204" fill="#ffffff" d="M1.2,0C1.9,0,2.4,.5,2.4,1.2L2.4,6.7C2.4,7.3,1.9,7.9,1.2,7.9C.5,7.9,0,7.3,0,6.7L0,1.2C0,.5,.5,0,1.2,0z" transform="translate(-0.01,-0.01)"/><path id="shape205" fill="#ffffff" d="M.9,0C1.4,0,1.9,.5,1.9,1.1L1.9,5.8C1.9,6.4,1.4,6.8,.9,6.8C.4,6.8,0,6.4,0,5.8L0,1.1C0,.5,.4,0,.9,0z" transform="translate(0.28,0.51)"/><path id="shape206" fill="#ffffff" d="M0,.6C0,.2,.2,-0,.5,-0C.7,-0,1,.2,1,.6C1,.9,.7,1.1,.5,1.1C.2,1.1,0,.9,0,.6z" transform="translate(0.6,5.17)"/><path id="shape207" fill="#ffffff" d="M-0,.6C-0,.3,.2,-0,.5,-0C.8,-0,1,.3,1,.6C1,.9,.8,1.2,.5,1.2C.2,1.2,-0,.9,-0,.6z" transform="translate(0.58,1.96)"/><path id="shape208" fill="#ffffff" d="M.3,-0L4,-0C4.2,-0,4.3,.1,4.3,.3C4.3,.5,4.2,.6,4,.6L.3,.6C.1,.6,-0,.5,-0,.3C-0,.1,.1,-0,.3,-0z" transform="translate(0.81,2.32)"/></g></g><path id="shape209" fill="#2362a2" d="M0,11.5L73.6,47.8L89.8,35.9L19.9,0L0,11.5z" transform="translate(47.76,0)"/><path fill-opacity="0.11" id="shape210" fill="#ffffff" d="M0,3.4L73.6,39.7L89.8,27.8L5.9,0L0,3.4z" transform="translate(47.76,8.13)"/><g transform="translate(21.37,52.62)"><path id="shape211" fill="#ffffff" d="M0,0L0,18.8L41.2,18.8L41.2,0L0,0z" transform="translate(0,-0)"/><path id="shape212" fill="#595757" d="M0,0L8.7,.8L0,0z" transform="translate(20.79,25.33)"/></g></g></g></g></svg>