<svg height="573" xmlns="http://www.w3.org/2000/svg" width="1008" xmlns:xlink="http://www.w3.org/1999/xlink" viewBox="0 0 1008 572.999">
    <style type="text/css"><![CDATA[
@import url('https://fonts.googleapis.com/css2?family=Roboto:wght@300;400;500&display=swap');
.st10 {fill:#00b050;font-family:Roboto;font-size:16pt;font-weight:bold}
.st9 {fill:#00b050;font-weight:bold}
.st5 {fill:#1f6391;font-family:Roboto;font-size:10pt}
.st1 {fill:#2362a2;font-family:Roboto;font-size:10pt;font-weight:bold}
.st3 {fill:#2362a2;font-size:14pt;font-weight:bold}
.st4 {fill:#2362a2}
.st12 {fill:#ff0000;font-family:Roboto;font-size:16pt;font-weight:bold}
.st11 {fill:#ff0000;font-weight:bold}
.st2 {fill:#ffffff;font-family:Roboto;font-size:10pt}
.st6 {font-size:13pt;font-weight:bold}
.st13 {font-size:14pt;font-weight:bold}
.st8 {font-size:16pt;font-weight:bold}
.st7 {font-weight:bold}
]]></style>
    <defs>
        <linearGradient y2="0%" y1="0%" x2="100%" id="lg1" x1="0%">
            <stop stop-color="#1e5791" offset="0.34"/>
            <stop stop-color="#215d9a" offset="0.48"/>
        </linearGradient>
        <linearGradient y2="0%" y1="0%" x2="100%" id="lg2" x1="0%">
            <stop stop-color="#f0f0f0" offset="0"/>
            <stop stop-color="#ffffff" offset="0.18"/>
            <stop stop-color="#ffffff" offset="0.38"/>
            <stop stop-color="#ffffff" offset="0.62"/>
            <stop stop-color="#ffffff" offset="0.86"/>
            <stop stop-color="#ffffff" offset="1"/>
        </linearGradient>
        <linearGradient y2="0%" y1="0%" x2="100%" id="lg3" x1="0%">
            <stop stop-color="#ffffff" offset="0"/>
            <stop stop-color="#ffffff" offset="0"/>
        </linearGradient>
        <linearGradient y2="100%" y1="0%" x2="0%" id="lg4" x1="0%">
            <stop stop-color="#ffffff" offset="0" stop-opacity="0.2"/>
            <stop stop-color="#ffffff" offset="0.4" stop-opacity="0.06"/>
            <stop stop-color="#ffffff" offset="1" stop-opacity="0"/>
        </linearGradient>
        <linearGradient y2="100%" y1="0%" x2="0%" id="lg5" x1="0%">
            <stop stop-color="#2362a2" offset="1"/>
            <stop stop-color="#e5e5e5" offset="1"/>
            <stop stop-color="#d4d4d4" offset="1"/>
        </linearGradient>
        <linearGradient y2="100%" y1="0%" x2="0%" id="lg6" x1="0%">
            <stop stop-color="#ffffff" offset="0"/>
            <stop stop-color="#f5f5f5" offset="0.98"/>
            <stop stop-color="#e6e6e6" offset="1"/>
        </linearGradient>
        <linearGradient y2="100%" y1="0%" x2="0%" id="lg7" x1="0%">
            <stop stop-color="#2362a2" offset="1"/>
            <stop stop-color="#303030" offset="1"/>
        </linearGradient>
        <linearGradient y2="100%" y1="0%" x2="0%" id="lg8" x1="0%">
            <stop stop-color="#ffffff" offset="0.99"/>
            <stop stop-color="#0052a4" offset="1"/>
        </linearGradient>
        <linearGradient y2="1" gradientUnits="userSpaceOnUse" y1="-0" x2="0" id="lg9" x1="1">
            <stop stop-color="#ffffff" offset="0.99"/>
            <stop stop-color="#4b4b4b" offset="1"/>
            <stop stop-color="#303030" offset="1"/>
        </linearGradient>
        <linearGradient y2="33" gradientUnits="userSpaceOnUse" y1="22" x2="-4" id="lg10" x1="58">
            <stop stop-color="#ffffff" offset="0" stop-opacity="0.14"/>
            <stop stop-color="#ffffff" offset="1" stop-opacity="0"/>
        </linearGradient>
        <linearGradient y2="50" gradientUnits="userSpaceOnUse" y1="-8" x2="58" id="lg11" x1="48">
            <stop stop-color="#414141" offset="0.22"/>
            <stop stop-color="#616161" offset="0.54"/>
            <stop stop-color="#212121" offset="0.78"/>
        </linearGradient>
        <linearGradient y2="1" gradientUnits="userSpaceOnUse" y1="0" x2="1" id="lg12" x1="1">
            <stop stop-color="#ffffff" offset="0" stop-opacity="0.74"/>
            <stop stop-color="#00692d" offset="0.53" stop-opacity="0"/>
        </linearGradient>
        <linearGradient y2="0" gradientUnits="userSpaceOnUse" y1="1" x2="1" id="lg13" x1="1">
            <stop stop-color="#ffffff" offset="0" stop-opacity="0.52"/>
            <stop stop-color="#00692d" offset="0.53" stop-opacity="0"/>
        </linearGradient>
        <linearGradient y2="16" gradientUnits="userSpaceOnUse" y1="19" x2="-3" id="lg14" x1="15">
            <stop stop-color="#ffffff" offset="0" stop-opacity="0.3"/>
            <stop stop-color="#ffffff" offset="0.71" stop-opacity="0"/>
        </linearGradient>
        <linearGradient y2="100%" y1="0%" x2="0%" id="lg15" x1="0%">
            <stop stop-color="#2362a2" offset="0.99"/>
            <stop stop-color="#ebebeb" offset="1"/>
        </linearGradient>
        <linearGradient y2="77" gradientUnits="userSpaceOnUse" y1="-9" x2="32" id="lg16" x1="55">
            <stop stop-color="#ffffff" offset="0.98"/>
            <stop stop-color="#003e6a" offset="1"/>
        </linearGradient>
        <linearGradient y2="100%" y1="0%" x2="0%" id="lg17" x1="0%">
            <stop stop-color="#2362a2" offset="1"/>
            <stop stop-color="#c9c9c9" offset="1"/>
        </linearGradient>
        <linearGradient y2="29" gradientUnits="userSpaceOnUse" y1="-11" x2="41" id="lg18" x1="20">
            <stop stop-color="#212121" offset="0.01"/>
            <stop stop-color="#ffffff" offset="0.01"/>
        </linearGradient>
        <linearGradient y2="57" gradientUnits="userSpaceOnUse" y1="-15" x2="68" id="lg19" x1="29">
            <stop stop-color="#ffffff" offset="0.95"/>
            <stop stop-color="#212121" offset="0.95"/>
        </linearGradient>
    </defs>
    <g transform="translate(2.67,4)">
        <g transform="translate(443.42,445)">
            <path fill="#2362a2" transform="translate(0.12,0)" id="shape1" d="M52.7,.6C52.7,.6,56.1,-0.9,58.9,.8L78.6,12.5C78.6,12.5,81.5,14.6,77.3,17.1L29.5,47.4C29.5,47.4,25.2,50.2,21.4,48.1L1.3,34.1C1.3,34.1,-1.8,32.1,1.5,29.6L52.7,.6z"/>
            <path fill="#ffffff" transform="translate(8.42,3.79)" id="shape2" d="M0,23.8L41.7,0L64.8,13.7L23.2,39.8L0,23.8z"/>
            <path fill="url(#lg1)" transform="translate(0,14.16)" id="shape3" d="M79.8,0C79.8,0,80.3,1.7,75.8,3.9L29.1,33.4C29.1,33.4,25.7,35.3,22.3,34.3L1.4,19.8C1.4,19.8,.1,18.9,.1,17.8L0,20.9C0,20.9,.1,22.5,1.7,23.6L20.7,36.8C20.7,36.8,23.9,38.9,28.2,37.2L77.9,5.5C77.9,5.5,79.5,4.7,79.7,3.2L79.8,0z"/>
            <path fill="#ffffff" transform="translate(9.47,41.16)" id="shape4" d="M1,.1L4.4,2.4C4.4,2.4,5.5,3.3,4.4,3.9C4.4,3.9,4.1,4,3.4,3.6L.3,1.4C.3,1.4,-0.5,.7,.4,.1C.4,.1,.7,-0.1,1,.1z"/>
            <path fill="#ffffff" transform="translate(1.17,35.05)" id="shape5" d="M.1,1.5C-0.1,.8,.1,.2,.6,0C1.2,-0.1,1.7,.3,1.9,1C2.1,1.7,1.9,2.4,1.3,2.6C.8,2.7,.2,2.2,.1,1.5z"/>
            <path fill="url(#lg2)" transform="translate(0.07,12.51)" id="shape6" d="M30.2,34.6L77.4,4.6C77.4,4.6,81.6,2.4,78.6,0C78.6,0,80.6,2.2,77,4.1L29.9,33.9C29.9,33.9,25.2,36.7,21.7,34.8L1.8,20.9C1.8,20.9,-0.8,19.3,1.3,17.3C1.3,17.3,-1.6,19.2,1.3,21.6L21.4,35.6C21.4,35.6,24.6,37.8,30.2,34.6z"/>
            <path fill="#ffffff" transform="translate(61.94,7.52)" id="shape7" d="M.6,0L5,2.7C5,2.7,5.4,3.3,4.5,3.2L.1,.5C.1,.5,-0.3,-0.2,.6,0z"/>
            <path fill="#ffffff" transform="translate(59.88,6.03)" id="shape8" d="M0,.4C0,.2,.3,-0,.6,-0C.9,-0,1.2,.2,1.2,.4C1.2,.6,.9,.8,.6,.8C.3,.8,0,.6,0,.4z"/>
            <path fill="#ffffff" transform="translate(65.75,7.07)" id="shape9" d="M-0,.5C-0,.2,.4,-0,.9,-0C1.4,-0,1.8,.2,1.8,.5C1.8,.8,1.4,1,.9,1C.4,1,-0,.8,-0,.5z"/>
            <path fill="url(#lg3)" transform="translate(12.96,35.49)" id="shape10" d="M0,2.6C0,1.2,1.4,0,3.2,0C5,0,6.4,1.2,6.4,2.6C6.4,4,5,5.2,3.2,5.2C1.4,5.2,0,4,0,2.6z"/>
            <path fill="#d0d0d0" transform="translate(14.78,36.6)" id="shape11" d="M1.7,0L3,1C3,1,3.3,1.3,2.9,1.6C2.4,2,1.9,2.3,1.9,2.3C1.9,2.3,1.5,2.5,1.1,2.2C.7,1.9,.1,1.5,.1,1.5C.1,1.5,-0.3,1.2,.3,.7C1,.2,1.4,-0.1,1.7,0z"/>
            <path fill="#2362a2" transform="translate(15.2,36.93)" stroke="#2362a2" id="shape12" d="M1.2,0C2.2,.7,2.4,.9,2.1,1.1C1.7,1.4,1.4,1.7,1.4,1.7C1.4,1.7,1.1,1.8,.8,1.6C.5,1.4,.1,1.1,.1,1.1C.1,1.1,-0.2,.9,.2,.5C.8,.2,1,-0.1,1.2,0z"/>
            <path fill="#ffffff" transform="translate(15.32,44.99)" id="shape13" d="M.2,0L5,3.4L4.8,4.7L0,1.2L.2,0z"/>
            <path fill="#ffffff" transform="translate(3.65,36.71)" id="shape14" d="M.2,0L5,3.4L4.8,4.7L0,1.2L.2,0z"/>
            <path fill="#ffffff" transform="translate(9.64,41.34)" id="shape15" d="M.9,.1L4.2,2.4C4.2,2.4,5.1,3.1,4.1,3.6C4.1,3.6,3.8,3.7,3.2,3.3L.3,1.2C.3,1.2,-0.4,.5,.3,0C.3,0,.6,-0.1,.9,.1z"/>
            <path fill="#ffffff" transform="matrix(0.98,-0.17,0.17,0.98,1.8,35.3)" id="shape16" d="M.1,1.2C-0,.7,-0,.1,.2,0C.5,-0.1,1,.3,1.1,.9C1.2,1.4,.9,2,.7,2.1C.6,2.1,.2,1.8,.1,1.2z"/>
            <path fill="#ffffff" transform="translate(9.72,41.35)" id="shape17" d="M.2,0C.2,0,.4,-0.1,.8,.1C1.2,.3,4.1,2.4,4.1,2.4C4.1,2.4,4.6,2.8,4.5,3.2L0,.3C0,.3,.1,.1,.2,0z"/>
            <path fill="url(#lg4)" transform="translate(31.03,0)" id="shape18" d="M21.7,.6C21.7,.6,25.2,-0.9,28,.8L47.6,12.5C47.6,12.5,49.5,15.2,45.7,17L0,45.8L21.7,.6z"/>
            <path fill="#c8c8c8" transform="translate(74.41,18.66)" id="shape19" d="M0,.4L.7,2.8L0,.4z"/>
        </g>
        <g transform="translate(315.59,422.02)">
            <path fill="url(#lg5)" id="shape20" d="M17,0C17,0,13.9,-0.2,12.9,3.4C12.4,5.3,19.2,16.2,16.6,25.3C13.3,36.8,.5,46.8,.5,46.8C.5,46.8,-1.1,50.4,1.5,51.8C3.2,52.7,68.5,66.8,68.5,66.8C68.5,66.8,71.5,68,72.5,64.2C73.5,60.5,86,10.1,86.8,8.3C87.2,6.5,84.9,3.4,81.2,3.4C77.5,3.4,17,0,17,0z"/>
            <path fill="url(#lg6)" transform="translate(0.02,0.51)" id="shape21" d="M17,0C17,0,13.8,-0.4,12.7,3.3C11.5,7.7,.2,47.7,.2,47.7C.2,47.7,-0.8,50.3,1.6,50.8C3.5,51.3,66.1,64.7,66.1,64.7C66.1,64.7,69.3,66,70.3,62.1C71.3,58.2,84.2,6.8,84.2,6.8C84.2,6.8,84.8,3.9,81.3,3.6C77.5,3.2,17,0,17,0z"/>
            <path fill="url(#lg7)" transform="translate(0.02,1.18)" id="shape22" d="M16.7,0C16.7,0,13.5,-0.4,12.5,3.1C11.3,7.4,.2,46.6,.2,46.6C.2,46.6,-0.8,49.1,1.5,49.6C3.4,50.1,65.1,63.1,65.1,63.1C65.1,63.1,68.2,64.3,69.1,60.5C70.1,56.8,82.8,6.6,82.8,6.6C82.8,6.6,83.8,3.9,80,3.4C76.4,3,16.7,0,16.7,0z"/>
            <path fill="url(#lg8)" transform="translate(6.14,6.31)" id="shape23" d="M10.1,.8C9.7,1.7,.1,36.6,.1,36.6C.1,36.6,-0.3,38,.6,38.3C1.6,38.6,57.4,48.9,57.4,48.9C57.4,48.9,58.6,49.2,59,47.4C59.4,45.6,69.5,5.6,69.5,5.6C69.5,5.6,70,4,68.5,3.9C67.3,3.8,11.8,0,11.8,0C11.8,0,10.4,-0.2,10.1,.8z"/>
            <path fill="#2362a2" transform="translate(73.06,49.25)" id="shape24" d="M3.1,.7C3.1,.7,1.9,-0.7,1.4,.4C.7,1.6,-0.2,6.1,0,6.6C.2,7.1,1.5,6.7,1.5,6.7L3.1,.7z"/>
            <path fill="#ffffff" transform="translate(73.36,49.66)" id="shape25" d="M2.7,.8C2.7,.8,1.9,-0.6,1.4,.3C.9,1.1,-0.1,5.3,0,5.9C.1,6.5,1.4,5.9,1.4,5.9L2.7,.8z"/>
            <path fill="#2362a2" transform="translate(75.5,39.96)" id="shape26" d="M0,5.4L1.5,0L3,.6L1.7,5.8L0,5.4z"/>
            <path fill="#ffffff" transform="translate(75.89,40.4)" id="shape27" d="M2.5,.5L1.3,0L0,4.6L1.3,5L2.5,.5z"/>
            <path fill="url(#lg9)" transform="translate(84.23,10.02)" id="shape28" d="M0,.2C.1,0,.4,-0.1,.6,0C1.5,.6,1.6,.8,1.5,1C1.4,1.2,1.1,1.3,.9,1.1C-0,.6,-0.1,.4,0,.2z"/>
            <path fill="url(#lg9)" transform="translate(83.83,11.2)" id="shape29" d="M0,.2C.1,0,.4,-0.1,.6,0C1.5,.6,1.6,.8,1.5,1C1.4,1.2,1.1,1.3,.9,1.1C-0,.6,-0.1,.4,0,.2z"/>
            <path fill="url(#lg9)" transform="translate(83.63,12.49)" id="shape30" d="M0,.2C.1,0,.4,-0.1,.6,0C1.5,.6,1.6,.8,1.5,1C1.4,1.2,1.1,1.3,.9,1.1C-0,.6,-0.1,.4,0,.2z"/>
            <path fill="url(#lg9)" transform="translate(83.24,13.85)" id="shape31" d="M0,.2C.1,0,.4,-0.1,.6,0C1.5,.6,1.6,.8,1.5,1C1.4,1.2,1.1,1.3,.9,1.1C-0,.6,-0.1,.4,0,.2z"/>
            <path fill="url(#lg9)" transform="translate(82.88,15.02)" id="shape32" d="M0,.2C.1,0,.4,-0.1,.6,0C1.5,.6,1.6,.8,1.5,1C1.4,1.2,1.1,1.3,.9,1.1C-0,.6,-0.1,.4,0,.2z"/>
            <path fill="url(#lg9)" transform="translate(82.55,16.3)" id="shape33" d="M0,.2C.1,0,.4,-0.1,.6,0C1.5,.6,1.6,.8,1.5,1C1.4,1.2,1.1,1.3,.9,1.1C-0,.6,-0.1,.4,0,.2z"/>
            <path fill="url(#lg9)" transform="translate(82.32,17.59)" id="shape34" d="M0,.2C.1,0,.4,-0.1,.6,0C1.5,.6,1.6,.8,1.5,1C1.4,1.2,1.1,1.3,.9,1.1C-0,.6,-0.1,.4,0,.2z"/>
            <path fill="url(#lg9)" transform="translate(81.96,18.79)" id="shape35" d="M0,.2C.1,0,.4,-0.1,.6,0C1.5,.6,1.6,.8,1.5,1C1.4,1.2,1.1,1.3,.9,1.1C-0,.6,-0.1,.4,0,.2z"/>
            <path fill="url(#lg9)" transform="translate(81.72,19.95)" id="shape36" d="M0,.2C.1,0,.4,-0.1,.6,0C1.5,.6,1.6,.8,1.5,1C1.4,1.2,1.1,1.3,.9,1.1C-0,.6,-0.1,.4,0,.2z"/>
            <path fill="url(#lg9)" transform="translate(81.37,21.15)" id="shape37" d="M0,.2C.1,0,.4,-0.1,.6,0C1.5,.6,1.6,.8,1.5,1C1.4,1.2,1.1,1.3,.9,1.1C-0,.6,-0.1,.4,0,.2z"/>
            <path fill="url(#lg9)" transform="translate(80.97,22.47)" id="shape38" d="M0,.2C.1,0,.4,-0.1,.6,0C1.5,.6,1.6,.8,1.5,1C1.4,1.2,1.1,1.3,.9,1.1C-0,.6,-0.1,.4,0,.2z"/>
            <path fill="url(#lg10)" transform="translate(0.13,1.14)" id="shape39" d="M16.7,0C16.7,0,13.5,-0.3,12.5,3.2C11.3,7.5,.2,46.7,.2,46.7C.2,46.7,-0.8,49.1,1.5,49.7C2.3,49.9,27.9,55.3,27.9,55.3L54.1,2L16.7,0z"/>
        </g>
        <g transform="translate(573.07,182.91)">
            <path fill="#2362a2" transform="matrix(-1,0,0,1,112.9,59.5)" stroke="#2362a2" id="shape40" d="M0,.1L0,8.3C0,8.3,-0.1,10.1,1.1,11.5C2.4,13,21.5,31.6,21.5,31.6C21.5,31.6,21,20.2,18.4,16C15.8,11.8,.6,2.4,.8,1C1.1,-0.4,.2,.1,0,.1z"/>
            <path fill="#2362a2" transform="matrix(-1,0,0,1,110,2.6)" stroke="#2362a2" id="shape41" d="M0,2.5C-0.2,-0.9,3.8,-0.8,3.8,2.6C3.8,6.6,7.3,56.5,7.3,56.5L1,57.1C1,57.1,.1,4.1,0,2.5z"/>
            <path fill="#2362a2" transform="translate(40.62,0)" stroke="#2362a2" id="shape42" d="M1.1,2.5C1,-0.9,4.9,-0.8,4.9,2.6C4.9,6.6,5.8,57.1,5.8,57.1L0,57.6C0,57.6,1.2,4.1,1.1,2.5z"/>
            <path fill="#2362a2" transform="matrix(-1,0,0,1,112.9,49.6)" stroke="#2362a2" id="shape43" d="M7.2,8.6C7.2,8.6,2.7,8.7,.8,9.2C-0.8,9.8,.3,10.8,1.5,13.8C2,14.1,17.7,28.8,17.7,28.8C17.7,28.8,19.6,29.8,20.6,39.7C20.6,39.7,21.7,43.5,25.9,43.5C29.8,43.4,110.7,27.6,110.7,27.6C110.7,27.6,113.1,26.5,112.9,21C112.5,15.4,108.8,13.8,108.8,13.8L82.6,1.8L78.4,0L9.3,9.3L7.2,8.6z"/>
            <path fill="#ffffff" transform="matrix(-1,0,0,1,112.4,50.1)" stroke="#2362a2" id="shape44" d="M7,8.3C7,8.3,2.9,8.5,.9,8.7C-0.7,9,0,10.1,1.4,13.1C2,13.4,17.8,28,17.8,28C17.8,28,20,28.7,20.8,38.6C20.8,38.6,21.7,42.4,25.9,42.3C29.7,42.3,109,26.9,109,26.9C109,26.9,112.1,26.4,111.9,20.8C111.7,15.2,108.4,13.5,108.4,13.5L81.5,1.7L77.4,0L9.6,9.1L7,8.3z"/>
            <path fill="#000000" transform="matrix(-1,0,0,1,108.8,58.3)" id="shape45" fill-opacity="0.25" d="M2.4,0L.6,.2C.6,.2,-0.7,1.7,.5,2.8C1.7,4,15.6,15.8,15.6,15.8C15.6,15.8,17,17.1,17.9,21.5C18.9,26.4,19.4,29.6,19.4,29.6C19.4,29.6,19.6,32.8,23.2,32.9C26.8,33.1,31.9,31.5,31.9,31.5L23.1,30C23.1,30,18.9,19.2,18.9,18.9C18.9,18.7,15.9,9.8,15.6,9.3C15.3,8.8,4.5,2.7,4.4,2.7C4.3,2.7,2.2,.7,2.4,0z"/>
            <path fill="url(#lg11)" transform="matrix(-1,0,0,1,108.3,49)" stroke="#2362a2" id="shape46" d="M1.7,9.2L71.6,.3C71.6,.3,73.9,-0.1,74.8,0C75.7,.1,76.4,.5,78.6,1.5C85.5,4.4,100.2,10.8,102.8,12.8C105.6,15,108,26.4,102.6,27.7C98.6,28.7,26.1,41.9,26.1,41.9C26.1,41.9,20.8,43.2,19.5,38.8C19.5,38.8,17.9,27,15.9,25.1C14,23.2,.4,11.9,.4,11.9C.4,11.9,-1.1,9.6,1.7,9.2z"/>
            <path fill="#ffffff" transform="matrix(-1,0,0,1,88.1,62.8)" id="shape47" fill-opacity="0.42" d="M1,12.6L80.5,.1C81,-0,81.6,.2,81.6,.5C81.6,.5,81.8,1,81.1,1.1L1.2,13.8C.6,13.8,.1,13.8,0,13.3C0,12.8,.5,12.7,1,12.6z"/>
            <path fill="#2362a2" transform="matrix(-1,0,0,1,108.3,49.1)" stroke="#2362a2" id="shape48" d="M1.7,9.2L71.6,.3C71.6,.3,73.9,-0.1,74.8,0C75.7,.1,76.4,.5,78.6,1.5C85.5,4.4,100.2,10.8,102.8,12.8C105.6,15,108,26.4,102.6,27.7C98.6,28.7,26.1,41.9,26.1,41.9C26.1,41.9,20.8,43.2,19.5,38.8C19.5,38.8,17.9,27,15.9,25.1C14,23.2,.4,11.9,.4,11.9C.4,11.9,-1.1,9.6,1.7,9.2z"/>
            <path fill="#ffffff" transform="matrix(-1,0,0,1,88.2,62.4)" stroke="#ffffff" id="shape49" d="M1,12.6L80.5,.1C81,-0,81.6,.2,81.6,.5C81.6,.5,81.8,1,81.1,1.1L1.2,13.8C.6,13.8,.1,13.8,0,13.3C0,12.8,.5,12.7,1,12.6z"/>
            <path fill="#2362a2" transform="matrix(-1,0,0,1,57.1,69.9)" id="shape50" d="M0,.3L.3,1.4L2.3,1.1L2.1,0L0,.3z"/>
            <path fill="url(#lg12)" transform="matrix(-1,0,0,1,57.1,70)" id="shape51" d="M0,.3L2.2,.9L0,.3z"/>
            <path fill="url(#lg13)" transform="matrix(-1,0,0,1,57.1,70)" id="shape52" d="M0,.3L2.2,.9L0,.3z"/>
            <path fill="#008039" transform="matrix(-1,0,0,1,50.7,68.9)" id="shape53" d="M0,.3L.3,1.4L2.3,1.1L2.1,0L0,.3z"/>
            <path fill="url(#lg12)" transform="matrix(-1,0,0,1,50.6,69)" id="shape54" d="M0,.3L2.2,.9L0,.3z"/>
            <path fill="#2362a2" transform="matrix(-1,0,0,1,50.6,69)" id="shape55" d="M0,.3L2.2,.9L0,.3z"/>
            <path fill="#008039" transform="matrix(-1,0,0,1,44.4,67.9)" id="shape56" d="M0,.3L.3,1.4L2.3,1.1L2.1,0L0,.3z"/>
            <path fill="url(#lg12)" transform="matrix(-1,0,0,1,44.3,68)" id="shape57" d="M0,.3L2.2,.9L0,.3z"/>
            <path fill="#2362a2" transform="matrix(-1,0,0,1,44.3,68)" id="shape58" d="M0,.3L2.2,.9L0,.3z"/>
            <path fill="#008039" transform="matrix(-1,0,0,1,38.2,66.9)" id="shape59" d="M0,.3L.3,1.4L2.3,1.1L2.1,0L0,.3z"/>
            <path fill="url(#lg12)" transform="matrix(-1,0,0,1,38.1,67)" id="shape60" d="M0,.3L2.2,.9L0,.3z"/>
            <path fill="#2362a2" transform="matrix(-1,0,0,1,38.1,67)" id="shape61" d="M0,.3L2.2,.9L0,.3z"/>
        </g>
        <g transform="translate(305.59,243)">
            <g transform="translate(15.12,61.53)">
                <path fill="#2362a2" transform="translate(0.1,1.47)" id="shape62" d="M-0.1,6.8C1.5,.6,11.9,-1.5,22.8,1.3C33.6,4.2,41,11.5,39.4,17.7C37.8,23.9,27.7,26.6,16.9,23.7C6.1,20.8,-0.7,13.4,-0.1,6.8z"/>
                <path fill="#2362a2" transform="translate(0.03,-0.01)" id="shape63" d="M.2,7.1C1.8,.9,11.9,-1.7,22.7,1.2C33.5,4,41,11.4,39.4,17.5C37.7,23.7,27.7,26.4,16.9,23.5C6,20.6,-1.4,13.3,.2,7.1z"/>
                <path fill="#2362a2" transform="translate(0.03,-0.01)" id="shape64" d="M.2,7.1C1.8,.9,11.9,-1.7,22.7,1.2C33.5,4,41,11.4,39.4,17.5C37.7,23.7,27.7,26.4,16.9,23.5C6,20.6,-1.4,13.3,.2,7.1z"/>
                <path fill="#2362a2" transform="translate(0.03,-0.01)" id="shape65" d="M.2,7.1C1.8,.9,11.9,-1.7,22.7,1.2C33.5,4,41,11.4,39.4,17.5C37.7,23.7,27.7,26.4,16.9,23.5C6,20.6,-1.4,13.3,.2,7.1z"/>
                <path fill="#2362a2" transform="translate(6.61,16.88)" id="shape66" d="M-0.5,2.1C5.6,6.7,13.7,8.8,22.5,7.8C32,6.7,33.3,.5,33.3,.5C33.3,.5,33.4,7.4,20.6,8.5C13,9.2,4,6.3,-0.5,2.1z"/>
                <path fill="#2362a2" transform="translate(17.19,5.51)" id="shape67" d="M-0.3,.8C3.5,3.1,-2.3,9.8,6.8,5.8C15.8,1.8,5.2,1.3,5.2,1.3L-0.3,.8z"/>
            </g>
            <path fill="#2362a2" transform="translate(0.07,0.02)" id="shape68" d="M0,2.1L2,49.2C2,49.2,1.7,51.5,3.6,52.6C5.8,53.8,75.4,88.6,75.4,88.6C75.4,88.6,78.9,88.7,79.1,86.1C79.1,85.3,79.1,31.5,79.1,31.5C79.1,31.5,78.7,29.7,77.4,28.7C75.8,27.5,10.5,2.9,4.1,.2C2.4,-0.5,.4,.7,0,2.1z"/>
            <path fill="#2362a2" transform="translate(0.02,1.18)" id="shape69" d="M.1,.9L0,50.6C0,50.6,-0.3,53,1.7,54.1C3.8,55.3,75.5,87.5,75.5,87.5C75.5,87.5,77.2,87.5,77.2,85.8C77.2,85,77.2,31.5,77.2,31.5C77.2,31.5,77.2,30,76,29.1C74.4,27.8,2.3,.1,2.3,.1C2.3,.1,.5,-0.5,.1,.9z"/>
            <path fill="#ffffff" transform="translate(2.55,4.62)" id="shape70" d="M.2,.7L0,46C0,46,-0.2,48,1.5,48.9C3.3,49.9,70.4,79.9,70.4,79.9C70.4,79.9,71.9,79.9,71.9,78.5C71.9,77.8,72.1,29.4,72.1,29.4C72.1,29.4,72.1,28.1,71,27.3C69.7,26.3,2,.1,2,.1C2,.1,.5,-0.4,.2,.7z"/>
            <path fill="#2362a2" transform="translate(64.04,6.52)" id="shape71" d="M0,22.5C-0.2,22.1,.9,21.5,.9,21.5C.9,21.5,50.4,-0.2,51,0C51.5,.3,69.3,3.4,71.5,4.2C72.2,4.8,20,38,20,38C20,38,.3,23,0,22.5z"/>
            <path fill="#2362a2" transform="translate(82.35,10.68)" id="shape72" d="M0,103.3L53.7,74.2L53.7,.7L0,25L0,103.3z"/>
            <path fill="#2362a2" transform="translate(79.01,9.95)" id="shape73" d="M0,24.3C2.3,25.2,3.5,25.6,3.5,26.8C3.5,28,3.2,30.7,3.2,30.7L56.9,2.2C56.9,2.2,57.2,1.1,56.7,.7C56.4,.4,53.2,0,53.2,0L0,24.3z"/>
            <path fill="#ffffff" transform="translate(63.83,28.3)" stroke="#2362a2" id="shape74" d="M1.1,0L18.2,6.7C18.9,6.9,19.2,7.5,19.3,7.8L19.3,84.7C19.3,85.4,18.8,85.7,18.2,85.7L1.1,76.2C.3,75.7,.1,75.5,0,75.1L0,1.1C0,.4,.5,0,1.1,0z"/>
            <path fill="#2362a2" transform="translate(64.65,30.15)" stroke="#2362a2" id="shape75" d="M.4,0L16.3,6.1C16.8,6.2,17.1,6.8,17.2,7.1L17.2,80C17.1,81.6,16.8,81.6,16.2,81.6L1,73.1C.2,72.7,.1,72.5,0,72.1L0,1C0,.4,-0.1,0,.4,0z"/>
            <path fill="#ffffff" transform="translate(72.87,33.35)" id="shape76" d="M.1,0L0,37.7L8.9,42L8.9,3.7C8.9,3.7,8.8,3.2,8.1,2.9C7,2.4,.1,0,.1,0z"/>
            <path fill="#ffffff" transform="matrix(-1,0,0,1,72.4,30.4)" id="shape77" d="M0,2.8L0,40.5L7.4,37.1L7.4,0L0,2.8z"/>
            <path fill="#ffffff" transform="translate(70,80.43)" id="shape78" d="M-0,3.2C-0,1.4,1.2,-0,2.7,-0C4.2,-0,5.4,1.4,5.4,3.2C5.4,4.9,4.2,6.3,2.7,6.3C1.2,6.3,-0,4.9,-0,3.2z"/>
            <path fill="#000000" transform="translate(70.44,80.95)" id="shape79" d="M-0,2.6C-0,1.2,1,-0,2.2,-0C3.5,-0,4.5,1.2,4.5,2.6C4.5,4.1,3.5,5.3,2.2,5.3C1,5.3,-0,4.1,-0,2.6z"/>
            <path fill="#ffffff" transform="translate(70.44,80.95)" id="shape80" d="M-0,2.6C-0,1.2,1,-0,2.2,-0C3.5,-0,4.5,1.2,4.5,2.6C4.5,4.1,3.5,5.3,2.2,5.3C1,5.3,-0,4.1,-0,2.6z"/>
            <path fill="#ffffff" transform="translate(71.41,88.78)" id="shape81" d="M-0,1.5C-0,.7,.6,-0,1.3,-0C2,-0,2.6,.7,2.6,1.5C2.6,2.4,2,3,1.3,3C.6,3,-0,2.4,-0,1.5z"/>
            <path fill="#000000" transform="translate(71.62,89.03)" id="shape82" d="M-0,1.3C-0,.6,.5,-0,1.1,-0C1.7,-0,2.2,.6,2.2,1.3C2.2,2,1.7,2.5,1.1,2.5C.5,2.5,-0,2,-0,1.3z"/>
            <path fill="#ffffff" transform="translate(71.62,89.03)" id="shape83" d="M-0,1.3C-0,.6,.5,-0,1.1,-0C1.7,-0,2.2,.6,2.2,1.3C2.2,2,1.7,2.5,1.1,2.5C.5,2.5,-0,2,-0,1.3z"/>
            <path fill="url(#lg14)" transform="translate(65.06,30.25)" id="shape84" d="M11.8,4.3L0,34.2L0,.3C0,.3,-0.3,-0.3,1.1,.1C2.5,.6,11.8,4.3,11.8,4.3z"/>
            <path fill="#272727" transform="translate(64.95,67.51)" id="shape85" d="M0,0L16.8,8.4L0,0z"/>
        </g>
        <g transform="translate(549.59,401)">
            <path fill="#2362a2" transform="translate(0.05,80.17)" id="shape86" d="M123.8,2.4L123.8,5.6C123.8,5.6,90.6,26.5,87.6,27.9C85.3,28.9,83.1,29,80.6,28.7C78.1,28.3,1.4,2.8,.5,2C-0.3,1.2,.1,0,.1,0L110.7,8.1L123.8,2.4z"/>
            <path fill="#2362a2" transform="translate(44.31,0.03)" id="shape87" d="M17,0C15.2,-0.3,13.6,1.7,13.4,3.7C13.2,5.3,.2,55.8,.2,55.8C.2,55.8,-0.8,58.3,1.8,59.1C4.3,59.9,79.3,80.8,79.3,80.8C79.3,80.8,81.1,82.1,81.7,79C82.4,75.9,97,19.8,97,19.8C97,19.8,98.1,16.7,93.6,15.8C88.9,14.8,17.9,0,17,0z"/>
            <path fill="url(#lg15)" transform="translate(43.2,0.07)" id="shape88" d="M17.3,0C15.5,-0.3,14,1.7,13.8,3.7C13.6,5.3,.2,55.9,.2,55.9C.2,55.9,-0.8,58.5,1.7,59.3C4.3,60.1,79.6,80.8,79.6,80.8C79.6,80.8,81.4,82.1,82.1,79C82.7,75.9,97.3,19.8,97.3,19.8C97.3,19.8,98.4,16.7,93.9,15.8C89.2,14.8,18.2,0,17.3,0z"/>
            <path fill="url(#lg16)" transform="translate(48,6.41)" id="shape89" d="M13.2,0L0,48L74.4,68.3L87.7,16.9L13.2,0z"/>
            <path fill="url(#lg17)" transform="translate(0.04,59.86)" id="shape90" d="M2.3,19.1C2.3,19.1,-2.4,20.6,1.6,22.2C5.6,23.8,79.1,47.9,79.5,48.1C80,48.4,84.2,49.4,87.8,47.5C92.6,44.9,123.6,23.5,123.6,23.5C123.6,23.5,124.8,21.8,121.4,20.9C118.3,20,44.1,0,44.8,0C44.8,0,41.9,-0.4,38.1,1.6L2.3,19.1z"/>
            <path fill="url(#lg18)" transform="translate(51.29,61.48)" id="shape91" d="M1.5,0C1.5,0,.3,1.4,.2,1.5C0,1.6,-0.4,2,1.1,2.5C2.7,3.1,58,18.3,58,18.3C58,18.3,58.9,18.5,59.7,17.8C60.5,17.1,61.3,16.5,61.3,16.5L1.5,0z"/>
            <path fill="url(#lg19)" transform="matrix(0.99,-0.12,0.12,0.99,16.5,65.9)" id="shape92" d="M26,0L0,8.9L72.3,41.3L96.7,29.2L26,0z"/>
            <path fill="#2362a2" transform="matrix(1,0.01,-0.01,1,40.9,64.4)" id="shape93" d="M0,1.8L3,0L6.7,1.1L3.6,2.9L0,1.8z"/>
            <path fill="#2362a2" transform="matrix(1,0.01,-0.01,1,45.2,65.6)" id="shape94" d="M0,1.8L3,0L6.7,1.1L3.6,2.9L0,1.8z"/>
            <path fill="#2362a2" transform="matrix(1,0.01,-0.01,1,49.8,66.9)" id="shape95" d="M0,1.8L3,0L6.7,1.1L3.6,2.9L0,1.8z"/>
            <path fill="#2362a2" transform="matrix(1,0.01,-0.01,1,54.2,68.2)" id="shape96" d="M0,1.8L3,0L6.7,1.1L3.6,2.9L0,1.8z"/>
            <path fill="#2362a2" transform="matrix(1,0.01,-0.01,1,58.8,69.5)" id="shape97" d="M0,1.8L3,0L6.7,1.1L3.6,2.9L0,1.8z"/>
            <path fill="#2362a2" transform="matrix(1,0.01,-0.01,1,63.5,70.9)" id="shape98" d="M0,1.9L3,0L6.7,1.2L3.6,3L0,1.9z"/>
            <path fill="#2362a2" transform="matrix(1,0.01,-0.01,1,68.3,72.1)" id="shape99" d="M0,2L2.9,0L6.7,1.2L3.6,3L0,2z"/>
            <path fill="#2362a2" transform="matrix(1,0.01,-0.01,1,73.2,73.5)" id="shape100" d="M0,1.8L2.9,0L6.7,1L3.6,2.9L0,1.8z"/>
            <path fill="#2362a2" transform="matrix(1,0.01,-0.01,1,77.7,74.7)" id="shape101" d="M0,2L3.1,0L6.7,1L3.6,2.8L0,2z"/>
            <path fill="#2362a2" transform="matrix(1,0.01,-0.01,1,82.3,75.8)" id="shape102" d="M0,2L3,0L7,1.1L4,3.3L0,2z"/>
            <path fill="#2362a2" transform="matrix(1,0.01,-0.01,1,87.1,77.1)" id="shape103" d="M0,2.1L3,0L7.2,1.3L4.1,3.3L0,2.1z"/>
            <path fill="#2362a2" transform="matrix(1,0.01,-0.01,1,92.3,78.6)" id="shape104" d="M0,2.1L3,0L7.2,1.1L4.2,3.4L0,2.1z"/>
            <path fill="#2362a2" transform="matrix(1,0.01,-0.01,1,97.6,80.1)" id="shape105" d="M0,2.1L3,0L7.5,1.4L4.2,3.4L0,2.1z"/>
            <path fill="#2362a2" transform="matrix(1,0.01,-0.01,1,102.8,81.8)" id="shape106" d="M0,2L3.4,0L7.7,1L4,3.3L0,2z"/>
            <path fill="#2362a2" transform="matrix(1,0.01,-0.01,1,33.2,68.9)" id="shape107" d="M0,1.6L3.1,0L6.8,1.1L3.6,2.9L0,1.6z"/>
            <path fill="#2362a2" transform="matrix(1,0.01,-0.01,1,37.6,70.1)" id="shape108" d="M0,1.8L3.1,0L6.8,1.1L3.6,2.9L0,1.8z"/>
            <path fill="#2362a2" transform="matrix(1,0.01,-0.01,1,42.3,71.4)" id="shape109" d="M0,1.8L3.1,0L6.8,1.1L3.6,2.9L0,1.8z"/>
            <path fill="#2362a2" transform="matrix(1,0.01,-0.01,1,46.7,72.7)" id="shape110" d="M0,1.8L3.1,0L6.8,1.1L3.6,2.9L0,1.8z"/>
            <path fill="#2362a2" transform="matrix(1,0.01,-0.01,1,51.4,73.9)" id="shape111" d="M0,1.8L3.1,0L6.8,1.1L3.6,2.9L0,1.8z"/>
            <path fill="#2362a2" transform="matrix(1,0.01,-0.01,1,56.2,75.3)" id="shape112" d="M0,1.9L3.1,0L6.8,1.2L3.6,3L0,1.9z"/>
            <path fill="#2362a2" transform="matrix(1,0.01,-0.01,1,61.1,76.6)" id="shape113" d="M0,2L2.9,0L6.9,1.2L3.7,3L0,2z"/>
            <path fill="#2362a2" transform="matrix(1,0.01,-0.01,1,66,78)" id="shape114" d="M0,1.8L2.9,0L6.9,1L3.7,2.9L0,1.8z"/>
            <path fill="#2362a2" transform="matrix(1,0.01,-0.01,1,70.6,79.3)" id="shape115" d="M0,2L2.9,0L6.9,1L3.7,3L0,2z"/>
            <path fill="#2362a2" transform="matrix(1,0.01,-0.01,1,75.3,80.6)" id="shape116" d="M0,2L3,0L7,1.3L4.3,3.3L0,2z"/>
            <path fill="#2362a2" transform="matrix(1,0.01,-0.01,1,80.2,82.3)" id="shape117" d="M0,2.1L3,0L7.4,1.3L4.2,3.3L0,2.1z"/>
            <path fill="#2362a2" transform="matrix(1,0.01,-0.01,1,85.4,83.8)" id="shape118" d="M0,2.1L3,0L7.4,1.1L4.3,3.4L0,2.1z"/>
            <path fill="#2362a2" transform="matrix(1,0.01,-0.01,1,90.2,85.3)" id="shape119" d="M0,2.1L3,0L7.2,1.1L4.2,3.2L0,2.1z"/>
            <path fill="#2362a2" transform="matrix(1,0.01,-0.01,1,95.1,86.4)" id="shape120" d="M0,2.4L3.3,0L7.8,1.3L4.1,3.5L0,2.4z"/>
            <path fill="#2362a2" transform="matrix(1,0.01,-0.01,1,37,66.6)" id="shape121" d="M0,1.8L3.1,0L6.8,1.1L3.6,2.9L0,1.8z"/>
            <path fill="#2362a2" transform="matrix(1,0.01,-0.01,1,41.4,67.8)" id="shape122" d="M0,1.8L3.1,0L6.8,1.1L3.6,2.9L0,1.8z"/>
            <path fill="#2362a2" transform="matrix(1,0.01,-0.01,1,46.1,69.1)" id="shape123" d="M0,1.8L3.1,0L6.8,1.1L3.6,2.9L0,1.8z"/>
            <path fill="#2362a2" transform="matrix(1,0.01,-0.01,1,50.5,70.4)" id="shape124" d="M0,1.8L3.1,0L6.8,1.1L3.6,2.9L0,1.8z"/>
            <path fill="#2362a2" transform="matrix(1,0.01,-0.01,1,55.2,71.6)" id="shape125" d="M0,1.8L3.1,0L6.8,1.1L3.6,2.9L0,1.8z"/>
            <path fill="#2362a2" transform="matrix(1,0.01,-0.01,1,60,73)" id="shape126" d="M0,1.9L3.1,0L6.8,1.2L3.6,3L0,1.9z"/>
            <path fill="#2362a2" transform="matrix(1,0.01,-0.01,1,64.9,74.3)" id="shape127" d="M0,2L2.9,0L6.9,1.2L3.7,3L0,2z"/>
            <path fill="#2362a2" transform="matrix(1,0.01,-0.01,1,69.8,75.7)" id="shape128" d="M0,1.8L2.9,0L6.9,1L3.7,2.9L0,1.8z"/>
            <path fill="#2362a2" transform="matrix(1,0.01,-0.01,1,74.4,77)" id="shape129" d="M0,2L2.9,0L6.9,1L3.7,3L0,2z"/>
            <path fill="#2362a2" transform="matrix(1,0.01,-0.01,1,79.2,78.3)" id="shape130" d="M0,2L3,0L7.1,1.1L3.7,3L0,2z"/>
            <path fill="#2362a2" transform="matrix(1,0.01,-0.01,1,84.1,79.6)" id="shape131" d="M0,2.1L3,0L7.4,1.3L4.2,3.3L0,2.1z"/>
            <path fill="#2362a2" transform="matrix(1,0.01,-0.01,1,89,81.1)" id="shape132" d="M0,2.1L3,0L7.2,1.1L4.2,3.4L0,2.1z"/>
            <path fill="#2362a2" transform="matrix(1,0.01,-0.01,1,94,82.6)" id="shape133" d="M0,2.1L3,0L7.4,1.3L4.2,3.4L0,2.1z"/>
            <path fill="#2362a2" transform="matrix(1,0.01,-0.01,1,99,84.1)" id="shape134" d="M0,2.1L3.3,0L7.5,1.2L4.2,3.4L0,2.1z"/>
            <path fill="#2362a2" transform="matrix(1,0.02,-0.02,1,29.2,70.7)" id="shape135" d="M0,1.8L3.1,0L7.1,1.4L3.9,3.1L0,1.8z"/>
            <path fill="#2362a2" transform="matrix(1,0.02,-0.02,1,33.8,72.1)" id="shape136" d="M0,1.8L3.1,0L6.8,1.1L3.6,2.9L0,1.8z"/>
            <path fill="#2362a2" transform="matrix(1,0.02,-0.02,1,38.5,73.5)" id="shape137" d="M0,1.8L3.1,0L6.8,1.1L3.6,2.9L0,1.8z"/>
            <path fill="#2362a2" transform="matrix(1,0.02,-0.02,1,42.9,74.8)" id="shape138" d="M0,1.8L3.1,0L6.8,1.1L3.6,2.9L0,1.8z"/>
            <path fill="#2362a2" transform="matrix(1,0.02,-0.02,1,47.5,76.2)" id="shape139" d="M0,1.8L3.1,0L6.8,1.1L3.6,2.9L0,1.8z"/>
            <path fill="#2362a2" transform="matrix(1,0.02,-0.02,1,52.4,77.6)" id="shape140" d="M0,1.9L3.1,0L6.8,1.2L3.6,3L0,1.9z"/>
            <path fill="#2362a2" transform="matrix(1,0.02,-0.02,1,57.2,78.9)" id="shape141" d="M0,2L2.9,0L6.8,1.2L3.7,3L0,2z"/>
            <path fill="#2362a2" transform="matrix(1,0.02,-0.02,1,62.1,80.4)" id="shape142" d="M0,1.8L2.9,0L6.8,1L3.7,2.9L0,1.8z"/>
            <path fill="#2362a2" transform="matrix(1,0.02,-0.02,1,66.6,81.7)" id="shape143" d="M0,2L2.9,0L6.8,1L3.7,3L0,2z"/>
            <path fill="#2362a2" transform="matrix(1,0.02,-0.02,1,71.4,83.1)" id="shape144" d="M0,2L3,0L7.1,1.1L3.7,3L0,2z"/>
            <path fill="#2362a2" transform="matrix(1,0.02,-0.02,1,76.2,84.4)" id="shape145" d="M0,2.1L3,0L7.3,1.3L4.2,3.3L0,2.1z"/>
            <path fill="#2362a2" transform="matrix(1,0.02,-0.02,1,81.4,86)" id="shape146" d="M0,2.1L3,0L7.5,1.4L4.5,3.4L0,2.1z"/>
            <path fill="#2362a2" transform="matrix(1,0.02,-0.02,1,86.6,87.5)" id="shape147" d="M0,2.1L3,0L7.7,1.3L4.2,3.4L0,2.1z"/>
            <path fill="#2362a2" transform="matrix(1,0.02,-0.02,1,91.2,89.1)" id="shape148" d="M0,2.1L3.5,0L7.8,1.1L4.3,3.6L0,2.1z"/>
            <path fill="#2362a2" transform="matrix(1,0.02,-0.02,1,25.1,72.7)" id="shape149" d="M0,1.8L3.1,0L7.5,1.4L4.7,3.1L0,1.8z"/>
            <path fill="#2362a2" transform="matrix(1,0.02,-0.02,1,30.1,74.4)" id="shape150" d="M0,1.8L3.1,0L6.8,1.1L3.6,2.9L0,1.8z"/>
            <path fill="#2362a2" transform="matrix(1,0.02,-0.02,1,34.7,75.8)" id="shape151" d="M0,1.8L3.1,0L6.8,1.1L3.6,2.9L0,1.8z"/>
            <path fill="#2362a2" transform="matrix(1,0.02,-0.02,1,39.1,77.1)" id="shape152" d="M0,1.8L3.1,0L6.8,1.1L3.6,2.9L0,1.8z"/>
            <path fill="#2362a2" transform="matrix(1,0.02,-0.02,1,43.8,78.3)" id="shape153" d="M0,1.9L3.2,0L26,6.3L22.9,8.3L0,1.9z"/>
            <path fill="#2362a2" transform="matrix(1,0.02,-0.02,1,67.6,85.4)" id="shape154" d="M0,2L3,0L7.1,1.1L3.7,3L0,2z"/>
            <path fill="#2362a2" transform="matrix(1,0.02,-0.02,1,72.5,86.7)" id="shape155" d="M0,2.1L3,0L7.3,1.3L4.2,3.3L0,2.1z"/>
            <path fill="#2362a2" transform="matrix(1,0.02,-0.02,1,77.6,88.3)" id="shape156" d="M0,2.1L3,0L7.3,1.1L4.3,3.4L0,2.1z"/>
            <path fill="#2362a2" transform="matrix(1,0.02,-0.02,1,82.8,89.8)" id="shape157" d="M0,2.1L3,0L7.5,1.2L4.2,3.4L0,2.1z"/>
            <path fill="#2362a2" transform="matrix(1,0.02,-0.02,1,87.4,91.5)" id="shape158" d="M0,2.1L3.2,0L7.8,1.4L4.5,3.6L0,2.1z"/>
            <path fill="#2362a2" transform="translate(29.97,83.15)" id="shape159" d="M0,5.7C-0.5,5,10,0,10.4,0C10.9,0,29,5.6,30.2,5.9C31.4,6.2,22.4,12.3,21.1,12.7C19.9,13.2,.6,6.4,0,5.7z"/>
            <path fill="#ffffff" transform="translate(31.24,83.71)" id="shape160" d="M0,5C-0.5,4.4,8.8,0,9.2,0C9.7,0,26.6,5.2,27.8,5.5C28.9,5.8,20.9,11.1,19.8,11.6C18.6,12,.5,5.6,0,5z"/>
            <path fill="#ffffff" transform="translate(96.49,11.65)" id="shape161" d="M-0,.5C-0,.2,.3,-0,.6,-0C1,-0,1.2,.2,1.2,.5C1.2,.8,1,1,.6,1C.3,1,-0,.8,-0,.5z"/>
        </g>
        <g transform="matrix(0,-1,1,0,637.7,406)" id="shape162">
            <path fill="#ffffff" fill-opacity="0.2" d="M127,13.3L62.5,19L69.7,2L-2,13.3L62.5,7.7L55.3,24.7L127,13.3z"/>
            <path fill="#2362a2" stroke="#2362a2" d="M129,11.3L64.5,17L71.7,0L0,11.3L64.5,5.7L57.3,22.7L129,11.3z"/>
        </g>
        <g transform="matrix(0.56,-0.83,0.83,0.56,505.6,441.7)" id="shape163">
            <path fill="#ffffff" fill-opacity="0.2" d="M206.4,14.1L102.9,19.8L114.4,2.8L-0.6,14.1L102.9,8.4L91.4,25.5L206.4,14.1z"/>
            <path fill="#2362a2" stroke="#2362a2" d="M206.9,11.3L103.5,17L115,0L0,11.3L103.5,5.7L91.9,22.7L206.9,11.3z"/>
        </g>
        <g transform="matrix(0.85,-0.53,0.53,0.85,360.1,409.4)" id="shape164">
            <path fill="#ffffff" fill-opacity="0.2" d="M280.4,14.1L140.5,19.8L156.1,2.8L.7,14.1L140.5,8.4L125,25.4L280.4,14.1z"/>
            <path fill="#2362a2" stroke="#2362a2" d="M279.7,11.3L139.9,17L155.4,0L0,11.3L139.9,5.7L124.3,22.7L279.7,11.3z"/>
        </g>
        <g transform="translate(644.41,303.5)">
            <path fill="none" transform="matrix(0.71,0.71,-0.71,0.71,0,0)" stroke="#ff0000" id="shape165" stroke-width="8" d="M0,0L26.9,0"/>
            <path fill="none" transform="matrix(0.71,-0.71,0.71,0.71,0,19)" stroke="#ff0000" id="shape166" stroke-width="8" d="M0,0L26.9,0"/>
        </g>
        <g transform="translate(596.07,311.5)">
            <path fill="none" transform="matrix(0.71,0.71,-0.71,0.71,0,0)" stroke="#ff0000" id="shape167" stroke-width="8" d="M0,0L26.9,0"/>
            <path fill="none" transform="matrix(0.71,-0.71,0.71,0.71,0,19)" stroke="#ff0000" id="shape168" stroke-width="8" d="M0,0L26.9,0"/>
        </g>
        <path fill="none" transform="matrix(-0.98,-0.21,0.21,-0.98,602.1,257)" stroke="#2362a2" id="shape169" stroke-width="4" d="M0,0L285.1,0"/>
        <path fill="none" transform="translate(313.59,188.91)" stroke="#ff0000" id="shape170" stroke-width="6.33333" d="M19,19L19,0L0,0L0,19L19,19z"/>
        <path fill="none" transform="matrix(0.69,0.73,-0.73,0.69,323.1,198.4)" stroke="#2362a2" id="shape171" stroke-width="4" d="M0,0L103.2,0"/>
        <g transform="translate(475.57,221.95)">
            <path fill="none" transform="matrix(0.71,0.71,-0.71,0.71,0,0)" stroke="#ff0000" id="shape172" stroke-width="8" d="M0,0L26.9,0"/>
            <path fill="none" transform="matrix(0.71,-0.71,0.71,0.71,0,19)" stroke="#ff0000" id="shape173" stroke-width="8" d="M0,0L26.9,0"/>
        </g>
        <g transform="translate(535.57,303.5)">
            <path fill="none" transform="matrix(0.71,0.71,-0.71,0.71,0,0)" stroke="#ff0000" id="shape174" stroke-width="8" d="M0,0L26.9,0"/>
            <path fill="none" transform="matrix(0.71,-0.71,0.71,0.71,0,19)" stroke="#ff0000" id="shape175" stroke-width="8" d="M0,0L26.9,0"/>
        </g>
        <path fill="none" transform="matrix(0.71,-0.71,0.71,0.71,345.1,250.7)" stroke="#00b050" id="shape176" stroke-width="8" d="M0,0L45.8,0"/>
        <path fill="none" transform="matrix(0.71,0.71,-0.71,0.71,332.5,234.6)" stroke="#00b050" id="shape177" stroke-width="8" d="M0,0L22.6,0"/>
        <g transform="translate(286.07,165)" id="shape178">
            <text class="st1">
                <tspan x="24" y="13.8">NTP</tspan>
            </text>
        </g>
        <g transform="translate(421.83,197)" id="shape179">
            <text class="st1">
                <tspan x="9.5" y="13.8">UTP cable Cat. 5e+</tspan>
            </text>
        </g>
        <g transform="translate(302.07,540.5)">
            <path fill="none" transform="matrix(0.71,0.71,-0.71,0.71,0,0)" stroke="#ff0000" id="shape180" stroke-width="8" d="M0,0L26.9,0"/>
            <path fill="none" transform="matrix(0.71,-0.71,0.71,0.71,0,19)" stroke="#ff0000" id="shape181" stroke-width="8" d="M0,0L26.9,0"/>
        </g>
        <g transform="translate(329.5,541.02)" id="shape182">
            <text class="st1">
                <tspan x="23" y="13.8">Deactivate or not use during NetTest measurement</tspan>
            </text>
        </g>
        <g transform="translate(396.37,0)" id="shape183">
            <path fill="none" stroke="#2362a2" stroke-dasharray="6,4" stroke-width="4" d="M209.7,58L209.7,0L0,0L0,58L209.7,58z"/>
            <text class="st2">
                <tspan class="st3" x="14.4" y="27">Demarcation point 6</tspan>
                <tspan class="st4" x="86.4" y="45">DeP 6</tspan>
            </text>
        </g>
        <path fill="none" transform="translate(276.07,153)" stroke="#2362a2" id="shape184" stroke-dasharray="6,4" stroke-width="4" d="M440,378L440,0L0,0L0,378L440,378z"/>
        <g transform="translate(0,70.95)" id="shape185">
            <path fill="#ffffff" stroke="#2362a2" stroke-linecap="square" d="M25.5,0L226.6,0C240.7,0,252.1,11.4,252.1,25.5L252.1,102L323.1,127.5L252.1,144.5C252.1,158.6,240.7,170,226.6,170L25.5,170C11.4,170,0,158.6,0,144.5L0,25.5C0,11.4,11.4,0,25.5,0z" stroke-width="2.66667"/>
            <text class="st5">
                <tspan class="st6" x="17.4" y="34.3">Network termination point</tspan>
                <tspan x="46.7" y="51.7">access network technology</tspan>
                <tspan x="9.4" y="83.7">- The technology </tspan>
                <tspan class="st7">allows</tspan>
                <tspan> direct </tspan>
                <tspan x="9.4" y="100.3">connection of the end device </tspan>
                <tspan x="9.4" y="116.3">(PC, notebook, atd.)</tspan>
                <tspan x="9.4" y="132.3">- Typical of Ethernet-based technology </tspan>
                <tspan x="9.4" y="148.3">(IEEE 802.3u/ab/ae...)</tspan>
            </text>
        </g>
        <path fill="none" transform="translate(12.07,136)" stroke="#236ea1" id="shape186" stroke-width="1.33333" d="M0,0L222,0"/>
        <g transform="translate(0,354.85)" id="shape187">
            <path fill="#ffffff" stroke="#2362a2" stroke-linecap="square" d="M22.8,0L225.3,0C237.9,0,248.1,10.2,248.1,22.8L359.1,-12.9L248.1,60.9L248.1,129.3C248.1,141.9,237.9,152.2,225.3,152.2L22.8,152.2C10.2,152.2,0,141.9,0,129.3L0,22.8C0,10.2,10.2,0,22.8,0z" stroke-width="2.66667"/>
            <text class="st5">
                <tspan class="st8" x="68" y="42.7">End device</tspan>
                <tspan class="st9" x="23.4" y="60.7">suitable</tspan>
                <tspan> for NetTest measurement</tspan>
                <tspan x="9.4" y="93.4">- </tspan>
                <tspan class="st7">Allows</tspan>
                <tspan> connection to the network </tspan>
                <tspan x="9.4" y="110.1">termination point using copper (optical) </tspan>
                <tspan x="9.4" y="126.1">cable (eg UTP cable Cat. 5e+)</tspan>
            </text>
        </g>
        <g transform="translate(54,294.5)" id="shape188">
            <path fill="none" stroke="#00b050" stroke-width="6.33333" d="M126.1,44.5C132.7,44.5,138.1,39.1,138.1,32.5L138.1,12C138.1,5.4,132.7,0,126.1,0L12,0C5.4,0,0,5.4,0,12L0,32.5C0,39.1,5.4,44.5,12,44.5L126.1,44.5z"/>
            <text class="st10">
                <tspan x="41.4" y="29.6">PASS</tspan>
            </text>
        </g>
        <g transform="translate(753.07,291.93)" id="shape189">
            <path fill="#ffffff" stroke="#2362a2" stroke-linecap="square" d="M22.8,0L227.2,0C239.8,0,250,10.2,250,22.8L250,129.3C250,141.9,239.8,152.2,227.2,152.2L22.8,152.2C10.2,152.2,0,141.9,0,129.3L-67.1,173.1L0,91.3L0,22.8C0,10.2,10.2,0,22.8,0z" stroke-width="2.66667"/>
            <text class="st5">
                <tspan class="st8" x="69.3" y="42.7">End device</tspan>
                <tspan class="st11" x="16.7" y="60.7">unsuitable</tspan>
                <tspan> for NetTest measurement</tspan>
                <tspan x="9.3" y="93.4">- </tspan>
                <tspan class="st7">Doesn't</tspan>
                <tspan> </tspan>
                <tspan class="st7">allow</tspan>
                <tspan> connection to the </tspan>
                <tspan x="9.3" y="110.1">network termination point using copper </tspan>
                <tspan x="9.3" y="126.1">(optical) cable (eg only via Wi-Fi)</tspan>
            </text>
        </g>
        <g transform="translate(807.04,462.5)" id="shape190">
            <path fill="none" stroke="#ff0000" stroke-width="6.33333" d="M126.1,44.5C132.7,44.5,138.1,39.1,138.1,32.5L138.1,12C138.1,5.4,132.7,0,126.1,0L12,0C5.4,0,0,5.4,0,12L0,32.5C0,39.1,5.4,44.5,12,44.5L126.1,44.5z"/>
            <text class="st12">
                <tspan x="46" y="29.6">FAIL</tspan>
            </text>
        </g>
        <g transform="translate(753.07,80.65)" id="shape191">
            <path fill="#ffffff" stroke="#2362a2" stroke-linecap="square" d="M25.5,0L224.5,0C238.6,0,250,11.4,250,25.5L250,144.5C250,158.6,238.6,170,224.5,170L25.5,170C11.4,170,0,158.6,0,144.5L-67.1,166.3L0,102L0,25.5C0,11.4,11.4,0,25.5,0z" stroke-width="2.66667"/>
            <text class="st5">
                <tspan class="st13" x="75.3" y="43">End device</tspan>
                <tspan x="20" y="61">in the form an active network device</tspan>
                <tspan x="9.3" y="93">- Ensures the creation of a local (home) </tspan>
                <tspan x="9.3" y="109">user network (LAN)</tspan>
                <tspan x="9.3" y="125">- Typical design: router, switch or most </tspan>
                <tspan x="9.3" y="141">often Wi-Fi router</tspan>
            </text>
        </g>
        <path fill="none" transform="translate(11.07,426)" stroke="#236ea1" id="shape192" stroke-width="1.33333" d="M0,0L222,0"/>
        <path fill="none" transform="translate(767.07,364)" stroke="#236ea1" id="shape193" stroke-width="1.33333" d="M0,0L222,0"/>
        <path fill="none" transform="translate(766.07,154)" stroke="#236ea1" id="shape194" stroke-width="1.33333" d="M0,0L222,0"/>
        <g transform="translate(433.6,80)">
            <path fill="#2362a2" transform="translate(111.91,31.02)" stroke="#2362a2" id="shape195" d="M0,14.6L16,0L16,55.3L0,69.9L0,14.6z"/>
            <path fill="#ffffff" transform="translate(8.1,12.69)" stroke="#ffffff" id="shape196" d="M0,33L45.9,0L104.6,32.9L57.3,34.3L0,33z"/>
            <path fill="#2362a2" transform="translate(0,11.5)" id="shape197" d="M50,1.3L3.4,35.2L0,35.1L47.8,0L50,1.3z"/>
            <path fill="#2362a2" transform="translate(3.39,13.49)" id="shape198" d="M47.4,1.6L4.7,32.2L0,33.2L45.3,0L47.4,1.6z"/>
            <path fill="#2362a2" transform="translate(46.92,11.79)" id="shape199" d="M1.7,0L74.4,36L69.9,36.2L0,1.6L1.7,0z"/>
            <path fill="#2362a2" transform="translate(8.27,45.63)" stroke="#2362a2" id="shape200" d="M0,0L103.8,0L103.8,55.4L0,55.4L0,0z"/>
            <g transform="translate(76.09,52.02)">
                <path fill="#ffffff" id="shape201" d="M0,0L24.3,0L24.3,49L0,49L0,0z"/>
                <path fill="#ffffff" transform="translate(1.68,1.27)" id="shape202" d="M0,0L20.9,0L20.9,47.7L0,47.7L0,0z"/>
                <path fill="#ffffff" transform="translate(1.55,1.27)" id="shape203" d="M0,0L4.3,.1L18.1,47.7L0,47.7L0,0z"/>
                <g transform="translate(2,19.5)">
                    <path fill="#ffffff" transform="translate(-0.01,-0.01)" id="shape204" d="M1.2,0C1.9,0,2.4,.5,2.4,1.2L2.4,6.7C2.4,7.3,1.9,7.9,1.2,7.9C.5,7.9,0,7.3,0,6.7L0,1.2C0,.5,.5,0,1.2,0z"/>
                    <path fill="#ffffff" transform="translate(0.28,0.51)" id="shape205" d="M.9,0C1.4,0,1.9,.5,1.9,1.1L1.9,5.8C1.9,6.4,1.4,6.8,.9,6.8C.4,6.8,0,6.4,0,5.8L0,1.1C0,.5,.4,0,.9,0z"/>
                    <path fill="#ffffff" transform="translate(0.6,5.17)" id="shape206" d="M0,.6C0,.2,.2,-0,.5,-0C.7,-0,1,.2,1,.6C1,.9,.7,1.1,.5,1.1C.2,1.1,0,.9,0,.6z"/>
                    <path fill="#ffffff" transform="translate(0.58,1.96)" id="shape207" d="M-0,.6C-0,.3,.2,-0,.5,-0C.8,-0,1,.3,1,.6C1,.9,.8,1.2,.5,1.2C.2,1.2,-0,.9,-0,.6z"/>
                    <path fill="#ffffff" transform="translate(0.81,2.32)" id="shape208" d="M.3,-0L4,-0C4.2,-0,4.3,.1,4.3,.3C4.3,.5,4.2,.6,4,.6L.3,.6C.1,.6,-0,.5,-0,.3C-0,.1,.1,-0,.3,-0z"/>
                </g>
            </g>
            <path fill="#2362a2" transform="translate(47.76,0)" id="shape209" d="M0,11.5L73.6,47.8L89.8,35.9L19.9,0L0,11.5z"/>
            <path fill="#ffffff" transform="translate(47.76,8.13)" id="shape210" fill-opacity="0.11" d="M0,3.4L73.6,39.7L89.8,27.8L5.9,0L0,3.4z"/>
            <g transform="translate(21.37,52.62)">
                <path fill="#ffffff" transform="translate(0,-0)" id="shape211" d="M0,0L0,18.8L41.2,18.8L41.2,0L0,0z"/>
                <path fill="#595757" transform="translate(20.79,25.33)" id="shape212" d="M0,0L8.7,.8L0,0z"/>
            </g>
        </g>
    </g>
</svg>
