<svg xmlns="http://www.w3.org/2000/svg" viewBox="0 0 2725.37 467.51"><defs><style>.cls-1{fill:#fff;}.cls-2{fill:#ed6c05;}</style></defs><g id="Vrstva_2" data-name="Vrstva 2"><g id="Layer_1" data-name="Layer 1"><path class="cls-1" d="M961,455.51V64.59h55.1l125.28,197.78c29,45.82,51.62,87,70.19,127l1.15-.58c-4.64-52.2-5.8-99.76-5.8-160.66V64.59h47.57V455.51h-51L1079.35,257.15c-27.26-43.5-53.36-88.16-73.08-130.5l-1.74.58c2.9,49.3,4.06,96.28,4.06,161.24v167Z"/><path class="cls-1" d="M1369.35,324.43c1.16,69,45.24,97.44,96.28,97.44,36.54,0,58.58-6.38,77.72-14.5l8.7,36.54c-18,8.12-48.72,17.4-93.38,17.4-86.42,0-138-56.84-138-141.52s49.88-151.38,131.66-151.38c91.64,0,116,80.62,116,132.24a192.51,192.51,0,0,1-1.74,23.78ZM1519,287.89c.58-32.48-13.34-82.94-70.76-82.94-51.62,0-74.24,47.56-78.3,82.94Z"/><path class="cls-1" d="M1693,94.17v80.62h73.08v38.86H1693V365c0,34.8,9.86,54.52,38.28,54.52,13.34,0,23.2-1.74,29.58-3.48l2.32,38.28c-9.86,4.06-25.52,7-45.24,7-23.78,0-42.92-7.54-55.1-21.46-14.5-15.08-19.72-40-19.72-73.08V213.65h-43.5V174.79h43.5V107.51Z"/><path class="cls-2" d="M1899.46,107.51h-118.9V64.59H2070v42.92H1950.5v348h-51Z"/><path class="cls-2" d="M2099,324.43c1.16,69,45.24,97.44,96.28,97.44,36.54,0,58.58-6.38,77.72-14.5l8.7,36.54c-18,8.12-48.72,17.4-93.38,17.4-86.42,0-138-56.84-138-141.52s49.88-151.38,131.66-151.38c91.64,0,116,80.62,116,132.24a192.51,192.51,0,0,1-1.74,23.78Zm149.64-36.54c.58-32.48-13.34-82.94-70.76-82.94-51.62,0-74.24,47.56-78.3,82.94Z"/><path class="cls-2" d="M2354.17,403.31c15.08,9.86,41.76,20.3,67.28,20.3,37.12,0,54.52-18.56,54.52-41.76,0-24.36-14.5-37.7-52.2-51.62-50.46-18-74.24-45.82-74.24-79.46,0-45.24,36.54-82.36,96.86-82.36,28.42,0,53.36,8.12,69,17.4l-12.76,37.12a109.25,109.25,0,0,0-57.42-16.24c-30.16,0-47,17.4-47,38.28,0,23.2,16.82,33.64,53.36,47.56,48.72,18.56,73.66,42.92,73.66,84.68,0,49.3-38.28,84.1-105,84.1-30.74,0-59.16-7.54-78.88-19.14Z"/><path class="cls-2" d="M2652.29,94.17v80.62h73.08v38.86h-73.08V365c0,34.8,9.86,54.52,38.28,54.52,13.34,0,23.2-1.74,29.58-3.48l2.32,38.28c-9.86,4.06-25.52,7-45.24,7-23.78,0-42.92-7.54-55.1-21.46-14.5-15.08-19.72-40-19.72-73.08V213.65h-43.5V174.79h43.5V107.51Z"/><path class="cls-2" d="M595.89,55.1c157.43,66.28,269,220,273.79,400.41H789.47c-22-137.26-110-252.45-230.43-312.06Z"/><path class="cls-1" d="M422.42,20.21a446.72,446.72,0,0,1,148,25.07l-41.19,84.79A422,422,0,0,0,371.49,99.71c-160.18,0-299.57,89-371.49,220.16C61,145.38,227.09,20.21,422.42,20.21Z"/><path class="cls-1" d="M388.83,447.43l20.43-42a24.3,24.3,0,0,1,17.35-35.71L606.2,0,448.74,377.52a24.28,24.28,0,0,1-16.85,40.4l-20.68,49.59Z"/></g></g></svg>
