<?xml version="1.0" encoding="utf-8"?>
<!DOCTYPE svg PUBLIC "-//W3C//DTD SVG 1.1//EN" "http://www.w3.org/Graphics/SVG/1.1/DTD/svg11.dtd">
<svg version="1.1" id="Vrstva_1" xmlns="http://www.w3.org/2000/svg" xmlns:xlink="http://www.w3.org/1999/xlink" x="0px" y="0px"
	 width="595.275px" height="116px" viewBox="0.006 362.446 595.275 116" enable-background="new 0.006 362.446 595.275 116"
	 xml:space="preserve">
<g id="Vrstva_2">
	<g id="Layer_1">
		<path fill="#FFFFFF" stroke="#2362A2" stroke-miterlimit="10" d="M209.903,469.382v-85.386h12.035l27.364,43.198
			c6.334,10.009,11.275,19.003,15.331,27.74l0.251-0.127c-1.014-11.401-1.267-21.79-1.267-35.092v-35.721h10.39v85.386h-11.139
			l-27.115-43.326c-5.954-9.502-11.655-19.257-15.962-28.505l-0.38,0.127c0.634,10.769,0.887,21.03,0.887,35.219v36.477
			L209.903,469.382z"/>
		<path fill="#FFFFFF" stroke="#2362A2" stroke-miterlimit="10" d="M299.095,440.751c0.254,15.07,9.883,21.282,21.031,21.282
			c7.98,0,12.795-1.394,16.975-3.167l1.9,7.98c-3.932,1.772-10.641,3.801-20.396,3.801c-18.875,0-30.143-12.415-30.143-30.911
			c0-18.495,10.896-33.063,28.757-33.063c20.017,0,25.338,17.608,25.338,28.884c-0.02,1.738-0.146,3.473-0.381,5.194H299.095z
			 M331.783,432.769c0.127-7.094-2.914-18.116-15.455-18.116c-11.275,0-16.217,10.39-17.104,18.116H331.783z"/>
		<path fill="#FFFFFF" stroke="#2362A2" stroke-miterlimit="10" d="M369.789,390.457v17.608h15.961v8.487h-15.961v33.059
			c0,7.603,2.152,11.908,8.361,11.908c2.914,0,5.065-0.38,6.461-0.76l0.506,8.36c-2.154,0.888-5.574,1.528-9.881,1.528
			c-5.195,0-9.375-1.646-12.035-4.688c-3.168-3.293-4.308-8.736-4.308-15.963v-33.446h-9.502v-8.487h9.502V393.37L369.789,390.457z"
			/>
		<path fill="#ED6C05" d="M414.884,393.371h-25.971v-9.375h63.219v9.375h-26.1v76.011h-11.142L414.884,393.371z"/>
		<path fill="#ED6C05" d="M458.468,440.751c0.252,15.07,9.881,21.282,21.029,21.282c7.979,0,12.795-1.394,16.975-3.167l1.9,7.98
			c-3.932,1.772-10.641,3.801-20.396,3.801c-18.875,0-30.141-12.415-30.141-30.911c0-18.495,10.895-33.063,28.756-33.063
			c20.019,0,25.338,17.608,25.338,28.884c-0.02,1.738-0.146,3.473-0.381,5.194H458.468z M491.152,432.769
			c0.127-7.094-2.914-18.116-15.455-18.116c-11.275,0-16.217,10.39-17.104,18.116H491.152z"/>
		<path fill="#ED6C05" d="M514.203,457.98c3.293,2.153,9.121,4.434,14.695,4.434c8.106,0,11.907-4.054,11.907-9.12
			c0-5.321-3.168-8.234-11.401-11.275c-11.021-3.932-16.215-10.008-16.215-17.355c0-9.882,7.979-17.988,21.155-17.988
			c6.207,0,11.654,1.772,15.07,3.8l-2.787,8.108c-3.77-2.323-8.113-3.553-12.541-3.547c-6.588,0-10.266,3.8-10.266,8.36
			c0,5.067,3.674,7.348,11.653,10.388c10.644,4.055,16.091,9.375,16.091,18.496c0,10.77-8.361,18.369-22.937,18.369
			c-6.713,0-12.922-1.646-17.229-4.181L514.203,457.98z"/>
		<path fill="#ED6C05" d="M579.318,390.457v17.608h15.963v8.487h-15.963v33.059c0,7.603,2.153,11.908,8.36,11.908
			c2.914,0,5.068-0.38,6.461-0.76l0.506,8.36c-2.151,0.888-5.571,1.528-9.881,1.528c-5.192,0-9.375-1.646-12.034-4.688
			c-3.166-3.293-4.308-8.736-4.308-15.963v-33.446h-9.502v-8.487h9.502V393.37L579.318,390.457z"/>
		<path fill="#ED6C05" d="M130.155,381.923c34.386,14.478,58.755,48.054,59.802,87.459h-17.52
			c-4.805-29.98-24.026-55.141-50.331-68.161L130.155,381.923z"/>
		<path fill="#FFFFFF" stroke="#2362A2" stroke-miterlimit="10" d="M92.266,374.302c11.007-0.012,21.937,1.84,32.327,5.476
			l-8.997,18.521c-10.954-4.396-22.65-6.646-34.454-6.631c-34.987,0-65.433,19.438-81.142,48.088
			C13.324,401.642,49.602,374.302,92.266,374.302z"/>
		<path fill="#FFFFFF" stroke="#2362A2" stroke-miterlimit="10" d="M84.929,467.616l4.462-9.174
			c-1.415-2.566-0.481-5.796,2.086-7.211c0.53-0.292,1.106-0.491,1.704-0.589l39.226-80.756l-34.393,82.459
			c1.949,2.187,1.756,5.539-0.431,7.488c-0.9,0.802-2.046,1.271-3.25,1.336l-4.517,10.832L84.929,467.616z"/>
	</g>
</g>
</svg>
